SplineFontDB: 3.2
FontName: monoreal-italic
FullName: mono real-Italic
FamilyName: mono real
Weight: Regular
Copyright: 2020 tigger04 based on Monoid by larsenworks
Version: 1
ItalicAngle: 0
UnderlinePosition: -504
UnderlineWidth: 120
Ascent: 1228
Descent: 308
InvalidEm: 0
sfntRevision: 0x00010000
LayerCount: 2
Layer: 0 1 "Back" 1
Layer: 1 1 "Fore" 0
XUID: [1021 796 -163880829 11107988]
StyleMap: 0x0000
FSType: 0
OS2Version: 4
OS2_WeightWidthSlopeOnly: 0
OS2_UseTypoMetrics: 1
CreationTime: 1427918972
ModificationTime: 1606781694
PfmFamily: 17
TTFWeight: 300
TTFWidth: 4
LineGap: 0
VLineGap: 0
Panose: 2 0 3 3 0 0 0 0 0 0
OS2TypoAscent: 1664
OS2TypoAOffset: 0
OS2TypoDescent: -384
OS2TypoDOffset: 0
OS2TypoLinegap: 0
OS2WinAscent: 1664
OS2WinAOffset: 0
OS2WinDescent: 384
OS2WinDOffset: 0
HheadAscent: 1664
HheadAOffset: 0
HheadDescent: -384
HheadDOffset: 0
OS2SubXSize: 998
OS2SubYSize: 1075
OS2SubXOff: 0
OS2SubYOff: 215
OS2SupXSize: 998
OS2SupYSize: 1075
OS2SupXOff: 0
OS2SupYOff: 737
OS2StrikeYSize: 76
OS2StrikeYPos: 397
OS2CapHeight: 1408
OS2XHeight: 1024
OS2Vendor: 'PfEd'
OS2CodePages: 0000009f.00000000
OS2UnicodeRanges: 800002ff.10045063.00000000.00000000
Lookup: 1 0 0 "'rtla' Right to Left Alternates lookup 0" { "'rtla' Right to Left Alternates lookup 0 subtable"  } ['rtla' ('DFLT' <'dflt' > ) ]
Lookup: 254 0 0 "<2,2> Cursive lookup 1" { "<2,2> Cursive lookup 1 subtable"  } [<2,2> ('DFLT' <'dflt' > ) ]
Lookup: 1 0 0 "<2,2> Cursive lookup 1 nested-substitutions 0" { "<2,2> Cursive lookup 1 nested-substitutions 0 subtable"  } []
Lookup: 254 0 0 "<2,2> Cursive in Hiragana & Katakana lookup 3" { "<2,2> Cursive in Hiragana & Katakana lookup 3 subtable"  } [<2,2> ('DFLT' <'dflt' > 'kana' <'dflt' > ) ]
Lookup: 1 0 0 "<2,2> Cursive in Hiragana & Katakana lookup 3 nested-substitutions 0" { "<2,2> Cursive in Hiragana & Katakana lookup 3 nested-substitutions 0 subtable"  } []

StartChar: .notdef
Encoding: 65536 -1 0
Width: 561
Flags: W
LayerCount: 2
Fore
SplineSet
51 0 m 1,0,-1
 51 1024 l 1,1,-1
 459 1024 l 1,2,-1
 459 0 l 1,3,-1
 51 0 l 1,0,-1
102 51 m 1,4,-1
 408 51 l 1,5,-1
 408 973 l 1,6,-1
 102 973 l 1,7,-1
 102 51 l 1,4,-1
EndSplineSet
EndChar

StartChar: exclam
Encoding: 33 33 4
Width: 1024
Flags: W
LayerCount: 2
Fore
SplineSet
489 272 m 0,0,1
 544 272 544 272 576.5 241.5 c 128,-1,2
 609 211 609 211 609 160 c 0,3,4
 609 85 609 85 557 34.5 c 128,-1,5
 505 -16 505 -16 433 -16 c 0,6,7
 378 -16 378 -16 346 14.5 c 128,-1,8
 314 45 314 45 314 96 c 0,9,10
 314 171 314 171 366 221.5 c 128,-1,11
 418 272 418 272 489 272 c 0,0,1
600 512 m 1,12,-1
 472 512 l 1,13,-1
 636 1408 l 1,14,-1
 784 1408 l 1,15,-1
 600 512 l 1,12,-1
EndSplineSet
Substitution2: "<2,2> Cursive lookup 175 nested-substitutions 0 subtable" exclam.2r
Substitution2: "<2,2> Cursive lookup 173 nested-substitutions 0 subtable" exclam.2l
Substitution2: "<2,2> Cursive lookup 67 nested-substitutions 0 subtable" larsenwork2
Substitution2: "<2,2> Cursive lookup 61 nested-substitutions 0 subtable" larsenwork1
Substitution2: "<2,2> Cursive lookup 16 nested-substitutions 0 subtable" larsenwork5
EndChar

StartChar: quotedbl
Encoding: 34 34 5
Width: 1024
Flags: W
LayerCount: 2
Fore
SplineSet
902 1408 m 1,0,-1
 1030 1408 l 1,1,-1
 905 768 l 1,2,-1
 777 768 l 1,3,-1
 902 1408 l 1,0,-1
518 1408 m 1,4,-1
 646 1408 l 1,5,-1
 521 768 l 1,6,-1
 393 768 l 1,7,-1
 518 1408 l 1,4,-1
EndSplineSet
EndChar

StartChar: numbersign
Encoding: 35 35 6
Width: 1024
Flags: W
LayerCount: 2
Fore
SplineSet
548 904 m 1,0,-1
 470 504 l 1,1,-1
 726 504 l 1,2,-1
 804 904 l 1,3,-1
 548 904 l 1,0,-1
982 504 m 1,4,-1
 959 384 l 1,5,-1
 831 384 l 1,6,-1
 756 0 l 1,7,-1
 628 0 l 1,8,-1
 703 384 l 1,9,-1
 447 384 l 1,10,-1
 372 0 l 1,11,-1
 244 0 l 1,12,-1
 319 384 l 1,13,-1
 191 384 l 1,14,-1
 214 504 l 1,15,-1
 342 504 l 1,16,-1
 420 904 l 1,17,-1
 292 904 l 1,18,-1
 315 1024 l 1,19,-1
 443 1024 l 1,20,-1
 518 1408 l 1,21,-1
 646 1408 l 1,22,-1
 571 1024 l 1,23,-1
 827 1024 l 1,24,-1
 902 1408 l 1,25,-1
 1030 1408 l 1,26,-1
 955 1024 l 1,27,-1
 1083 1024 l 1,28,-1
 1060 904 l 1,29,-1
 932 904 l 1,30,-1
 854 504 l 1,31,-1
 982 504 l 1,4,-1
EndSplineSet
EndChar

StartChar: dollar
Encoding: 36 36 7
Width: 1024
Flags: W
LayerCount: 2
Fore
SplineSet
904 1419 m 1,0,1
 1013 1412 1013 1412 1122 1399 c 1,2,-1
 1098 1278 l 1,3,4
 957 1294 957 1294 880 1299 c 1,5,-1
 775 758 l 1,6,7
 875 730 875 730 936 655.5 c 128,-1,8
 997 581 997 581 997 469 c 0,9,10
 997 329 997 329 925 217.5 c 128,-1,11
 853 106 853 106 740 47.5 c 128,-1,12
 627 -11 627 -11 497 -16 c 1,13,-1
 475 -128 l 1,14,-1
 347 -128 l 1,15,-1
 369 -13 l 1,16,17
 250 -6 250 -6 113 16 c 1,18,-1
 137 139 l 1,19,20
 275 116 275 116 393 108 c 1,21,-1
 505 682 l 1,22,23
 402 709 402 709 341.5 781.5 c 128,-1,24
 281 854 281 854 281 963 c 0,25,26
 281 1019 281 1019 296.5 1079 c 128,-1,27
 312 1139 312 1139 349.5 1201.5 c 128,-1,28
 387 1264 387 1264 441.5 1313 c 128,-1,29
 496 1362 496 1362 583.5 1393 c 128,-1,30
 671 1424 671 1424 777 1424 c 1,31,-1
 799 1536 l 1,32,-1
 927 1536 l 1,33,-1
 904 1419 l 1,0,1
753 1304 m 1,34,35
 675 1304 675 1304 613.5 1281.5 c 128,-1,36
 552 1259 552 1259 515 1225 c 128,-1,37
 478 1191 478 1191 453.5 1146.5 c 128,-1,38
 429 1102 429 1102 420 1062.5 c 128,-1,39
 411 1023 411 1023 411 985 c 0,40,41
 411 930 411 930 433.5 890 c 128,-1,42
 456 850 456 850 494 828.5 c 128,-1,43
 532 807 532 807 570.5 796 c 128,-1,44
 609 785 609 785 652 782 c 1,45,-1
 753 1304 l 1,34,35
520 104 m 1,46,47
 613 109 613 109 690.5 149.5 c 128,-1,48
 768 190 768 190 817.5 268.5 c 128,-1,49
 867 347 867 347 867 449 c 128,-1,50
 867 551 867 551 799.5 602.5 c 128,-1,51
 732 654 732 654 629 662 c 1,52,-1
 520 104 l 1,46,47
EndSplineSet
EndChar

StartChar: percent
Encoding: 37 37 8
Width: 1024
Flags: W
LayerCount: 2
Fore
SplineSet
707 408 m 0,0,1
 625 408 625 408 577.5 350 c 128,-1,2
 530 292 530 292 530 216 c 0,3,4
 530 162 530 162 561.5 133 c 128,-1,5
 593 104 593 104 648 104 c 0,6,7
 725 104 725 104 775.5 158.5 c 128,-1,8
 826 213 826 213 826 296 c 0,9,10
 826 350 826 350 794 379 c 128,-1,11
 762 408 762 408 707 408 c 0,0,1
731 528 m 0,12,13
 834 528 834 528 895 468 c 128,-1,14
 956 408 956 408 956 313 c 0,15,16
 956 233 956 233 915 158 c 128,-1,17
 874 83 874 83 796.5 33.5 c 128,-1,18
 719 -16 719 -16 625 -16 c 0,19,20
 522 -16 522 -16 461 44 c 128,-1,21
 400 104 400 104 400 199 c 0,22,23
 400 324 400 324 495.5 426 c 128,-1,24
 591 528 591 528 731 528 c 0,12,13
73 212 m 1,25,-1
 2 300 l 1,26,-1
 1072 1196 l 1,27,-1
 1143 1108 l 1,28,-1
 73 212 l 1,25,-1
497 1304 m 0,29,30
 415 1304 415 1304 367.5 1246 c 128,-1,31
 320 1188 320 1188 320 1112 c 0,32,33
 320 1058 320 1058 351.5 1029 c 128,-1,34
 383 1000 383 1000 438 1000 c 0,35,36
 515 1000 515 1000 565.5 1054.5 c 128,-1,37
 616 1109 616 1109 616 1192 c 0,38,39
 616 1246 616 1246 584 1275 c 128,-1,40
 552 1304 552 1304 497 1304 c 0,29,30
521 1424 m 0,41,42
 624 1424 624 1424 685 1364 c 128,-1,43
 746 1304 746 1304 746 1209 c 0,44,45
 746 1129 746 1129 705 1054 c 128,-1,46
 664 979 664 979 586.5 929.5 c 128,-1,47
 509 880 509 880 415 880 c 0,48,49
 312 880 312 880 251 940 c 128,-1,50
 190 1000 190 1000 190 1095 c 0,51,52
 190 1220 190 1220 285.5 1322 c 128,-1,53
 381 1424 381 1424 521 1424 c 0,41,42
EndSplineSet
EndChar

StartChar: ampersand
Encoding: 38 38 9
Width: 1024
Flags: W
LayerCount: 2
Fore
SplineSet
442 681 m 1,0,1
 323 643 323 643 239 554.5 c 128,-1,2
 155 466 155 466 155 340 c 0,3,4
 155 236 155 236 233.5 170 c 128,-1,5
 312 104 312 104 456 104 c 0,6,7
 609 104 609 104 710 182 c 1,8,-1
 442 681 l 1,0,1
524 819 m 1,9,10
 688 857 688 857 775.5 942 c 128,-1,11
 863 1027 863 1027 863 1145 c 0,12,13
 863 1219 863 1219 817 1263.5 c 128,-1,14
 771 1308 771 1308 690 1308 c 0,15,16
 577 1308 577 1308 506 1228 c 128,-1,17
 435 1148 435 1148 435 1045 c 0,18,19
 435 1034 435 1034 436 1024 c 128,-1,20
 437 1014 437 1014 440 1002 c 128,-1,21
 443 990 443 990 445 982 c 128,-1,22
 447 974 447 974 453.5 959 c 128,-1,23
 460 944 460 944 463 937 c 128,-1,24
 466 930 466 930 475.5 911 c 128,-1,25
 485 892 485 892 489 884.5 c 128,-1,26
 493 877 493 877 506 852.5 c 128,-1,27
 519 828 519 828 524 819 c 1,9,10
802 299 m 1,28,29
 824 343 824 343 840 431 c 2,30,-1
 880 640 l 1,31,-1
 1008 640 l 1,32,-1
 968 431 l 2,33,34
 936 266 936 266 866 179 c 1,35,-1
 962 0 l 1,36,-1
 807 0 l 1,37,-1
 764 82 l 1,38,39
 625 -16 625 -16 433 -16 c 0,40,41
 239 -16 239 -16 132 79 c 128,-1,42
 25 174 25 174 25 319 c 0,43,44
 25 479 25 479 132 604.5 c 128,-1,45
 239 730 239 730 388 782 c 1,46,47
 357 840 357 840 343.5 868 c 128,-1,48
 330 896 330 896 317.5 940 c 128,-1,49
 305 984 305 984 305 1025 c 0,50,51
 305 1101 305 1101 335.5 1173.5 c 128,-1,52
 366 1246 366 1246 419 1302.5 c 128,-1,53
 472 1359 472 1359 549.5 1393.5 c 128,-1,54
 627 1428 627 1428 714 1428 c 0,55,56
 842 1428 842 1428 917.5 1355 c 128,-1,57
 993 1282 993 1282 993 1165 c 0,58,59
 993 1009 993 1009 878 885.5 c 128,-1,60
 763 762 763 762 579 716 c 1,61,-1
 802 299 l 1,28,29
EndSplineSet
Substitution2: "<2,2> Cursive lookup 159 nested-substitutions 0 subtable" ampersand.method
Substitution2: "<2,2> Cursive lookup 157 nested-substitutions 0 subtable" larsenwork6
Substitution2: "<2,2> Cursive lookup 155 nested-substitutions 0 subtable" ampamp
EndChar

StartChar: quotesingle
Encoding: 39 39 10
Width: 1024
Flags: W
LayerCount: 2
Fore
SplineSet
646 1408 m 1,0,-1
 773 1408 l 1,1,-1
 649 768 l 1,2,-1
 521 768 l 1,3,-1
 646 1408 l 1,0,-1
EndSplineSet
EndChar

StartChar: parenleft
Encoding: 40 40 11
Width: 1024
Flags: W
LayerCount: 2
Fore
SplineSet
462 486 m 0,0,1
 462 120 462 120 743 -35 c 1,2,-1
 668 -140 l 1,3,4
 506 -53 506 -53 419 99 c 128,-1,5
 332 251 332 251 332 465 c 0,6,7
 332 633 332 633 372.5 788.5 c 128,-1,8
 413 944 413 944 479.5 1063 c 128,-1,9
 546 1182 546 1182 633 1281 c 128,-1,10
 720 1380 720 1380 811.5 1444.5 c 128,-1,11
 903 1509 903 1509 996 1546 c 1,12,-1
 1030 1441 l 1,13,14
 952 1410 952 1410 874.5 1353.5 c 128,-1,15
 797 1297 797 1297 722 1209.5 c 128,-1,16
 647 1122 647 1122 589.5 1016.5 c 128,-1,17
 532 911 532 911 497 772.5 c 128,-1,18
 462 634 462 634 462 486 c 0,0,1
EndSplineSet
Substitution2: "<2,2> Cursive in Hiragana & Katakana lookup 3 nested-substitutions 0 subtable" parenleft.shrug
Substitution2: "'rtla' Right to Left Alternates lookup 0 subtable" parenright
EndChar

StartChar: parenright
Encoding: 41 41 12
Width: 1024
Flags: W
LayerCount: 2
Fore
SplineSet
683 919 m 0,0,1
 683 1105 683 1105 610.5 1236.5 c 128,-1,2
 538 1368 538 1368 405 1436 c 1,3,-1
 478 1546 l 1,4,5
 638 1465 638 1465 725.5 1311.5 c 128,-1,6
 813 1158 813 1158 813 940 c 0,7,8
 813 752 813 752 759.5 574.5 c 128,-1,9
 706 397 706 397 615 259 c 128,-1,10
 524 121 524 121 404 17.5 c 128,-1,11
 284 -86 284 -86 150 -140 c 1,12,-1
 120 -30 l 1,13,14
 234 16 234 16 336 107.5 c 128,-1,15
 438 199 438 199 515 321 c 128,-1,16
 592 443 592 443 637.5 599 c 128,-1,17
 683 755 683 755 683 919 c 0,0,1
EndSplineSet
Substitution2: "<2,2> Cursive in Hiragana & Katakana lookup 5 nested-substitutions 0 subtable" parenright.shrug
Substitution2: "'rtla' Right to Left Alternates lookup 0 subtable" parenleft
EndChar

StartChar: asterisk
Encoding: 42 42 13
Width: 1024
Flags: W
LayerCount: 2
Fore
SplineSet
494 630 m 1,0,-1
 571 1024 l 1,1,-1
 699 1024 l 1,2,-1
 622 630 l 1,3,-1
 1014 750 l 1,4,-1
 1034 637 l 1,5,-1
 636 515 l 1,6,-1
 807 195 l 1,7,-1
 688 128 l 1,8,-1
 521 439 l 1,9,-1
 235 128 l 1,10,-1
 142 195 l 1,11,-1
 436 515 l 1,12,-1
 86 637 l 1,13,-1
 150 750 l 1,14,-1
 494 630 l 1,0,-1
EndSplineSet
Substitution2: "<2,2> Cursive lookup 230 nested-substitutions 0 subtable" asterisk.commentend
Substitution2: "<2,2> Cursive lookup 228 nested-substitutions 0 subtable" asterisk.commentstart
Substitution2: "<2,2> Cursive lookup 226 nested-substitutions 0 subtable" asterisk.commentstart
Substitution2: "<2,2> Cursive lookup 161 nested-substitutions 0 subtable" asterisk.period
EndChar

StartChar: plus
Encoding: 43 43 14
Width: 1024
Flags: W
LayerCount: 2
Fore
SplineSet
651 636 m 1,0,-1
 1035 636 l 1,1,-1
 1011 516 l 1,2,-1
 627 516 l 1,3,-1
 552 128 l 1,4,-1
 424 128 l 1,5,-1
 499 516 l 1,6,-1
 115 516 l 1,7,-1
 139 636 l 1,8,-1
 523 636 l 1,9,-1
 598 1024 l 1,10,-1
 726 1024 l 1,11,-1
 651 636 l 1,0,-1
EndSplineSet
EndChar

StartChar: comma
Encoding: 44 44 15
Width: 1024
Flags: W
LayerCount: 2
Fore
SplineSet
316 368 m 1,0,-1
 572 368 l 1,1,-1
 504 23 l 2,2,3
 495 -21 495 -21 489.5 -42.5 c 128,-1,4
 484 -64 484 -64 464.5 -104.5 c 128,-1,5
 445 -145 445 -145 414 -177 c 0,6,7
 326 -272 326 -272 191 -272 c 1,8,-1
 214 -152 l 1,9,10
 281 -152 281 -152 323 -107 c 0,11,12
 339 -90 339 -90 350 -66.5 c 128,-1,13
 361 -43 361 -43 365 -27 c 128,-1,14
 369 -11 369 -11 376 23 c 2,15,-1
 397 128 l 1,16,-1
 269 128 l 1,17,-1
 316 368 l 1,0,-1
EndSplineSet
EndChar

StartChar: hyphen
Encoding: 45 45 16
Width: 1024
Flags: W
LayerCount: 2
Fore
SplineSet
140 636 m 1,0,-1
 1036 636 l 1,1,-1
 1012 516 l 1,2,-1
 116 516 l 1,3,-1
 140 636 l 1,0,-1
EndSplineSet
Substitution2: "<2,2> Cursive lookup 133 nested-substitutions 0 subtable" hyphen.more
Substitution2: "<2,2> Cursive lookup 131 nested-substitutions 0 subtable" hyphen.more
Substitution2: "<2,2> Cursive lookup 129 nested-substitutions 0 subtable" hyphen.operator
Substitution2: "<2,2> Cursive lookup 57 nested-substitutions 0 subtable" larsenwork
Substitution2: "<2,2> Cursive lookup 55 nested-substitutions 0 subtable" arrowleft.liga
Substitution2: "<2,2> Cursive lookup 47 nested-substitutions 0 subtable" larsenwork1
Substitution2: "<2,2> Cursive lookup 41 nested-substitutions 0 subtable" ligaarrowlefttwoheads
Substitution2: "<2,2> Cursive lookup 31 nested-substitutions 0 subtable" larsenwork
Substitution2: "<2,2> Cursive lookup 29 nested-substitutions 0 subtable" larsenwork
Substitution2: "<2,2> Cursive lookup 27 nested-substitutions 0 subtable" ligaarrowleftlong
Substitution2: "<2,2> Cursive lookup 25 nested-substitutions 0 subtable" larsenwork3
Substitution2: "<2,2> Cursive lookup 20 nested-substitutions 0 subtable" commentstart
Substitution2: "<2,2> Cursive lookup 18 nested-substitutions 0 subtable" larsenwork5
EndChar

StartChar: period
Encoding: 46 46 17
Width: 1024
Flags: W
LayerCount: 2
Fore
SplineSet
279 240 m 1,0,-1
 535 240 l 1,1,-1
 488 0 l 1,2,-1
 232 0 l 1,3,-1
 279 240 l 1,0,-1
EndSplineSet
Substitution2: "<2,2> Cursive lookup 202 nested-substitutions 0 subtable" period.2r
Substitution2: "<2,2> Cursive lookup 200 nested-substitutions 0 subtable" period.2l
Substitution2: "<2,2> Cursive lookup 196 nested-substitutions 0 subtable" larsenwork
Substitution2: "<2,2> Cursive lookup 194 nested-substitutions 0 subtable" larsenwork
Substitution2: "<2,2> Cursive lookup 192 nested-substitutions 0 subtable" period.x3
Substitution2: "<2,2> Cursive lookup 190 nested-substitutions 0 subtable" larsenwork
Substitution2: "<2,2> Cursive lookup 188 nested-substitutions 0 subtable" larsenwork
EndChar

StartChar: slash
Encoding: 47 47 18
Width: 1024
Flags: W
LayerCount: 2
Fore
SplineSet
68 -155 m 1,0,-1
 -35 -102 l 1,1,-1
 1078 1563 l 1,2,-1
 1181 1510 l 1,3,-1
 68 -155 l 1,0,-1
EndSplineSet
Substitution2: "<2,2> Cursive lookup 224 nested-substitutions 0 subtable" ligadoubleslash
Substitution2: "<2,2> Cursive lookup 222 nested-substitutions 0 subtable" larsenwork
Substitution2: "<2,2> Cursive lookup 7 nested-substitutions 0 subtable" slash.shrug
EndChar

StartChar: zero
Encoding: 48 48 19
Width: 1024
Flags: W
LayerCount: 2
Fore
SplineSet
319 241 m 1,0,1
 345 106 345 106 457 106 c 0,2,3
 578 106 578 106 659 264 c 0,4,5
 679 303 679 303 700 379 c 128,-1,6
 721 455 721 455 734.5 518.5 c 128,-1,7
 748 582 748 582 772 704 c 0,8,9
 814 921 814 921 824 997 c 1,10,-1
 319 241 l 1,0,1
689 1302 m 0,11,12
 567 1302 567 1302 486 1144 c 0,13,14
 466 1105 466 1105 444.5 1027 c 128,-1,15
 423 949 423 949 411 890.5 c 128,-1,16
 399 832 399 832 374 704 c 0,17,18
 332 487 332 487 322 411 c 1,19,-1
 827 1167 l 1,20,21
 801 1302 801 1302 689 1302 c 0,11,12
713 1426 m 0,22,23
 780 1426 780 1426 829.5 1401.5 c 128,-1,24
 879 1377 879 1377 906.5 1335.5 c 128,-1,25
 934 1294 934 1294 947 1245.5 c 128,-1,26
 960 1197 960 1197 960 1142 c 0,27,28
 960 1033 960 1033 896 704 c 0,29,30
 869 562 869 562 853.5 490.5 c 128,-1,31
 838 419 838 419 812.5 333.5 c 128,-1,32
 787 248 787 248 759 199 c 0,33,34
 634 -18 634 -18 433 -18 c 0,35,36
 347 -18 347 -18 289.5 23 c 128,-1,37
 232 64 232 64 208.5 125.5 c 128,-1,38
 185 187 185 187 185 266 c 0,39,40
 185 370 185 370 250 704 c 0,41,42
 277 846 277 846 292.5 917.5 c 128,-1,43
 308 989 308 989 333.5 1074.5 c 128,-1,44
 359 1160 359 1160 387 1209 c 0,45,46
 512 1426 512 1426 713 1426 c 0,22,23
EndSplineSet
EndChar

StartChar: one
Encoding: 49 49 20
Width: 1024
Flags: W
LayerCount: 2
Fore
SplineSet
794 1408 m 1,0,-1
 902 1408 l 1,1,-1
 628 0 l 1,2,-1
 500 0 l 1,3,-1
 742 1246 l 1,4,-1
 732 1246 l 1,5,-1
 378 1022 l 1,6,-1
 333 1114 l 1,7,-1
 794 1408 l 1,0,-1
EndSplineSet
EndChar

StartChar: two
Encoding: 50 50 21
Width: 1024
Flags: W
LayerCount: 2
Fore
SplineSet
387 1393 m 1,0,1
 551 1424 551 1424 681 1424 c 0,2,3
 839 1424 839 1424 913.5 1352.5 c 128,-1,4
 988 1281 988 1281 988 1168 c 0,5,6
 988 1099 988 1099 966 1034 c 128,-1,7
 944 969 944 969 920.5 933 c 128,-1,8
 897 897 897 897 856 843 c 2,9,-1
 301 120 l 1,10,-1
 833 120 l 1,11,-1
 810 0 l 1,12,-1
 116 0 l 1,13,-1
 133 89 l 1,14,-1
 753 899 l 2,15,16
 782 937 782 937 793.5 953.5 c 128,-1,17
 805 970 805 970 824 1004.5 c 128,-1,18
 843 1039 843 1039 850.5 1073 c 128,-1,19
 858 1107 858 1107 858 1148 c 0,20,21
 858 1304 858 1304 657 1304 c 0,22,23
 537 1304 537 1304 363 1273 c 1,24,-1
 387 1393 l 1,0,1
EndSplineSet
EndChar

StartChar: three
Encoding: 51 51 22
Width: 1024
Flags: W
LayerCount: 2
Fore
SplineSet
768 606 m 0,0,1
 768 693 768 693 720 732.5 c 128,-1,2
 672 772 672 772 602 772 c 0,3,4
 561 772 561 772 522 761 c 1,5,-1
 478 837 l 1,6,-1
 850 1288 l 1,7,-1
 386 1288 l 1,8,-1
 410 1408 l 1,9,-1
 1030 1408 l 1,10,-1
 1008 1298 l 1,11,-1
 633 868 l 1,12,-1
 638 861 l 1,13,14
 672 871 672 871 705 871 c 0,15,16
 798 871 798 871 848.5 803 c 128,-1,17
 899 735 899 735 899 633 c 0,18,19
 899 562 899 562 877 449.5 c 128,-1,20
 855 337 855 337 828 262 c 0,21,22
 781 133 781 133 681 58.5 c 128,-1,23
 581 -16 581 -16 427 -16 c 0,24,25
 303 -16 303 -16 123 35 c 1,26,-1
 147 160 l 1,27,28
 319 104 319 104 450 104 c 0,29,30
 558 104 558 104 617 152 c 128,-1,31
 676 200 676 200 708 290 c 0,32,33
 730 353 730 353 749 450.5 c 128,-1,34
 768 548 768 548 768 606 c 0,0,1
EndSplineSet
EndChar

StartChar: four
Encoding: 52 52 23
Width: 1024
Flags: W
LayerCount: 2
Fore
SplineSet
756 0 m 1,0,-1
 628 0 l 1,1,-1
 703 384 l 1,2,-1
 127 384 l 1,3,-1
 146 484 l 1,4,-1
 820 1436 l 1,5,-1
 918 1380 l 1,6,-1
 306 514 l 1,7,-1
 304 504 l 1,8,-1
 726 504 l 1,9,-1
 777 768 l 1,10,-1
 905 768 l 1,11,-1
 854 504 l 1,12,-1
 982 504 l 1,13,-1
 959 384 l 1,14,-1
 831 384 l 1,15,-1
 756 0 l 1,0,-1
EndSplineSet
EndChar

StartChar: five
Encoding: 53 53 24
Width: 1024
Flags: W
LayerCount: 2
Fore
SplineSet
143 137 m 1,0,1
 310 104 310 104 440 104 c 0,2,3
 506 104 506 104 559.5 129 c 128,-1,4
 613 154 613 154 647 197.5 c 128,-1,5
 681 241 681 241 705 291.5 c 128,-1,6
 729 342 729 342 741.5 401 c 128,-1,7
 754 460 754 460 759 507.5 c 128,-1,8
 764 555 764 555 764 600 c 0,9,10
 764 792 764 792 606 792 c 0,11,12
 474 792 474 792 376 683 c 1,13,-1
 255 717 l 1,14,-1
 390 1408 l 1,15,-1
 1030 1408 l 1,16,-1
 1006 1288 l 1,17,-1
 494 1288 l 1,18,-1
 403 816 l 1,19,-1
 413 816 l 1,20,21
 472 863 472 863 526.5 887.5 c 128,-1,22
 581 912 581 912 649 912 c 0,23,24
 895 912 895 912 895 629 c 0,25,26
 895 550 895 550 883 469.5 c 128,-1,27
 871 389 871 389 837 299.5 c 128,-1,28
 803 210 803 210 752 142 c 128,-1,29
 701 74 701 74 614 29 c 128,-1,30
 527 -16 527 -16 417 -16 c 0,31,32
 294 -16 294 -16 119 15 c 1,33,-1
 143 137 l 1,0,1
EndSplineSet
EndChar

StartChar: six
Encoding: 54 54 25
Width: 1024
Flags: W
LayerCount: 2
Fore
SplineSet
331 448 m 0,0,1
 310 339 310 339 310 277 c 0,2,3
 310 194 310 194 346.5 149 c 128,-1,4
 383 104 383 104 472 104 c 0,5,6
 518 104 518 104 555 116 c 128,-1,7
 592 128 592 128 619 152 c 128,-1,8
 646 176 646 176 666 205 c 128,-1,9
 686 234 686 234 701.5 276 c 128,-1,10
 717 318 717 318 727 357 c 128,-1,11
 737 396 737 396 747 448 c 0,12,13
 768 557 768 557 768 619 c 0,14,15
 768 702 768 702 731.5 747 c 128,-1,16
 695 792 695 792 606 792 c 0,17,18
 560 792 560 792 523 780 c 128,-1,19
 486 768 486 768 459 744 c 128,-1,20
 432 720 432 720 412 691 c 128,-1,21
 392 662 392 662 376.5 620 c 128,-1,22
 361 578 361 578 351 539 c 128,-1,23
 341 500 341 500 331 448 c 0,0,1
459 -16 m 0,24,25
 318 -16 318 -16 248 54.5 c 128,-1,26
 178 125 178 125 178 254 c 0,27,28
 178 320 178 320 203 447 c 0,29,30
 230 584 230 584 277.5 709 c 128,-1,31
 325 834 325 834 379 930 c 128,-1,32
 433 1026 433 1026 509.5 1123.5 c 128,-1,33
 586 1221 586 1221 652.5 1290.5 c 128,-1,34
 719 1360 719 1360 808 1444 c 1,35,-1
 887 1362 l 1,36,37
 748 1230 748 1230 649.5 1115.5 c 128,-1,38
 551 1001 551 1001 477 864 c 1,39,-1
 486 860 l 1,40,41
 562 912 562 912 649 912 c 0,42,43
 771 912 771 912 837 842 c 128,-1,44
 903 772 903 772 903 653 c 0,45,46
 903 592 903 592 875 448 c 0,47,48
 864 390 864 390 857 359 c 128,-1,49
 850 328 850 328 832.5 276 c 128,-1,50
 815 224 815 224 792 184 c 0,51,52
 741 93 741 93 654 38.5 c 128,-1,53
 567 -16 567 -16 459 -16 c 0,24,25
EndSplineSet
EndChar

StartChar: seven
Encoding: 55 55 26
Width: 1024
Flags: W
LayerCount: 2
Fore
SplineSet
336 1288 m 1,0,-1
 360 1408 l 1,1,-1
 1060 1408 l 1,2,-1
 1042 1318 l 1,3,-1
 352 0 l 1,4,-1
 223 0 l 1,5,-1
 899 1278 l 1,6,-1
 901 1288 l 1,7,-1
 336 1288 l 1,0,-1
EndSplineSet
EndChar

StartChar: eight
Encoding: 56 56 27
Width: 1024
Flags: W
LayerCount: 2
Fore
SplineSet
851 1127 m 0,0,1
 851 1209 851 1209 812 1256.5 c 128,-1,2
 773 1304 773 1304 689 1304 c 0,3,4
 631 1304 631 1304 584.5 1279 c 128,-1,5
 538 1254 538 1254 508.5 1215.5 c 128,-1,6
 479 1177 479 1177 459.5 1128 c 128,-1,7
 440 1079 440 1079 432 1033 c 128,-1,8
 424 987 424 987 424 945 c 0,9,10
 424 863 424 863 463 815.5 c 128,-1,11
 502 768 502 768 585 768 c 0,12,13
 659 768 659 768 714 806.5 c 128,-1,14
 769 845 769 845 797 904 c 128,-1,15
 825 963 825 963 838 1019.5 c 128,-1,16
 851 1076 851 1076 851 1127 c 0,0,1
406 716 m 1,17,18
 295 788 295 788 295 938 c 0,19,20
 295 1002 295 1002 311 1068 c 128,-1,21
 327 1134 327 1134 361 1198.5 c 128,-1,22
 395 1263 395 1263 443 1313 c 128,-1,23
 491 1363 491 1363 561 1393.5 c 128,-1,24
 631 1424 631 1424 713 1424 c 0,25,26
 846 1424 846 1424 913 1347 c 128,-1,27
 980 1270 980 1270 980 1143 c 0,28,29
 980 1003 980 1003 919.5 889 c 128,-1,30
 859 775 859 775 744 716 c 1,31,-1
 742 706 l 1,32,33
 871 632 871 632 871 470 c 0,34,35
 871 385 871 385 841.5 300 c 128,-1,36
 812 215 812 215 758.5 144 c 128,-1,37
 705 73 705 73 619.5 28.5 c 128,-1,38
 534 -16 534 -16 433 -16 c 0,39,40
 294 -16 294 -16 220.5 63.5 c 128,-1,41
 147 143 147 143 147 275 c 0,42,43
 147 418 147 418 214.5 534 c 128,-1,44
 282 650 282 650 404 706 c 1,45,-1
 406 716 l 1,17,18
562 648 m 0,46,47
 489 648 489 648 431.5 613.5 c 128,-1,48
 374 579 374 579 341.5 524.5 c 128,-1,49
 309 470 309 470 292.5 410.5 c 128,-1,50
 276 351 276 351 276 293 c 0,51,52
 276 206 276 206 320.5 155 c 128,-1,53
 365 104 365 104 456 104 c 0,54,55
 529 104 529 104 586.5 138.5 c 128,-1,56
 644 173 644 173 676.5 227.5 c 128,-1,57
 709 282 709 282 725.5 341.5 c 128,-1,58
 742 401 742 401 742 459 c 0,59,60
 742 546 742 546 697.5 597 c 128,-1,61
 653 648 653 648 562 648 c 0,46,47
EndSplineSet
EndChar

StartChar: nine
Encoding: 57 57 28
Width: 1024
Flags: W
LayerCount: 2
Fore
SplineSet
815 960 m 0,0,1
 836 1068 836 1068 836 1131 c 0,2,3
 836 1214 836 1214 799 1259 c 128,-1,4
 762 1304 762 1304 673 1304 c 0,5,6
 619 1304 619 1304 576.5 1285.5 c 128,-1,7
 534 1267 534 1267 506.5 1238 c 128,-1,8
 479 1209 479 1209 457.5 1161 c 128,-1,9
 436 1113 436 1113 423.5 1068.5 c 128,-1,10
 411 1024 411 1024 399 960 c 0,11,12
 377 846 377 846 377 789 c 0,13,14
 377 706 377 706 414 661 c 128,-1,15
 451 616 451 616 540 616 c 0,16,17
 586 616 586 616 623 628 c 128,-1,18
 660 640 660 640 687 664 c 128,-1,19
 714 688 714 688 734 717 c 128,-1,20
 754 746 754 746 769.5 788 c 128,-1,21
 785 830 785 830 795 869 c 128,-1,22
 805 908 805 908 815 960 c 0,0,1
697 1424 m 0,23,24
 831 1424 831 1424 899.5 1352.5 c 128,-1,25
 968 1281 968 1281 968 1154 c 0,26,27
 968 1088 968 1088 943 961 c 0,28,29
 916 824 916 824 868.5 699 c 128,-1,30
 821 574 821 574 767 478 c 128,-1,31
 713 382 713 382 636.5 284.5 c 128,-1,32
 560 187 560 187 493.5 117.5 c 128,-1,33
 427 48 427 48 338 -36 c 1,34,-1
 259 46 l 1,35,36
 398 178 398 178 496.5 292.5 c 128,-1,37
 595 407 595 407 669 544 c 1,38,-1
 660 548 l 1,39,40
 584 496 584 496 496 496 c 0,41,42
 374 496 374 496 308.5 565.5 c 128,-1,43
 243 635 243 635 243 755 c 0,44,45
 243 816 243 816 271 960 c 0,46,47
 282 1018 282 1018 289 1049 c 128,-1,48
 296 1080 296 1080 313.5 1132 c 128,-1,49
 331 1184 331 1184 354 1224 c 0,50,51
 406 1316 406 1316 494.5 1370 c 128,-1,52
 583 1424 583 1424 697 1424 c 0,23,24
EndSplineSet
EndChar

StartChar: colon
Encoding: 58 58 29
Width: 1024
Flags: W
LayerCount: 2
Fore
SplineSet
291 240 m 1,0,-1
 547 240 l 1,1,-1
 500 0 l 1,2,-1
 244 0 l 1,3,-1
 291 240 l 1,0,-1
443 1024 m 1,4,-1
 699 1024 l 1,5,-1
 652 784 l 1,6,-1
 396 784 l 1,7,-1
 443 1024 l 1,4,-1
EndSplineSet
Substitution2: "<2,2> Cursive lookup 182 nested-substitutions 0 subtable" colon.2r
Substitution2: "<2,2> Cursive lookup 180 nested-substitutions 0 subtable" colon.2l
Substitution2: "<2,2> Cursive lookup 99 nested-substitutions 0 subtable" larsenwork7
EndChar

StartChar: semicolon
Encoding: 59 59 30
Width: 1024
Flags: W
LayerCount: 2
Fore
SplineSet
443 1024 m 1,0,-1
 699 1024 l 1,1,-1
 652 784 l 1,2,-1
 396 784 l 1,3,-1
 443 1024 l 1,0,-1
316 368 m 1,4,-1
 572 368 l 1,5,-1
 504 23 l 2,6,7
 495 -21 495 -21 489.5 -42.5 c 128,-1,8
 484 -64 484 -64 464.5 -104.5 c 128,-1,9
 445 -145 445 -145 414 -177 c 0,10,11
 326 -272 326 -272 191 -272 c 1,12,-1
 214 -152 l 1,13,14
 281 -152 281 -152 323 -107 c 0,15,16
 339 -90 339 -90 350 -66.5 c 128,-1,17
 361 -43 361 -43 365 -27 c 128,-1,18
 369 -11 369 -11 376 23 c 2,19,-1
 397 128 l 1,20,-1
 269 128 l 1,21,-1
 316 368 l 1,4,-1
EndSplineSet
EndChar

StartChar: less
Encoding: 60 60 31
Width: 1024
Flags: W
LayerCount: 2
Fore
SplineSet
360 571 m 1,0,-1
 778 95 l 1,1,-1
 675 5 l 1,2,-1
 219 531 l 1,3,-1
 237 621 l 1,4,-1
 897 1147 l 1,5,-1
 965 1057 l 1,6,-1
 362 581 l 1,7,-1
 360 571 l 1,0,-1
EndSplineSet
Substitution2: "<2,2> Cursive lookup 216 nested-substitutions 0 subtable" less2
Substitution2: "<2,2> Cursive lookup 214 nested-substitutions 0 subtable" less1
Substitution2: "<2,2> Cursive lookup 198 nested-substitutions 0 subtable" rangeless
Substitution2: "<2,2> Cursive lookup 119 nested-substitutions 0 subtable" equallessless
Substitution2: "<2,2> Cursive lookup 117 nested-substitutions 0 subtable" larsenwork8
Substitution2: "<2,2> Cursive lookup 105 nested-substitutions 0 subtable" larsenwork3
Substitution2: "<2,2> Cursive lookup 91 nested-substitutions 0 subtable" larsenwork6
Substitution2: "<2,2> Cursive lookup 77 nested-substitutions 0 subtable" larsenwork10
Substitution2: "<2,2> Cursive lookup 71 nested-substitutions 0 subtable" larsenwork9
Substitution2: "<2,2> Cursive lookup 53 nested-substitutions 0 subtable" larsenwork2
Substitution2: "<2,2> Cursive lookup 39 nested-substitutions 0 subtable" larsenwork1
Substitution2: "<2,2> Cursive lookup 37 nested-substitutions 0 subtable" larsenwork1
Substitution2: "<2,2> Cursive lookup 23 nested-substitutions 0 subtable" larsenwork3
Substitution2: "<2,2> Cursive lookup 14 nested-substitutions 0 subtable" larsenwork5
Substitution2: "'rtla' Right to Left Alternates lookup 0 subtable" greater
EndChar

StartChar: equal
Encoding: 61 61 32
Width: 1024
Flags: W
LayerCount: 2
Fore
SplineSet
190 380 m 1,0,-1
 830 380 l 1,1,-1
 807 260 l 1,2,-1
 167 260 l 1,3,-1
 190 380 l 1,0,-1
289 892 m 1,4,-1
 929 892 l 1,5,-1
 906 772 l 1,6,-1
 266 772 l 1,7,-1
 289 892 l 1,4,-1
EndSplineSet
Substitution2: "<2,2> Cursive lookup 232 nested-substitutions 0 subtable" equal.wide
Substitution2: "<2,2> Cursive lookup 125 nested-substitutions 0 subtable" larsenwork2
Substitution2: "<2,2> Cursive lookup 123 nested-substitutions 0 subtable" greaterequalliga
Substitution2: "<2,2> Cursive lookup 115 nested-substitutions 0 subtable" larsenwork8
Substitution2: "<2,2> Cursive lookup 113 nested-substitutions 0 subtable" greatergreaterequal
Substitution2: "<2,2> Cursive lookup 107 nested-substitutions 0 subtable" lessequalliga
Substitution2: "<2,2> Cursive lookup 103 nested-substitutions 0 subtable" equal.after
Substitution2: "<2,2> Cursive lookup 101 nested-substitutions 0 subtable" equalcolonequal
Substitution2: "<2,2> Cursive lookup 97 nested-substitutions 0 subtable" larsenwork7
Substitution2: "<2,2> Cursive lookup 95 nested-substitutions 0 subtable" leftarrowequallong
Substitution2: "<2,2> Cursive lookup 93 nested-substitutions 0 subtable" larsenwork6
Substitution2: "<2,2> Cursive lookup 87 nested-substitutions 0 subtable" larsenwork5
Substitution2: "<2,2> Cursive lookup 85 nested-substitutions 0 subtable" larsenwork5
Substitution2: "<2,2> Cursive lookup 81 nested-substitutions 0 subtable" larsenwork10
Substitution2: "<2,2> Cursive lookup 79 nested-substitutions 0 subtable" larsenwork10
Substitution2: "<2,2> Cursive lookup 73 nested-substitutions 0 subtable" larsenwork9
Substitution2: "<2,2> Cursive lookup 69 nested-substitutions 0 subtable" notequalliga
Substitution2: "<2,2> Cursive lookup 65 nested-substitutions 0 subtable" notequaltypeliga
Substitution2: "<2,2> Cursive lookup 63 nested-substitutions 0 subtable" larsenwork1
EndChar

StartChar: greater
Encoding: 62 62 33
Width: 1024
Flags: W
LayerCount: 2
Fore
SplineSet
734 571 m 1,0,-1
 736 581 l 1,1,-1
 317 1057 l 1,2,-1
 421 1147 l 1,3,-1
 877 621 l 1,4,-1
 859 531 l 1,5,-1
 199 5 l 1,6,-1
 130 95 l 1,7,-1
 734 571 l 1,0,-1
EndSplineSet
Substitution2: "<2,2> Cursive lookup 209 nested-substitutions 0 subtable" greater2
Substitution2: "<2,2> Cursive lookup 207 nested-substitutions 0 subtable" greater1
Substitution2: "<2,2> Cursive lookup 127 nested-substitutions 0 subtable" ligaequalarrow
Substitution2: "<2,2> Cursive lookup 121 nested-substitutions 0 subtable" larsenwork4
Substitution2: "<2,2> Cursive lookup 111 nested-substitutions 0 subtable" larsenwork8
Substitution2: "<2,2> Cursive lookup 109 nested-substitutions 0 subtable" larsenwork8
Substitution2: "<2,2> Cursive lookup 89 nested-substitutions 0 subtable" rightarrowequallong
Substitution2: "<2,2> Cursive lookup 83 nested-substitutions 0 subtable" lessequalequalgreater
Substitution2: "<2,2> Cursive lookup 75 nested-substitutions 0 subtable" lessequalgreater
Substitution2: "<2,2> Cursive lookup 59 nested-substitutions 0 subtable" arrowright.liga
Substitution2: "<2,2> Cursive lookup 51 nested-substitutions 0 subtable" ligaarrowrighttwoheads
Substitution2: "<2,2> Cursive lookup 49 nested-substitutions 0 subtable" larsenwork1
Substitution2: "<2,2> Cursive lookup 33 nested-substitutions 0 subtable" ligaarrowrightlong
Substitution2: "'rtla' Right to Left Alternates lookup 0 subtable" less
EndChar

StartChar: question
Encoding: 63 63 34
Width: 1024
Flags: W
LayerCount: 2
Fore
SplineSet
489 272 m 0,0,1
 544 272 544 272 576.5 241.5 c 128,-1,2
 609 211 609 211 609 160 c 0,3,4
 609 92 609 92 560 38 c 128,-1,5
 511 -16 511 -16 433 -16 c 0,6,7
 378 -16 378 -16 346 14.5 c 128,-1,8
 314 45 314 45 314 96 c 0,9,10
 314 164 314 164 362.5 218 c 128,-1,11
 411 272 411 272 489 272 c 0,0,1
472 512 m 1,12,13
 487 591 487 591 519.5 655.5 c 128,-1,14
 552 720 552 720 623 781 c 0,15,16
 670 821 670 821 697 846 c 128,-1,17
 724 871 724 871 759 910 c 128,-1,18
 794 949 794 949 812.5 981.5 c 128,-1,19
 831 1014 831 1014 844.5 1058.5 c 128,-1,20
 858 1103 858 1103 858 1150 c 0,21,22
 858 1304 858 1304 647 1304 c 0,23,24
 554 1304 554 1304 384 1267 c 1,25,-1
 408 1387 l 1,26,27
 575 1424 575 1424 671 1424 c 0,28,29
 826 1424 826 1424 907 1358 c 128,-1,30
 988 1292 988 1292 988 1172 c 0,31,32
 988 1111 988 1111 971.5 1053.5 c 128,-1,33
 955 996 955 996 931 951.5 c 128,-1,34
 907 907 907 907 866.5 859.5 c 128,-1,35
 826 812 826 812 790.5 778.5 c 128,-1,36
 755 745 755 745 703 701 c 0,37,38
 666 669 666 669 643 632.5 c 128,-1,39
 620 596 620 596 613.5 573.5 c 128,-1,40
 607 551 607 551 600 512 c 1,41,-1
 472 512 l 1,12,13
EndSplineSet
EndChar

StartChar: at
Encoding: 64 64 35
Width: 1024
Flags: W
LayerCount: 2
Fore
SplineSet
487 0 m 0,0,1
 361 0 361 0 296 17 c 0,2,3
 187 45 187 45 125 124.5 c 128,-1,4
 63 204 63 204 63 328 c 0,5,6
 63 384 63 384 84 495 c 2,7,-1
 165 913 l 2,8,9
 186 1028 186 1028 218 1101 c 0,10,11
 267 1215 267 1215 358 1289.5 c 128,-1,12
 449 1364 449 1364 563 1391 c 0,13,14
 634 1408 634 1408 761 1408 c 0,15,16
 860 1408 860 1408 912 1394 c 0,17,18
 1000 1371 1000 1371 1049 1306 c 128,-1,19
 1098 1241 1098 1241 1098 1145 c 0,20,21
 1098 1101 1098 1101 1081 1016 c 2,22,-1
 959 384 l 1,23,-1
 831 384 l 1,24,-1
 855 507 l 1,25,-1
 845 507 l 1,26,27
 730 368 730 368 602 368 c 0,28,29
 503 368 503 368 437 434.5 c 128,-1,30
 371 501 371 501 371 618 c 0,31,32
 371 700 371 700 408 781.5 c 128,-1,33
 445 863 445 863 510 917 c 0,34,35
 548 948 548 948 588 968 c 128,-1,36
 628 988 628 988 669 995.5 c 128,-1,37
 710 1003 710 1003 733 1004.5 c 128,-1,38
 756 1006 756 1006 790 1006 c 2,39,-1
 952 1006 l 1,40,41
 968 1092 968 1092 968 1126 c 0,42,43
 968 1247 968 1247 856 1278 c 0,44,45
 820 1288 820 1288 737 1288 c 0,46,47
 627 1288 627 1288 574 1275 c 0,48,49
 409 1234 409 1234 338 1075 c 0,50,51
 313 1019 313 1019 293 913 c 2,52,-1
 212 495 l 2,53,54
 193 396 193 396 193 352 c 0,55,56
 193 176 193 176 352 133 c 0,57,58
 401 120 401 120 510 120 c 0,59,60
 648 120 648 120 834 141 c 1,61,-1
 811 21 l 1,62,63
 628 0 628 0 487 0 c 0,0,1
912 805 m 2,64,-1
 930 896 l 1,65,-1
 766 896 l 2,66,67
 729 896 729 896 708 894 c 128,-1,68
 687 892 687 892 653.5 879.5 c 128,-1,69
 620 867 620 867 592 842 c 0,70,71
 553 807 553 807 527.5 752.5 c 128,-1,72
 502 698 502 698 502 642 c 0,73,74
 502 574 502 574 541 531 c 128,-1,75
 580 488 580 488 647 488 c 0,76,77
 851 488 851 488 912 805 c 2,64,-1
EndSplineSet
EndChar

StartChar: A
Encoding: 65 65 36
Width: 1024
Flags: W
LayerCount: 2
Fore
SplineSet
-37 0 m 1,0,1
 83 401 83 401 247 749.5 c 128,-1,2
 411 1098 411 1098 645 1408 c 1,3,-1
 775 1408 l 1,4,5
 929 984 929 984 929 433 c 0,6,7
 929 225 929 225 909 0 c 1,8,-1
 774 0 l 1,9,10
 794 181 794 181 794 388 c 1,11,-1
 228 388 l 1,12,13
 218 359 218 359 195.5 297 c 128,-1,14
 173 235 173 235 159.5 196.5 c 128,-1,15
 146 158 146 158 128.5 103 c 128,-1,16
 111 48 111 48 98 0 c 1,17,-1
 -37 0 l 1,0,1
797 508 m 1,18,19
 787 752 787 752 763.5 937.5 c 128,-1,20
 740 1123 740 1123 690 1279 c 1,21,-1
 680 1279 l 1,22,23
 569 1123 569 1123 474 938 c 128,-1,24
 379 753 379 753 273 508 c 1,25,-1
 797 508 l 1,18,19
EndSplineSet
EndChar

StartChar: B
Encoding: 66 66 37
Width: 1024
Flags: W
LayerCount: 2
Fore
SplineSet
478 768 m 2,0,1
 590 768 590 768 632 778 c 0,2,3
 730 801 730 801 800 886 c 128,-1,4
 870 971 870 971 870 1089 c 0,5,6
 870 1163 870 1163 832.5 1213 c 128,-1,7
 795 1263 795 1263 729 1278 c 0,8,9
 686 1288 686 1288 579 1288 c 2,10,-1
 430 1288 l 1,11,-1
 329 768 l 1,12,-1
 478 768 l 2,0,1
767 726 m 1,13,14
 858 700 858 700 910 629 c 128,-1,15
 962 558 962 558 962 459 c 0,16,17
 962 298 962 298 858 173 c 128,-1,18
 754 48 754 48 619 16 c 0,19,20
 552 0 552 0 403 0 c 2,21,-1
 52 0 l 1,22,-1
 326 1408 l 1,23,-1
 603 1408 l 2,24,25
 732 1408 732 1408 784 1395 c 0,26,27
 883 1371 883 1371 941.5 1296 c 128,-1,28
 1000 1221 1000 1221 1000 1111 c 0,29,30
 1000 981 1000 981 935 883 c 128,-1,31
 870 785 870 785 769 736 c 1,32,-1
 767 726 l 1,13,14
306 648 m 1,33,-1
 203 120 l 1,34,-1
 426 120 l 2,35,36
 563 120 563 120 610 132 c 0,37,38
 702 155 702 155 767.5 242.5 c 128,-1,39
 833 330 833 330 833 449 c 0,40,41
 833 522 833 522 800 571.5 c 128,-1,42
 767 621 767 621 708 636 c 0,43,44
 661 648 661 648 529 648 c 2,45,-1
 306 648 l 1,33,-1
EndSplineSet
EndChar

StartChar: C
Encoding: 67 67 38
Width: 1024
Flags: W
LayerCount: 2
Fore
SplineSet
203 432 m 0,0,1
 203 275 203 275 266.5 189.5 c 128,-1,2
 330 104 330 104 479 104 c 0,3,4
 627 104 627 104 847 141 c 1,5,-1
 824 21 l 1,6,7
 611 -16 611 -16 456 -16 c 0,8,9
 259 -16 259 -16 165.5 98 c 128,-1,10
 72 212 72 212 72 410 c 0,11,12
 72 519 72 519 109 704 c 0,13,14
 150 919 150 919 206 1044 c 0,15,16
 376 1424 376 1424 726 1424 c 0,17,18
 885 1424 885 1424 1061 1395 c 1,19,-1
 1038 1275 l 1,20,21
 857 1304 857 1304 702 1304 c 0,22,23
 567 1304 567 1304 477 1229.5 c 128,-1,24
 387 1155 387 1155 325 1016 c 0,25,26
 277 909 277 909 237 704 c 0,27,28
 203 526 203 526 203 432 c 0,0,1
EndSplineSet
EndChar

StartChar: D
Encoding: 68 68 39
Width: 1024
Flags: W
LayerCount: 2
Fore
SplineSet
583 1408 m 2,0,1
 796 1408 796 1408 900.5 1290.5 c 128,-1,2
 1005 1173 1005 1173 1005 976 c 0,3,4
 1005 864 1005 864 973 704 c 0,5,6
 943 553 943 553 902.5 440 c 128,-1,7
 862 327 862 327 792 237 c 0,8,9
 609 0 609 0 310 0 c 2,10,-1
 47 0 l 1,11,-1
 321 1408 l 1,12,-1
 583 1408 l 2,0,1
854 704 m 0,13,14
 885 864 885 864 885 962 c 0,15,16
 885 1111 885 1111 808 1199.5 c 128,-1,17
 731 1288 731 1288 560 1288 c 2,18,-1
 417 1288 l 1,19,-1
 190 120 l 1,20,-1
 333 120 l 2,21,22
 554 120 554 120 691 282 c 0,23,24
 749 350 749 350 787 452.5 c 128,-1,25
 825 555 825 555 854 704 c 0,13,14
EndSplineSet
EndChar

StartChar: E
Encoding: 69 69 40
Width: 1024
Flags: W
LayerCount: 2
Fore
SplineSet
326 1408 m 1,0,-1
 1094 1408 l 1,1,-1
 1070 1288 l 1,2,-1
 430 1288 l 1,3,-1
 329 768 l 1,4,-1
 841 768 l 1,5,-1
 818 648 l 1,6,-1
 306 648 l 1,7,-1
 203 120 l 1,8,-1
 843 120 l 1,9,-1
 820 0 l 1,10,-1
 52 0 l 1,11,-1
 326 1408 l 1,0,-1
EndSplineSet
EndChar

StartChar: F
Encoding: 70 70 41
Width: 1024
Flags: W
LayerCount: 2
Fore
SplineSet
326 1408 m 1,0,-1
 1094 1408 l 1,1,-1
 1070 1288 l 1,2,-1
 430 1288 l 1,3,-1
 328 760 l 1,4,-1
 840 760 l 1,5,-1
 816 640 l 1,6,-1
 304 640 l 1,7,-1
 180 0 l 1,8,-1
 52 0 l 1,9,-1
 326 1408 l 1,0,-1
EndSplineSet
EndChar

StartChar: G
Encoding: 71 71 42
Width: 1024
Flags: W
LayerCount: 2
Fore
SplineSet
436 -16 m 0,0,1
 252 -16 252 -16 162 99 c 128,-1,2
 72 214 72 214 72 410 c 0,3,4
 72 519 72 519 109 704 c 0,5,6
 150 919 150 919 206 1044 c 0,7,8
 284 1219 284 1219 422 1321.5 c 128,-1,9
 560 1424 560 1424 746 1424 c 0,10,11
 891 1424 891 1424 1043 1402 c 1,12,-1
 1019 1282 l 1,13,14
 860 1304 860 1304 722 1304 c 0,15,16
 456 1304 456 1304 325 1016 c 0,17,18
 277 909 277 909 237 704 c 0,19,20
 203 526 203 526 203 432 c 0,21,22
 203 104 203 104 459 104 c 0,23,24
 576 104 576 104 717 128 c 1,25,-1
 818 648 l 1,26,-1
 562 648 l 1,27,-1
 585 768 l 1,28,-1
 969 768 l 1,29,-1
 827 34 l 1,30,31
 609 -16 609 -16 436 -16 c 0,0,1
EndSplineSet
EndChar

StartChar: H
Encoding: 72 72 43
Width: 1024
Flags: W
LayerCount: 2
Fore
SplineSet
326 1408 m 1,0,-1
 454 1408 l 1,1,-1
 328 760 l 1,2,-1
 840 760 l 1,3,-1
 966 1408 l 1,4,-1
 1094 1408 l 1,5,-1
 820 0 l 1,6,-1
 692 0 l 1,7,-1
 816 640 l 1,8,-1
 304 640 l 1,9,-1
 180 0 l 1,10,-1
 52 0 l 1,11,-1
 326 1408 l 1,0,-1
EndSplineSet
EndChar

StartChar: I
Encoding: 73 73 44
Width: 1024
Flags: W
LayerCount: 2
Fore
SplineSet
1030 1408 m 1,0,-1
 1006 1288 l 1,1,-1
 750 1288 l 1,2,-1
 523 120 l 1,3,-1
 779 120 l 1,4,-1
 756 0 l 1,5,-1
 116 0 l 1,6,-1
 139 120 l 1,7,-1
 395 120 l 1,8,-1
 622 1288 l 1,9,-1
 366 1288 l 1,10,-1
 390 1408 l 1,11,-1
 1030 1408 l 1,0,-1
EndSplineSet
EndChar

StartChar: J
Encoding: 74 74 45
Width: 1024
Flags: W
LayerCount: 2
Fore
SplineSet
942 1288 m 1,0,-1
 430 1288 l 1,1,-1
 454 1408 l 1,2,-1
 1094 1408 l 1,3,-1
 912 474 l 2,4,5
 903 426 903 426 895.5 396 c 128,-1,6
 888 366 888 366 871 317 c 128,-1,7
 854 268 854 268 825.5 223.5 c 128,-1,8
 797 179 797 179 758 139 c 0,9,10
 691 71 691 71 598 29.5 c 128,-1,11
 505 -12 505 -12 400 -12 c 0,12,13
 289 -12 289 -12 196.5 31.5 c 128,-1,14
 104 75 104 75 37 143 c 1,15,-1
 129 239 l 1,16,17
 182 183 182 183 259 145.5 c 128,-1,18
 336 108 336 108 424 108 c 0,19,20
 569 108 569 108 669 210 c 0,21,22
 706 248 706 248 731 298.5 c 128,-1,23
 756 349 756 349 764.5 383 c 128,-1,24
 773 417 773 417 784 474 c 2,25,-1
 942 1288 l 1,0,-1
EndSplineSet
EndChar

StartChar: K
Encoding: 75 75 46
Width: 1024
Flags: W
LayerCount: 2
Fore
SplineSet
116 0 m 1,0,-1
 -12 0 l 1,1,-1
 262 1408 l 1,2,-1
 390 1408 l 1,3,-1
 256 719 l 1,4,-1
 964 1408 l 1,5,-1
 1103 1408 l 1,6,-1
 499 813 l 1,7,-1
 922 0 l 1,8,-1
 765 0 l 1,9,-1
 396 721 l 1,10,-1
 224 558 l 1,11,-1
 116 0 l 1,0,-1
EndSplineSet
EndChar

StartChar: L
Encoding: 76 76 47
Width: 1024
Flags: W
LayerCount: 2
Fore
SplineSet
116 0 m 1,0,-1
 390 1408 l 1,1,-1
 518 1408 l 1,2,-1
 267 120 l 1,3,-1
 907 120 l 1,4,-1
 884 0 l 1,5,-1
 116 0 l 1,0,-1
EndSplineSet
EndChar

StartChar: M
Encoding: 77 77 48
Width: 1024
Flags: W
LayerCount: 2
Fore
SplineSet
116 0 m 1,0,-1
 -12 0 l 1,1,-1
 262 1408 l 1,2,-1
 390 1408 l 1,3,-1
 583 780 l 1,4,-1
 594 780 l 1,5,-1
 1030 1408 l 1,6,-1
 1158 1408 l 1,7,-1
 884 0 l 1,8,-1
 756 0 l 1,9,-1
 980 1150 l 1,10,-1
 970 1150 l 1,11,-1
 615 640 l 1,12,-1
 505 640 l 1,13,-1
 350 1150 l 1,14,-1
 340 1150 l 1,15,-1
 116 0 l 1,0,-1
EndSplineSet
EndChar

StartChar: N
Encoding: 78 78 49
Width: 1024
Flags: W
LayerCount: 2
Fore
SplineSet
180 0 m 1,0,-1
 52 0 l 1,1,-1
 326 1408 l 1,2,-1
 453 1408 l 1,3,-1
 736 280 l 1,4,-1
 746 280 l 1,5,-1
 966 1408 l 1,6,-1
 1094 1408 l 1,7,-1
 820 0 l 1,8,-1
 692 0 l 1,9,-1
 409 1128 l 1,10,-1
 399 1128 l 1,11,-1
 180 0 l 1,0,-1
EndSplineSet
EndChar

StartChar: O
Encoding: 79 79 50
Width: 1024
Flags: W
LayerCount: 2
Fore
SplineSet
947 1003 m 0,0,1
 947 1066 947 1066 932.5 1118.5 c 128,-1,2
 918 1171 918 1171 888.5 1213.5 c 128,-1,3
 859 1256 859 1256 808 1280 c 128,-1,4
 757 1304 757 1304 689 1304 c 0,5,6
 563 1304 563 1304 470.5 1226 c 128,-1,7
 378 1148 378 1148 324 1026 c 0,8,9
 281 925 281 925 237 704 c 0,10,11
 199 510 199 510 199 405 c 0,12,13
 199 342 199 342 213 289.5 c 128,-1,14
 227 237 227 237 256.5 194.5 c 128,-1,15
 286 152 286 152 337 128 c 128,-1,16
 388 104 388 104 456 104 c 0,17,18
 582 104 582 104 674.5 182 c 128,-1,19
 767 260 767 260 821 382 c 0,20,21
 866 488 866 488 909 704 c 0,22,23
 947 898 947 898 947 1003 c 0,0,1
433 -16 m 0,24,25
 309 -16 309 -16 225 40.5 c 128,-1,26
 141 97 141 97 104.5 186.5 c 128,-1,27
 68 276 68 276 68 392 c 0,28,29
 68 495 68 495 109 704 c 0,30,31
 156 944 156 944 205 1053 c 0,32,33
 276 1215 276 1215 407.5 1319.5 c 128,-1,34
 539 1424 539 1424 713 1424 c 0,35,36
 837 1424 837 1424 921 1367.5 c 128,-1,37
 1005 1311 1005 1311 1041.5 1221.5 c 128,-1,38
 1078 1132 1078 1132 1078 1016 c 0,39,40
 1078 913 1078 913 1037 704 c 0,41,42
 990 464 990 464 941 355 c 0,43,44
 870 193 870 193 738.5 88.5 c 128,-1,45
 607 -16 607 -16 433 -16 c 0,24,25
EndSplineSet
EndChar

StartChar: P
Encoding: 80 80 51
Width: 1024
Flags: W
LayerCount: 2
Fore
SplineSet
430 1288 m 1,0,-1
 304 640 l 1,1,-1
 453 640 l 2,2,3
 510 640 510 640 545 642.5 c 128,-1,4
 580 645 580 645 637.5 662 c 128,-1,5
 695 679 695 679 740 713 c 0,6,7
 809 764 809 764 855.5 850 c 128,-1,8
 902 936 902 936 902 1037 c 0,9,10
 902 1150 902 1150 837 1215 c 0,11,12
 805 1249 805 1249 754.5 1266 c 128,-1,13
 704 1283 704 1283 670 1285.5 c 128,-1,14
 636 1288 636 1288 579 1288 c 2,15,-1
 430 1288 l 1,0,-1
326 1408 m 1,16,-1
 603 1408 l 2,17,18
 652 1408 652 1408 683 1406 c 128,-1,19
 714 1404 714 1404 765.5 1395.5 c 128,-1,20
 817 1387 817 1387 861 1363.5 c 128,-1,21
 905 1340 905 1340 940 1303 c 0,22,23
 1032 1204 1032 1204 1032 1057 c 0,24,25
 1032 923 1032 923 968 810 c 128,-1,26
 904 697 904 697 808 625 c 0,27,28
 759 588 759 588 706 564.5 c 128,-1,29
 653 541 653 541 598 532.5 c 128,-1,30
 543 524 543 524 511 522 c 128,-1,31
 479 520 479 520 430 520 c 2,32,-1
 281 520 l 1,33,-1
 180 0 l 1,34,-1
 52 0 l 1,35,-1
 326 1408 l 1,16,-1
EndSplineSet
EndChar

StartChar: Q
Encoding: 81 81 52
Width: 1024
Flags: W
LayerCount: 2
Fore
SplineSet
713 1424 m 0,0,1
 806 1424 806 1424 877.5 1392 c 128,-1,2
 949 1360 949 1360 992 1303.5 c 128,-1,3
 1035 1247 1035 1247 1056.5 1174.5 c 128,-1,4
 1078 1102 1078 1102 1078 1016 c 0,5,6
 1078 913 1078 913 1037 704 c 0,7,8
 991 469 991 469 941 355 c 0,9,10
 879 216 879 216 772 117 c 128,-1,11
 665 18 665 18 525 -8 c 1,12,13
 551 -152 551 -152 701 -152 c 0,14,15
 759 -152 759 -152 856 -143 c 1,16,-1
 833 -263 l 1,17,18
 732 -272 732 -272 671 -272 c 0,19,20
 543 -272 543 -272 473 -200 c 128,-1,21
 403 -128 403 -128 392 -14 c 1,22,23
 230 0 230 0 149 111.5 c 128,-1,24
 68 223 68 223 68 392 c 0,25,26
 68 495 68 495 109 704 c 0,27,28
 155 939 155 939 205 1053 c 0,29,30
 276 1215 276 1215 407.5 1319.5 c 128,-1,31
 539 1424 539 1424 713 1424 c 0,0,1
947 998 m 0,32,33
 947 1062 947 1062 933 1115.5 c 128,-1,34
 919 1169 919 1169 889.5 1212 c 128,-1,35
 860 1255 860 1255 809 1279.5 c 128,-1,36
 758 1304 758 1304 689 1304 c 0,37,38
 562 1304 562 1304 469 1226 c 128,-1,39
 376 1148 376 1148 324 1026 c 0,40,41
 281 925 281 925 237 704 c 0,42,43
 199 504 199 504 199 410 c 0,44,45
 199 293 199 293 247.5 211.5 c 128,-1,46
 296 130 296 130 397 109 c 1,47,48
 403 157 403 157 447 384 c 1,49,-1
 575 384 l 1,50,51
 533 173 533 173 526 111 c 1,52,53
 625 131 625 131 699.5 204.5 c 128,-1,54
 774 278 774 278 821 382 c 0,55,56
 841 427 841 427 858.5 486 c 128,-1,57
 876 545 876 545 885 586.5 c 128,-1,58
 894 628 894 628 909 704 c 0,59,60
 947 903 947 903 947 998 c 0,32,33
EndSplineSet
EndChar

StartChar: R
Encoding: 82 82 53
Width: 1024
Flags: W
LayerCount: 2
Fore
SplineSet
430 1288 m 1,0,-1
 304 640 l 1,1,-1
 453 640 l 2,2,3
 509 640 509 640 544.5 642.5 c 128,-1,4
 580 645 580 645 637.5 662.5 c 128,-1,5
 695 680 695 680 740 713 c 0,6,7
 809 764 809 764 855.5 850 c 128,-1,8
 902 936 902 936 902 1037 c 0,9,10
 902 1150 902 1150 837 1215 c 0,11,12
 805 1249 805 1249 754.5 1266 c 128,-1,13
 704 1283 704 1283 670 1285.5 c 128,-1,14
 636 1288 636 1288 579 1288 c 2,15,-1
 430 1288 l 1,0,-1
326 1408 m 1,16,-1
 603 1408 l 2,17,18
 652 1408 652 1408 683 1406 c 128,-1,19
 714 1404 714 1404 765.5 1395.5 c 128,-1,20
 817 1387 817 1387 861 1363.5 c 128,-1,21
 905 1340 905 1340 940 1303 c 0,22,23
 1032 1204 1032 1204 1032 1057 c 0,24,25
 1032 898 1032 898 941 765 c 128,-1,26
 850 632 850 632 720 572 c 1,27,-1
 861 0 l 1,28,-1
 725 0 l 1,29,-1
 591 531 l 1,30,31
 529 520 529 520 430 520 c 2,32,-1
 281 520 l 1,33,-1
 180 0 l 1,34,-1
 52 0 l 1,35,-1
 326 1408 l 1,16,-1
EndSplineSet
EndChar

StartChar: S
Encoding: 83 83 54
Width: 1024
Flags: W
LayerCount: 2
Fore
SplineSet
477 -16 m 0,0,1
 314 -16 314 -16 113 16 c 1,2,-1
 137 139 l 1,3,4
 353 104 353 104 500 104 c 0,5,6
 664 104 664 104 765.5 204.5 c 128,-1,7
 867 305 867 305 867 443 c 0,8,9
 867 511 867 511 835.5 560.5 c 128,-1,10
 804 610 804 610 751 632 c 0,11,12
 708 651 708 651 592.5 666.5 c 128,-1,13
 477 682 477 682 411 721 c 0,14,15
 350 757 350 757 315.5 821 c 128,-1,16
 281 885 281 885 281 967 c 0,17,18
 281 1048 281 1048 314 1128.5 c 128,-1,19
 347 1209 347 1209 405.5 1275 c 128,-1,20
 464 1341 464 1341 556.5 1382.5 c 128,-1,21
 649 1424 649 1424 757 1424 c 0,22,23
 891 1424 891 1424 1122 1399 c 1,24,-1
 1098 1278 l 1,25,26
 860 1304 860 1304 733 1304 c 0,27,28
 658 1304 658 1304 595 1276 c 128,-1,29
 532 1248 532 1248 493 1202.5 c 128,-1,30
 454 1157 454 1157 432.5 1101.5 c 128,-1,31
 411 1046 411 1046 411 989 c 0,32,33
 411 876 411 876 497 825 c 0,34,35
 544 798 544 798 657 780.5 c 128,-1,36
 770 763 770 763 820 742 c 0,37,38
 900 708 900 708 948.5 636 c 128,-1,39
 997 564 997 564 997 465 c 0,40,41
 997 373 997 373 958.5 286 c 128,-1,42
 920 199 920 199 853 132 c 128,-1,43
 786 65 786 65 687.5 24.5 c 128,-1,44
 589 -16 589 -16 477 -16 c 0,0,1
EndSplineSet
EndChar

StartChar: T
Encoding: 84 84 55
Width: 1024
Flags: W
LayerCount: 2
Fore
SplineSet
1158 1408 m 1,0,-1
 1134 1288 l 1,1,-1
 750 1288 l 1,2,-1
 500 0 l 1,3,-1
 372 0 l 1,4,-1
 622 1288 l 1,5,-1
 238 1288 l 1,6,-1
 262 1408 l 1,7,-1
 1158 1408 l 1,0,-1
EndSplineSet
EndChar

StartChar: U
Encoding: 85 85 56
Width: 1024
Flags: W
LayerCount: 2
Fore
SplineSet
433 -16 m 0,0,1
 286 -16 286 -16 203.5 65.5 c 128,-1,2
 121 147 121 147 121 280 c 0,3,4
 121 349 121 349 146 482 c 2,5,-1
 326 1408 l 1,6,-1
 454 1408 l 1,7,-1
 274 482 l 2,8,9
 250 352 250 352 250 305 c 0,10,11
 250 212 250 212 302.5 158 c 128,-1,12
 355 104 355 104 456 104 c 0,13,14
 556 104 556 104 629 156.5 c 128,-1,15
 702 209 702 209 738 300 c 0,16,17
 761 359 761 359 786 482 c 2,18,-1
 966 1408 l 1,19,-1
 1094 1408 l 1,20,-1
 914 482 l 2,21,22
 888 352 888 352 857 273 c 0,23,24
 805 144 805 144 691.5 64 c 128,-1,25
 578 -16 578 -16 433 -16 c 0,0,1
EndSplineSet
EndChar

StartChar: V
Encoding: 86 86 57
Width: 1024
Flags: W
LayerCount: 2
Fore
SplineSet
472 157 m 1,0,1
 641 431 641 431 779 737 c 128,-1,2
 917 1043 917 1043 1051 1408 c 1,3,-1
 1181 1408 l 1,4,5
 1031 1001 1031 1001 867 655.5 c 128,-1,6
 703 310 703 310 494 0 c 1,7,-1
 378 0 l 1,8,9
 237 489 237 489 237 1213 c 0,10,11
 237 1278 237 1278 239 1408 c 1,12,-1
 369 1408 l 1,13,14
 366 1294 366 1294 366 1181 c 0,15,16
 366 577 366 577 462 157 c 1,17,-1
 472 157 l 1,0,1
EndSplineSet
EndChar

StartChar: W
Encoding: 87 87 58
Width: 1024
Flags: W
LayerCount: 2
Fore
SplineSet
548 896 m 1,0,-1
 672 896 l 1,1,-1
 713 210 l 1,2,-1
 723 210 l 1,3,4
 898 681 898 681 1039 1408 c 1,5,-1
 1167 1408 l 1,6,7
 1030 702 1030 702 754 0 c 1,8,-1
 630 0 l 1,9,-1
 584 736 l 1,10,-1
 574 736 l 1,11,-1
 242 0 l 1,12,-1
 118 0 l 1,13,14
 118 712 118 712 253 1408 c 1,15,-1
 381 1408 l 1,16,17
 241 689 241 689 231 210 c 1,18,-1
 241 210 l 1,19,-1
 548 896 l 1,0,-1
EndSplineSet
EndChar

StartChar: X
Encoding: 88 88 59
Width: 1024
Flags: W
LayerCount: 2
Fore
SplineSet
591 824 m 1,0,-1
 601 824 l 1,1,-1
 1018 1408 l 1,2,-1
 1165 1408 l 1,3,-1
 660 721 l 1,4,-1
 658 711 l 1,5,-1
 923 0 l 1,6,-1
 775 0 l 1,7,-1
 559 608 l 1,8,-1
 549 608 l 1,9,-1
 97 0 l 1,10,-1
 -51 0 l 1,11,-1
 490 711 l 1,12,-1
 492 721 l 1,13,-1
 255 1408 l 1,14,-1
 402 1408 l 1,15,-1
 591 824 l 1,0,-1
EndSplineSet
EndChar

StartChar: Y
Encoding: 89 89 60
Width: 1024
Flags: W
LayerCount: 2
Fore
SplineSet
590 741 m 1,0,1
 836 1002 836 1002 1050 1408 c 1,2,-1
 1186 1408 l 1,3,4
 1060 1170 1060 1170 926.5 976.5 c 128,-1,5
 793 783 793 783 620 616 c 1,6,-1
 500 0 l 1,7,-1
 372 0 l 1,8,-1
 492 616 l 1,9,10
 353 909 353 909 234 1408 c 1,11,-1
 370 1408 l 1,12,13
 463 1001 463 1001 570 741 c 1,14,-1
 590 741 l 1,0,1
EndSplineSet
EndChar

StartChar: Z
Encoding: 90 90 61
Width: 1024
Flags: W
LayerCount: 2
Fore
SplineSet
258 1288 m 1,0,-1
 282 1408 l 1,1,-1
 1138 1408 l 1,2,-1
 1120 1318 l 1,3,-1
 178 130 l 1,4,-1
 176 120 l 1,5,-1
 907 120 l 1,6,-1
 884 0 l 1,7,-1
 -12 0 l 1,8,-1
 6 92 l 1,9,-1
 947 1278 l 1,10,-1
 949 1288 l 1,11,-1
 258 1288 l 1,0,-1
EndSplineSet
EndChar

StartChar: bracketleft
Encoding: 91 91 62
Width: 1024
Flags: W
LayerCount: 2
Fore
SplineSet
543 1536 m 1,0,-1
 1055 1536 l 1,1,-1
 1031 1416 l 1,2,-1
 647 1416 l 1,3,-1
 370 -8 l 1,4,-1
 754 -8 l 1,5,-1
 731 -128 l 1,6,-1
 219 -128 l 1,7,-1
 543 1536 l 1,0,-1
EndSplineSet
Substitution2: "'rtla' Right to Left Alternates lookup 0 subtable" bracketright
EndChar

StartChar: backslash
Encoding: 92 92 63
Width: 1024
Flags: W
LayerCount: 2
Fore
SplineSet
744 -155 m 1,0,-1
 279 1510 l 1,1,-1
 402 1563 l 1,2,-1
 868 -102 l 1,3,-1
 744 -155 l 1,0,-1
EndSplineSet
Substitution2: "<2,2> Cursive lookup 1 nested-substitutions 0 subtable" backslash.shrug
EndChar

StartChar: bracketright
Encoding: 93 93 64
Width: 1024
Flags: W
LayerCount: 2
Fore
SplineSet
927 1536 m 1,0,-1
 603 -128 l 1,1,-1
 91 -128 l 1,2,-1
 114 -8 l 1,3,-1
 498 -8 l 1,4,-1
 775 1416 l 1,5,-1
 391 1416 l 1,6,-1
 415 1536 l 1,7,-1
 927 1536 l 1,0,-1
EndSplineSet
Substitution2: "'rtla' Right to Left Alternates lookup 0 subtable" bracketleft
EndChar

StartChar: asciicircum
Encoding: 94 94 65
Width: 1024
Flags: W
LayerCount: 2
Fore
SplineSet
235 896 m 1,0,1
 378 1203 378 1203 630 1408 c 1,2,-1
 790 1408 l 1,3,4
 961 1203 961 1203 985 896 c 1,5,-1
 850 896 l 1,6,7
 825 1141 825 1141 714 1299 c 1,8,-1
 664 1299 l 1,9,10
 489 1139 489 1139 370 896 c 1,11,-1
 235 896 l 1,0,1
EndSplineSet
EndChar

StartChar: underscore
Encoding: 95 95 66
Width: 1024
Flags: W
LayerCount: 2
Fore
SplineSet
12 0 m 1,0,-1
 908 0 l 1,1,-1
 885 -120 l 1,2,-1
 -11 -120 l 1,3,-1
 12 0 l 1,0,-1
EndSplineSet
Substitution2: "<2,2> Cursive lookup 143 nested-substitutions 0 subtable" underscore.2r
Substitution2: "<2,2> Cursive lookup 141 nested-substitutions 0 subtable" underscore.2l
Substitution2: "<2,2> Cursive lookup 139 nested-substitutions 0 subtable" underscore.more
Substitution2: "<2,2> Cursive lookup 137 nested-substitutions 0 subtable" underscore.more
Substitution2: "<2,2> Cursive lookup 135 nested-substitutions 0 subtable" underscore.more
EndChar

StartChar: grave
Encoding: 96 96 67
Width: 1024
Flags: W
LayerCount: 2
Fore
SplineSet
722 1024 m 1,0,-1
 584 1024 l 1,1,-1
 493 1408 l 1,2,-1
 631 1408 l 1,3,-1
 722 1024 l 1,0,-1
EndSplineSet
EndChar

StartChar: a
Encoding: 97 97 68
Width: 1024
Flags: W
LayerCount: 2
Fore
SplineSet
728 512 m 1,0,-1
 532 512 l 2,1,2
 495 512 495 512 474 510 c 128,-1,3
 453 508 453 508 419 495.5 c 128,-1,4
 385 483 385 483 357 458 c 0,5,6
 317 422 317 422 291.5 367 c 128,-1,7
 266 312 266 312 266 254 c 0,8,9
 266 187 266 187 304 145.5 c 128,-1,10
 342 104 342 104 412 104 c 0,11,12
 460 104 460 104 500.5 118 c 128,-1,13
 541 132 541 132 569.5 153.5 c 128,-1,14
 598 175 598 175 622 208.5 c 128,-1,15
 646 242 646 242 660.5 271.5 c 128,-1,16
 675 301 675 301 688 342 c 128,-1,17
 701 383 701 383 707 409 c 128,-1,18
 713 435 713 435 720 471 c 2,19,-1
 728 512 l 1,0,-1
670 1040 m 0,20,21
 796 1040 796 1040 854 987 c 0,22,23
 914 931 914 931 914 848 c 0,24,25
 914 818 914 818 902 749 c 2,26,-1
 756 0 l 1,27,-1
 628 0 l 1,28,-1
 652 123 l 1,29,-1
 642 123 l 1,30,31
 514 -16 514 -16 365 -16 c 0,32,33
 263 -16 263 -16 199 51.5 c 128,-1,34
 135 119 135 119 135 228 c 0,35,36
 135 310 135 310 172.5 393.5 c 128,-1,37
 210 477 210 477 276 533 c 0,38,39
 314 564 314 564 354 584 c 128,-1,40
 394 604 394 604 434.5 611.5 c 128,-1,41
 475 619 475 619 498 620.5 c 128,-1,42
 521 622 521 622 555 622 c 2,43,-1
 749 622 l 1,44,-1
 773 744 l 2,45,46
 784 806 784 806 784 825 c 0,47,48
 784 873 784 873 752.5 896.5 c 128,-1,49
 721 920 721 920 647 920 c 0,50,51
 527 920 527 920 355 899 c 1,52,-1
 378 1021 l 1,53,54
 547 1040 547 1040 670 1040 c 0,20,21
EndSplineSet
EndChar

StartChar: b
Encoding: 98 98 69
Width: 1024
Flags: W
LayerCount: 2
Fore
SplineSet
674 1040 m 0,0,1
 786 1040 786 1040 852.5 961.5 c 128,-1,2
 919 883 919 883 919 747 c 0,3,4
 919 674 919 674 888 512 c 0,5,6
 874 442 874 442 865.5 404 c 128,-1,7
 857 366 857 366 840.5 314.5 c 128,-1,8
 824 263 824 263 803 221 c 0,9,10
 746 109 746 109 657 46.5 c 128,-1,11
 568 -16 568 -16 469 -16 c 0,12,13
 341 -16 341 -16 278 125 c 1,14,-1
 268 125 l 1,15,-1
 244 0 l 1,16,-1
 116 0 l 1,17,-1
 390 1408 l 1,18,-1
 518 1408 l 1,19,-1
 419 899 l 1,20,-1
 429 899 l 1,21,22
 547 1040 547 1040 674 1040 c 0,0,1
631 920 m 0,23,24
 564 920 564 920 508.5 876.5 c 128,-1,25
 453 833 453 833 419 768 c 0,26,27
 379 693 379 693 344 512 c 0,28,29
 317 373 317 373 317 307 c 0,30,31
 317 219 317 219 355.5 161.5 c 128,-1,32
 394 104 394 104 472 104 c 0,33,34
 539 104 539 104 594.5 147.5 c 128,-1,35
 650 191 650 191 684 256 c 0,36,37
 725 334 725 334 760 512 c 0,38,39
 786 646 786 646 786 717 c 0,40,41
 786 805 786 805 748 862.5 c 128,-1,42
 710 920 710 920 631 920 c 0,23,24
EndSplineSet
EndChar

StartChar: c
Encoding: 99 99 70
Width: 1024
Flags: W
LayerCount: 2
Fore
SplineSet
184 512 m 0,0,1
 199 588 199 588 209.5 631 c 128,-1,2
 220 674 220 674 240.5 730.5 c 128,-1,3
 261 787 261 787 289 831 c 0,4,5
 420 1040 420 1040 668 1040 c 0,6,7
 769 1040 769 1040 935 1023 c 1,8,-1
 912 903 l 1,9,10
 744 920 744 920 645 920 c 0,11,12
 559 920 559 920 501.5 887.5 c 128,-1,13
 444 855 444 855 400 789 c 0,14,15
 377 755 377 755 359 703 c 128,-1,16
 341 651 341 651 333.5 617 c 128,-1,17
 326 583 326 583 312 512 c 0,18,19
 284 370 284 370 284 308 c 0,20,21
 284 104 284 104 486 104 c 0,22,23
 602 104 602 104 781 130 c 1,24,-1
 758 10 l 1,25,26
 581 -16 581 -16 463 -16 c 0,27,28
 310 -16 310 -16 232 65.5 c 128,-1,29
 154 147 154 147 154 287 c 0,30,31
 154 358 154 358 184 512 c 0,0,1
EndSplineSet
EndChar

StartChar: d
Encoding: 100 100 71
Width: 1024
Flags: W
LayerCount: 2
Fore
SplineSet
602 1040 m 0,0,1
 669 1040 669 1040 720.5 1005.5 c 128,-1,2
 772 971 772 971 793 899 c 1,3,-1
 803 899 l 1,4,-1
 902 1408 l 1,5,-1
 1030 1408 l 1,6,-1
 756 0 l 1,7,-1
 628 0 l 1,8,-1
 652 125 l 1,9,-1
 642 125 l 1,10,11
 593 53 593 53 528.5 18.5 c 128,-1,12
 464 -16 464 -16 397 -16 c 0,13,14
 285 -16 285 -16 218.5 63 c 128,-1,15
 152 142 152 142 152 277 c 0,16,17
 152 344 152 344 184 512 c 0,18,19
 199 586 199 586 206.5 621 c 128,-1,20
 214 656 214 656 230.5 708.5 c 128,-1,21
 247 761 247 761 268 803 c 0,22,23
 325 915 325 915 414 977.5 c 128,-1,24
 503 1040 503 1040 602 1040 c 0,0,1
599 920 m 0,25,26
 532 920 532 920 476.5 876.5 c 128,-1,27
 421 833 421 833 387 768 c 0,28,29
 347 693 347 693 312 512 c 0,30,31
 285 373 285 373 285 307 c 0,32,33
 285 218 285 218 322.5 161 c 128,-1,34
 360 104 360 104 440 104 c 0,35,36
 507 104 507 104 562.5 147.5 c 128,-1,37
 618 191 618 191 652 256 c 0,38,39
 693 334 693 334 728 512 c 0,40,41
 754 646 754 646 754 717 c 0,42,43
 754 806 754 806 716.5 863 c 128,-1,44
 679 920 679 920 599 920 c 0,25,26
EndSplineSet
EndChar

StartChar: e
Encoding: 101 101 72
Width: 1024
Flags: W
LayerCount: 2
Fore
SplineSet
792 745 m 0,0,1
 792 830 792 830 747.5 875 c 128,-1,2
 703 920 703 920 615 920 c 0,3,4
 543 920 543 920 486 888 c 128,-1,5
 429 856 429 856 396 799 c 0,6,7
 366 752 366 752 337 632 c 1,8,-1
 781 632 l 1,9,10
 792 705 792 705 792 745 c 0,0,1
283 301 m 0,11,12
 283 104 283 104 476 104 c 0,13,14
 593 104 593 104 780 125 c 1,15,-1
 757 5 l 1,16,17
 572 -16 572 -16 453 -16 c 0,18,19
 307 -16 307 -16 230 63.5 c 128,-1,20
 153 143 153 143 153 280 c 0,21,22
 153 347 153 347 184 512 c 0,23,24
 199 591 199 591 209 635.5 c 128,-1,25
 219 680 219 680 239 738 c 128,-1,26
 259 796 259 796 284 839 c 0,27,28
 335 928 335 928 428 984 c 128,-1,29
 521 1040 521 1040 638 1040 c 0,30,31
 770 1040 770 1040 845.5 967 c 128,-1,32
 921 894 921 894 921 761 c 0,33,34
 921 681 921 681 888 512 c 1,35,-1
 312 512 l 1,36,37
 283 359 283 359 283 301 c 0,11,12
EndSplineSet
EndChar

StartChar: f
Encoding: 102 102 73
Width: 1024
Flags: WO
LayerCount: 2
Fore
SplineSet
376.828125 24.814453125 m 1,0,-1
 360.073242188 -48.6416015625 l 1,1,2
 358 -56 358 -56 356.5 -62.5 c 0,3,4
 352 -82 352 -82 329.5 -127.5 c 0,5,6
 309 -169 309 -169 279 -201 c 0,7,8
 237 -246 237 -246 198.5 -271 c 128,-1,9
 160 -296 160 -296 146 -296 c 128,-1,10
 132 -296 132 -296 -7 -280 c 1,11,-1
 17 -160 l 1,12,13
 84 -176 84 -176 110 -176 c 0,14,15
 145 -176 145 -176 188 -131 c 0,16,-1
 223.903320312 -60.3740234375 l 1,17,-1
 239.724609375 0.458984375 l 1,18,-1
 395 776 l 1,19,-1
 139 776 l 1,20,-1
 162 896 l 1,21,-1
 418 896 l 1,22,-1
 463 1129 l 2,23,24
 471 1170 471 1170 476.5 1190.5 c 0,25,26
 483 1214 483 1214 503.5 1255.5 c 128,-1,27
 524 1297 524 1297 554 1329 c 0,28,29
 596 1374 596 1374 659.5 1399 c 128,-1,30
 723 1424 723 1424 797 1424 c 0,31,32
 891 1424 891 1424 1030 1408 c 1,33,-1
 1006 1288 l 1,34,35
 867 1304 867 1304 773 1304 c 0,36,37
 688 1304 688 1304 645 1259 c 0,38,39
 608.708894879 1220.69272237 608.708894879 1220.69272237 591 1129 c 2,40,-1
 546 896 l 1,41,-1
 930 896 l 1,42,-1
 907 776 l 1,43,-1
 523 776 l 1,44,-1
 376.828553 24.8142856141 l 1025,45,-1
389 87 m 1025,46,-1
EndSplineSet
EndChar

StartChar: g
Encoding: 103 103 74
Width: 1024
Flags: W
LayerCount: 2
Fore
SplineSet
757 725 m 0,0,1
 757 814 757 814 718 867 c 128,-1,2
 679 920 679 920 599 920 c 0,3,4
 462 920 462 920 385 770 c 0,5,6
 353 707 353 707 330 609.5 c 128,-1,7
 307 512 307 512 307 427 c 0,8,9
 307 338 307 338 346 285 c 128,-1,10
 385 232 385 232 465 232 c 0,11,12
 547 232 547 232 605 285.5 c 128,-1,13
 663 339 663 339 696 420 c 0,14,15
 720 479 720 479 738.5 568.5 c 128,-1,16
 757 658 757 658 757 725 c 0,0,1
422 112 m 0,17,18
 302 112 302 112 239 190.5 c 128,-1,19
 176 269 176 269 176 398 c 0,20,21
 176 510 176 510 206.5 631.5 c 128,-1,22
 237 753 237 753 281 831 c 0,23,24
 331 920 331 920 414 980 c 128,-1,25
 497 1040 497 1040 602 1040 c 0,26,27
 728 1040 728 1040 793 899 c 1,28,-1
 803 899 l 1,29,-1
 827 1024 l 1,30,-1
 955 1024 l 1,31,-1
 788 160 l 2,32,33
 778 112 778 112 770.5 82 c 128,-1,34
 763 52 763 52 737 -7 c 128,-1,35
 711 -66 711 -66 674 -113 c 0,36,37
 548 -272 548 -272 344 -272 c 0,38,39
 227 -272 227 -272 111 -257 c 1,40,-1
 134 -137 l 1,41,42
 267 -152 267 -152 368 -152 c 0,43,44
 495 -152 495 -152 575 -54 c 0,45,46
 601 -22 601 -22 621 26.5 c 128,-1,47
 641 75 641 75 645.5 95 c 128,-1,48
 650 115 650 115 660 160 c 2,49,-1
 677 253 l 1,50,-1
 667 253 l 1,51,52
 548 112 548 112 422 112 c 0,17,18
EndSplineSet
EndChar

StartChar: h
Encoding: 104 104 75
Width: 1024
Flags: W
LayerCount: 2
Fore
SplineSet
772 776 m 0,0,1
 772 844 772 844 729.5 882 c 128,-1,2
 687 920 687 920 615 920 c 0,3,4
 521 920 521 920 456 858 c 0,5,6
 430 833 430 833 413 799 c 128,-1,7
 396 765 396 765 389.5 738.5 c 128,-1,8
 383 712 383 712 372 657 c 2,9,-1
 244 0 l 1,10,-1
 116 0 l 1,11,-1
 390 1408 l 1,12,-1
 518 1408 l 1,13,-1
 421 912 l 1,14,-1
 431 912 l 1,15,16
 480 970 480 970 541 1005 c 128,-1,17
 602 1040 602 1040 658 1040 c 0,18,19
 769 1040 769 1040 835.5 974.5 c 128,-1,20
 902 909 902 909 902 801 c 0,21,22
 902 753 902 753 884 657 c 2,23,-1
 756 0 l 1,24,-1
 628 0 l 1,25,-1
 756 657 l 2,26,27
 772 739 772 739 772 776 c 0,0,1
EndSplineSet
EndChar

StartChar: i
Encoding: 105 105 76
Width: 1024
Flags: W
LayerCount: 2
Fore
SplineSet
608 1287 m 0,0,1
 608 1347 608 1347 649 1385.5 c 128,-1,2
 690 1424 690 1424 745 1424 c 0,3,4
 787 1424 787 1424 812.5 1400 c 128,-1,5
 838 1376 838 1376 838 1337 c 0,6,7
 838 1277 838 1277 797 1238.5 c 128,-1,8
 756 1200 756 1200 701 1200 c 0,9,10
 659 1200 659 1200 633.5 1224 c 128,-1,11
 608 1248 608 1248 608 1287 c 0,0,1
436 0 m 1,12,-1
 612 904 l 1,13,-1
 356 904 l 1,14,-1
 379 1024 l 1,15,-1
 763 1024 l 1,16,-1
 564 0 l 1,17,-1
 436 0 l 1,12,-1
EndSplineSet
EndChar

StartChar: j
Encoding: 106 106 77
Width: 1024
Flags: W
LayerCount: 2
Fore
SplineSet
531 160 m 2,0,-1
 676 904 l 1,1,-1
 420 904 l 1,2,-1
 443 1024 l 1,3,-1
 827 1024 l 1,4,-1
 659 160 l 2,5,6
 649 112 649 112 641.5 82 c 128,-1,7
 634 52 634 52 608 -7 c 128,-1,8
 582 -66 582 -66 545 -113 c 0,9,10
 419 -272 419 -272 215 -272 c 0,11,12
 98 -272 98 -272 -18 -257 c 1,13,-1
 5 -137 l 1,14,15
 138 -152 138 -152 238 -152 c 0,16,17
 366 -152 366 -152 446 -54 c 0,18,19
 503 16 503 16 531 160 c 2,0,-1
672 1287 m 0,20,21
 672 1347 672 1347 713 1385.5 c 128,-1,22
 754 1424 754 1424 809 1424 c 0,23,24
 851 1424 851 1424 876.5 1400 c 128,-1,25
 902 1376 902 1376 902 1337 c 0,26,27
 902 1277 902 1277 861 1238.5 c 128,-1,28
 820 1200 820 1200 765 1200 c 0,29,30
 723 1200 723 1200 697.5 1224 c 128,-1,31
 672 1248 672 1248 672 1287 c 0,20,21
EndSplineSet
EndChar

StartChar: k
Encoding: 107 107 78
Width: 1024
Flags: W
LayerCount: 2
Fore
SplineSet
244 0 m 1,0,-1
 116 0 l 1,1,-1
 390 1408 l 1,2,-1
 518 1408 l 1,3,-1
 361 602 l 1,4,-1
 853 1024 l 1,5,-1
 1014 1024 l 1,6,-1
 577 645 l 1,7,-1
 862 0 l 1,8,-1
 706 0 l 1,9,-1
 478 560 l 1,10,-1
 329 435 l 1,11,-1
 244 0 l 1,0,-1
EndSplineSet
EndChar

StartChar: l
Encoding: 108 108 79
Width: 1024
Flags: W
LayerCount: 2
Fore
SplineSet
544 203 m 0,0,1
 544 104 544 104 648 104 c 0,2,3
 715 104 715 104 777 109 c 1,4,-1
 754 -11 l 1,5,6
 659 -16 659 -16 615 -16 c 0,7,8
 518 -16 518 -16 466 39 c 128,-1,9
 414 94 414 94 414 181 c 0,10,11
 414 212 414 212 426 279 c 2,12,-1
 646 1408 l 1,13,-1
 774 1408 l 1,14,-1
 554 279 l 2,15,16
 544 227 544 227 544 203 c 0,0,1
EndSplineSet
EndChar

StartChar: m
Encoding: 109 109 80
Width: 1024
Flags: W
LayerCount: 2
Fore
SplineSet
527 825 m 0,0,1
 527 870 527 870 499 895 c 128,-1,2
 471 920 471 920 423 920 c 0,3,4
 361 920 361 920 317 879 c 0,5,6
 300 863 300 863 288 838 c 128,-1,7
 276 813 276 813 271 793 c 128,-1,8
 266 773 266 773 258 730 c 2,9,-1
 116 0 l 1,10,-1
 -12 0 l 1,11,-1
 187 1024 l 1,12,-1
 315 1024 l 1,13,-1
 300 949 l 1,14,-1
 310 949 l 1,15,16
 389 1040 389 1040 476 1040 c 0,17,18
 536 1040 536 1040 578 1009.5 c 128,-1,19
 620 979 620 979 638 929 c 1,20,21
 744 1040 744 1040 860 1040 c 0,22,23
 943 1040 943 1040 992.5 987.5 c 128,-1,24
 1042 935 1042 935 1042 852 c 0,25,26
 1042 808 1042 808 1026 730 c 2,27,-1
 884 0 l 1,28,-1
 756 0 l 1,29,-1
 898 730 l 2,30,31
 911 799 911 799 911 825 c 0,32,33
 911 870 911 870 883 895 c 128,-1,34
 855 920 855 920 807 920 c 0,35,36
 745 920 745 920 701 879 c 0,37,38
 684 863 684 863 672 838 c 128,-1,39
 660 813 660 813 655 793 c 128,-1,40
 650 773 650 773 642 730 c 2,41,-1
 500 0 l 1,42,-1
 372 0 l 1,43,-1
 514 730 l 2,44,45
 527 799 527 799 527 825 c 0,0,1
EndSplineSet
Substitution2: "<2,2> Cursive in Latin lookup 150 nested-substitutions 0 subtable" mm
Substitution2: "<2,2> Cursive in Latin lookup 148 nested-substitutions 0 subtable" larsenwork
EndChar

StartChar: n
Encoding: 110 110 81
Width: 1024
Flags: W
LayerCount: 2
Fore
SplineSet
772 776 m 0,0,1
 772 844 772 844 729.5 882 c 128,-1,2
 687 920 687 920 615 920 c 0,3,4
 521 920 521 920 456 858 c 0,5,6
 430 833 430 833 413 799 c 128,-1,7
 396 765 396 765 389.5 738.5 c 128,-1,8
 383 712 383 712 372 657 c 2,9,-1
 244 0 l 1,10,-1
 116 0 l 1,11,-1
 315 1024 l 1,12,-1
 443 1024 l 1,13,-1
 421 912 l 1,14,-1
 431 912 l 1,15,16
 480 970 480 970 541 1005 c 128,-1,17
 602 1040 602 1040 658 1040 c 0,18,19
 769 1040 769 1040 835.5 974.5 c 128,-1,20
 902 909 902 909 902 801 c 0,21,22
 902 753 902 753 884 657 c 2,23,-1
 756 0 l 1,24,-1
 628 0 l 1,25,-1
 756 657 l 2,26,27
 772 739 772 739 772 776 c 0,0,1
EndSplineSet
EndChar

StartChar: o
Encoding: 111 111 82
Width: 1024
Flags: W
LayerCount: 2
Fore
SplineSet
433 -16 m 0,0,1
 303 -16 303 -16 228.5 62.5 c 128,-1,2
 154 141 154 141 154 278 c 0,3,4
 154 358 154 358 184 512 c 0,5,6
 209 641 209 641 239 728.5 c 128,-1,7
 269 816 269 816 320 880 c 0,8,9
 451 1040 451 1040 638 1040 c 0,10,11
 767 1040 767 1040 841.5 961 c 128,-1,12
 916 882 916 882 916 746 c 0,13,14
 916 655 916 655 888 512 c 0,15,16
 863 384 863 384 832.5 296 c 128,-1,17
 802 208 802 208 751 144 c 0,18,19
 620 -16 620 -16 433 -16 c 0,0,1
787 724 m 0,20,21
 787 817 787 817 745 868.5 c 128,-1,22
 703 920 703 920 615 920 c 0,23,24
 496 920 496 920 420 822 c 0,25,26
 391 785 391 785 369.5 729.5 c 128,-1,27
 348 674 348 674 337.5 630.5 c 128,-1,28
 327 587 327 587 312 512 c 0,29,30
 283 359 283 359 283 300 c 0,31,32
 283 207 283 207 325.5 155.5 c 128,-1,33
 368 104 368 104 456 104 c 0,34,35
 575 104 575 104 651 202 c 0,36,37
 692 254 692 254 715 327.5 c 128,-1,38
 738 401 738 401 760 512 c 0,39,40
 787 655 787 655 787 724 c 0,20,21
EndSplineSet
EndChar

StartChar: p
Encoding: 112 112 83
Width: 1024
Flags: W
LayerCount: 2
Fore
SplineSet
674 1040 m 0,0,1
 786 1040 786 1040 852.5 961 c 128,-1,2
 919 882 919 882 919 747 c 0,3,4
 919 674 919 674 888 512 c 0,5,6
 874 442 874 442 865.5 404 c 128,-1,7
 857 366 857 366 840.5 314.5 c 128,-1,8
 824 263 824 263 803 221 c 0,9,10
 746 109 746 109 657 46.5 c 128,-1,11
 568 -16 568 -16 469 -16 c 0,12,13
 341 -16 341 -16 278 125 c 1,14,-1
 268 125 l 1,15,-1
 169 -384 l 1,16,-1
 41 -384 l 1,17,-1
 315 1024 l 1,18,-1
 443 1024 l 1,19,-1
 419 899 l 1,20,-1
 429 899 l 1,21,22
 547 1040 547 1040 674 1040 c 0,0,1
317 307 m 0,23,24
 317 218 317 218 354.5 161 c 128,-1,25
 392 104 392 104 472 104 c 0,26,27
 539 104 539 104 594.5 147.5 c 128,-1,28
 650 191 650 191 684 256 c 0,29,30
 725 334 725 334 760 512 c 0,31,32
 786 646 786 646 786 717 c 0,33,34
 786 806 786 806 748.5 863 c 128,-1,35
 711 920 711 920 631 920 c 0,36,37
 564 920 564 920 508.5 876.5 c 128,-1,38
 453 833 453 833 419 768 c 0,39,40
 379 693 379 693 344 512 c 0,41,42
 317 373 317 373 317 307 c 0,23,24
EndSplineSet
EndChar

StartChar: q
Encoding: 113 113 84
Width: 1024
Flags: W
LayerCount: 2
Fore
SplineSet
397 -16 m 0,0,1
 285 -16 285 -16 218.5 63 c 128,-1,2
 152 142 152 142 152 277 c 0,3,4
 152 344 152 344 184 512 c 0,5,6
 199 586 199 586 206.5 621 c 128,-1,7
 214 656 214 656 230.5 708.5 c 128,-1,8
 247 761 247 761 268 803 c 0,9,10
 325 915 325 915 414 977.5 c 128,-1,11
 503 1040 503 1040 602 1040 c 0,12,13
 730 1040 730 1040 793 899 c 1,14,-1
 803 899 l 1,15,-1
 827 1024 l 1,16,-1
 955 1024 l 1,17,-1
 681 -384 l 1,18,-1
 553 -384 l 1,19,-1
 652 125 l 1,20,-1
 642 125 l 1,21,22
 524 -16 524 -16 397 -16 c 0,0,1
285 307 m 0,23,24
 285 218 285 218 322.5 161 c 128,-1,25
 360 104 360 104 440 104 c 0,26,27
 507 104 507 104 562.5 147.5 c 128,-1,28
 618 191 618 191 652 256 c 0,29,30
 693 334 693 334 728 512 c 0,31,32
 754 646 754 646 754 717 c 0,33,34
 754 806 754 806 716.5 863 c 128,-1,35
 679 920 679 920 599 920 c 0,36,37
 532 920 532 920 476.5 876.5 c 128,-1,38
 421 833 421 833 387 768 c 0,39,40
 347 693 347 693 312 512 c 0,41,42
 285 373 285 373 285 307 c 0,23,24
EndSplineSet
EndChar

StartChar: r
Encoding: 114 114 85
Width: 1024
Flags: W
LayerCount: 2
Fore
SplineSet
755 920 m 0,0,1
 619 920 619 920 526 847 c 0,2,3
 477 809 477 809 442 762.5 c 128,-1,4
 407 716 407 716 386.5 660.5 c 128,-1,5
 366 605 366 605 356.5 569 c 128,-1,6
 347 533 347 533 336 475 c 2,7,-1
 244 0 l 1,8,-1
 116 0 l 1,9,-1
 315 1024 l 1,10,-1
 443 1024 l 1,11,-1
 412 865 l 1,12,-1
 422 865 l 1,13,14
 501 950 501 950 585 995 c 128,-1,15
 669 1040 669 1040 778 1040 c 0,16,17
 852 1040 852 1040 956 1027 c 1,18,-1
 932 907 l 1,19,20
 828 920 828 920 755 920 c 0,0,1
EndSplineSet
EndChar

StartChar: s
Encoding: 115 115 86
Width: 1024
Flags: W
LayerCount: 2
Fore
SplineSet
424 -16 m 0,0,1
 311 -16 311 -16 117 6 c 1,2,-1
 140 126 l 1,3,4
 325 104 325 104 447 104 c 0,5,6
 525 104 525 104 581.5 124 c 128,-1,7
 638 144 638 144 666.5 176.5 c 128,-1,8
 695 209 695 209 707.5 241.5 c 128,-1,9
 720 274 720 274 720 308 c 0,10,11
 720 423 720 423 643 468 c 0,12,13
 602 492 602 492 508.5 504 c 128,-1,14
 415 516 415 516 367 540 c 0,15,16
 310 564 310 564 277.5 625.5 c 128,-1,17
 245 687 245 687 245 776 c 0,18,19
 245 887 245 887 345.5 963.5 c 128,-1,20
 446 1040 446 1040 634 1040 c 0,21,22
 743 1040 743 1040 944 1019 c 1,23,-1
 921 899 l 1,24,25
 718 920 718 920 611 920 c 0,26,27
 485 920 485 920 429 877.5 c 128,-1,28
 373 835 373 835 373 776 c 0,29,30
 373 679 373 679 437 652 c 0,31,32
 475 633 475 633 572.5 619.5 c 128,-1,33
 670 606 670 606 726 574 c 0,34,35
 848 503 848 503 848 308 c 0,36,37
 848 246 848 246 821 188.5 c 128,-1,38
 794 131 794 131 743.5 85 c 128,-1,39
 693 39 693 39 610 11.5 c 128,-1,40
 527 -16 527 -16 424 -16 c 0,0,1
EndSplineSet
EndChar

StartChar: t
Encoding: 116 116 87
Width: 1024
Flags: W
LayerCount: 2
Fore
SplineSet
427 246 m 0,0,1
 427 175 427 175 471 139.5 c 128,-1,2
 515 104 515 104 594 104 c 0,3,4
 665 104 665 104 779 119 c 1,5,-1
 756 -1 l 1,6,7
 645 -16 645 -16 561 -16 c 0,8,9
 440 -16 440 -16 368 46.5 c 128,-1,10
 296 109 296 109 296 220 c 0,11,12
 296 270 296 270 314 360 c 2,13,-1
 419 898 l 1,14,-1
 163 898 l 1,15,-1
 187 1024 l 1,16,-1
 443 1024 l 1,17,-1
 493 1280 l 1,18,-1
 621 1280 l 1,19,-1
 571 1024 l 1,20,-1
 955 1024 l 1,21,-1
 931 898 l 1,22,-1
 547 898 l 1,23,-1
 444 370 l 2,24,25
 427 281 427 281 427 246 c 0,0,1
EndSplineSet
EndChar

StartChar: u
Encoding: 117 117 88
Width: 1024
Flags: W
LayerCount: 2
Fore
SplineSet
299 248 m 0,0,1
 299 180 299 180 341.5 142 c 128,-1,2
 384 104 384 104 456 104 c 0,3,4
 550 104 550 104 615 166 c 0,5,6
 641 191 641 191 658 225 c 128,-1,7
 675 259 675 259 681.5 285.5 c 128,-1,8
 688 312 688 312 699 367 c 2,9,-1
 827 1024 l 1,10,-1
 955 1024 l 1,11,-1
 756 0 l 1,12,-1
 628 0 l 1,13,-1
 650 112 l 1,14,-1
 640 112 l 1,15,16
 591 54 591 54 530 19 c 128,-1,17
 469 -16 469 -16 413 -16 c 0,18,19
 302 -16 302 -16 235.5 49.5 c 128,-1,20
 169 115 169 115 169 223 c 0,21,22
 169 271 169 271 187 367 c 2,23,-1
 315 1024 l 1,24,-1
 443 1024 l 1,25,-1
 315 367 l 2,26,27
 299 285 299 285 299 248 c 0,0,1
EndSplineSet
EndChar

StartChar: v
Encoding: 118 118 89
Width: 1024
Flags: W
LayerCount: 2
Fore
SplineSet
474 168 m 1,0,1
 674 500 674 500 876 1024 c 1,2,-1
 1007 1024 l 1,3,4
 764 395 764 395 494 0 c 1,5,-1
 378 0 l 1,6,7
 312 225 312 225 287.5 473.5 c 128,-1,8
 263 722 263 722 263 1024 c 1,9,-1
 394 1024 l 1,10,11
 394 496 394 496 464 168 c 1,12,-1
 474 168 l 1,0,1
EndSplineSet
EndChar

StartChar: w
Encoding: 119 119 90
Width: 1024
Flags: W
LayerCount: 2
Fore
SplineSet
523 767 m 1,0,-1
 647 767 l 1,1,-1
 689 140 l 1,2,-1
 699 140 l 1,3,4
 878 535 878 535 974 1024 c 1,5,-1
 1102 1024 l 1,6,7
 1002 509 1002 509 754 0 c 1,8,-1
 600 0 l 1,9,-1
 555 587 l 1,10,-1
 545 587 l 1,11,-1
 272 0 l 1,12,-1
 118 0 l 1,13,14
 101 175 101 175 101 340 c 0,15,16
 101 683 101 683 168 1024 c 1,17,-1
 296 1024 l 1,18,19
 221 635 221 635 221 312 c 0,20,21
 221 224 221 224 227 140 c 1,22,-1
 237 140 l 1,23,-1
 523 767 l 1,0,-1
EndSplineSet
EndChar

StartChar: x
Encoding: 120 120 91
Width: 1024
Flags: W
LayerCount: 2
Fore
SplineSet
556 644 m 1,0,-1
 566 644 l 1,1,-1
 863 1024 l 1,2,-1
 1030 1024 l 1,3,-1
 617 551 l 1,4,-1
 615 541 l 1,5,-1
 853 0 l 1,6,-1
 685 0 l 1,7,-1
 528 448 l 1,8,-1
 518 448 l 1,9,-1
 187 0 l 1,10,-1
 19 0 l 1,11,-1
 467 541 l 1,12,-1
 469 551 l 1,13,-1
 240 1024 l 1,14,-1
 407 1024 l 1,15,-1
 556 644 l 1,0,-1
EndSplineSet
EndChar

StartChar: y
Encoding: 121 121 92
Width: 1024
Flags: W
LayerCount: 2
Fore
SplineSet
522 240 m 1,0,1
 721 636 721 636 877 1024 c 1,2,-1
 1008 1024 l 1,3,4
 824 575 824 575 552 55 c 0,5,6
 464 -115 464 -115 368 -193 c 0,7,8
 268 -272 268 -272 63 -272 c 1,9,-1
 86 -152 l 1,10,11
 212 -152 212 -152 290 -111 c 0,12,13
 315 -98 315 -98 333.5 -82 c 128,-1,14
 352 -66 352 -66 373.5 -33.5 c 128,-1,15
 395 -1 395 -1 408.5 23 c 128,-1,16
 422 47 422 47 453 107 c 0,17,18
 460 121 460 121 464 128 c 1,19,-1
 412 128 l 1,20,21
 324 463 324 463 263 1024 c 1,22,-1
 394 1024 l 1,23,24
 442 541 442 541 512 240 c 1,25,-1
 522 240 l 1,0,1
EndSplineSet
EndChar

StartChar: z
Encoding: 122 122 93
Width: 1024
Flags: W
LayerCount: 2
Fore
SplineSet
312 904 m 1,0,-1
 335 1024 l 1,1,-1
 935 1024 l 1,2,-1
 918 934 l 1,3,-1
 286 130 l 1,4,-1
 284 120 l 1,5,-1
 779 120 l 1,6,-1
 756 0 l 1,7,-1
 116 0 l 1,8,-1
 134 92 l 1,9,-1
 765 894 l 1,10,-1
 767 904 l 1,11,-1
 312 904 l 1,0,-1
EndSplineSet
EndChar

StartChar: braceleft
Encoding: 123 123 94
Width: 1024
Flags: W
LayerCount: 2
Fore
SplineSet
466 507 m 0,0,1
 466 553 466 553 430.5 585 c 128,-1,2
 395 617 395 617 346 630 c 128,-1,3
 297 643 297 643 241 643 c 1,4,-1
 264 763 l 1,5,6
 344 763 344 763 418 790.5 c 128,-1,7
 492 818 492 818 527 870 c 0,8,9
 547 898 547 898 564 990 c 2,10,-1
 606 1203 l 2,11,12
 618 1264 618 1264 629 1299.5 c 128,-1,13
 640 1335 640 1335 664 1372 c 0,14,15
 720 1457 720 1457 828.5 1503.5 c 128,-1,16
 937 1550 937 1550 1057 1550 c 1,17,-1
 1034 1430 l 1,18,19
 954 1430 954 1430 880 1402.5 c 128,-1,20
 806 1375 806 1375 771 1323 c 0,21,22
 751 1295 751 1295 734 1203 c 2,23,-1
 692 990 l 2,24,25
 684 947 684 947 679 926 c 128,-1,26
 674 905 674 905 663 876 c 128,-1,27
 652 847 652 847 635 821 c 0,28,29
 588 749 588 749 479 708 c 1,30,-1
 477 698 l 1,31,32
 535 672 535 672 565.5 632.5 c 128,-1,33
 596 593 596 593 596 528 c 0,34,35
 596 497 596 497 581 416 c 2,36,-1
 539 203 l 2,37,38
 526 138 526 138 526 112 c 0,39,40
 526 65 526 65 562.5 33 c 128,-1,41
 599 1 599 1 647.5 -11.5 c 128,-1,42
 696 -24 696 -24 751 -24 c 1,43,-1
 728 -144 l 1,44,45
 641 -144 641 -144 568 -120.5 c 128,-1,46
 495 -97 495 -97 445.5 -42.5 c 128,-1,47
 396 12 396 12 396 91 c 0,48,49
 396 122 396 122 411 203 c 2,50,-1
 453 416 l 2,51,52
 466 481 466 481 466 507 c 0,0,1
EndSplineSet
Substitution2: "'rtla' Right to Left Alternates lookup 0 subtable" braceright
EndChar

StartChar: bar
Encoding: 124 124 95
Width: 1024
Flags: W
LayerCount: 2
Fore
SplineSet
798 1536 m 1,0,-1
 475 -128 l 1,1,-1
 347 -128 l 1,2,-1
 671 1536 l 1,3,-1
 798 1536 l 1,0,-1
EndSplineSet
Substitution2: "<2,2> Cursive lookup 168 nested-substitutions 0 subtable" bar2
Substitution2: "<2,2> Cursive lookup 166 nested-substitutions 0 subtable" bar1
EndChar

StartChar: braceright
Encoding: 125 125 96
Width: 1024
Flags: W
LayerCount: 2
Fore
SplineSet
679 899 m 0,0,1
 679 832 679 832 746.5 797.5 c 128,-1,2
 814 763 814 763 904 763 c 1,3,-1
 881 643 l 1,4,5
 801 643 801 643 727 615.5 c 128,-1,6
 653 588 653 588 618 536 c 0,7,8
 598 508 598 508 581 416 c 2,9,-1
 539 203 l 2,10,11
 531 160 531 160 526 139 c 128,-1,12
 521 118 521 118 510 89 c 128,-1,13
 499 60 499 60 482 34 c 0,14,15
 426 -51 426 -51 317 -97.5 c 128,-1,16
 208 -144 208 -144 88 -144 c 1,17,-1
 111 -24 l 1,18,19
 191 -24 191 -24 265 3.5 c 128,-1,20
 339 31 339 31 374 83 c 0,21,22
 394 111 394 111 411 203 c 2,23,-1
 453 416 l 2,24,25
 465 477 465 477 476 512.5 c 128,-1,26
 487 548 487 548 511 585 c 0,27,28
 558 657 558 657 667 698 c 1,29,-1
 669 708 l 1,30,31
 611 734 611 734 580 773.5 c 128,-1,32
 549 813 549 813 549 878 c 0,33,34
 549 909 549 909 564 990 c 2,35,-1
 606 1203 l 2,36,37
 619 1268 619 1268 619 1294 c 0,38,39
 619 1361 619 1361 551.5 1395.5 c 128,-1,40
 484 1430 484 1430 394 1430 c 1,41,-1
 417 1550 l 1,42,43
 505 1550 505 1550 578.5 1525.5 c 128,-1,44
 652 1501 652 1501 700.5 1446.5 c 128,-1,45
 749 1392 749 1392 749 1315 c 0,46,47
 749 1284 749 1284 734 1203 c 2,48,-1
 692 990 l 2,49,50
 679 925 679 925 679 899 c 0,0,1
EndSplineSet
Substitution2: "'rtla' Right to Left Alternates lookup 0 subtable" braceleft
EndChar

StartChar: tilde
Encoding: 126 126 97
Width: 1024
Flags: W
LayerCount: 2
Fore
SplineSet
219 512 m 1,0,-1
 91 512 l 1,1,2
 109 603 109 603 130.5 666.5 c 128,-1,3
 152 730 152 730 188.5 786.5 c 128,-1,4
 225 843 225 843 281 871.5 c 128,-1,5
 337 900 337 900 413 900 c 0,6,7
 466 900 466 900 507.5 880 c 128,-1,8
 549 860 549 860 573 829.5 c 128,-1,9
 597 799 597 799 619.5 764 c 128,-1,10
 642 729 642 729 659 698.5 c 128,-1,11
 676 668 676 668 702.5 648 c 128,-1,12
 729 628 729 628 762 628 c 128,-1,13
 795 628 795 628 820 640.5 c 128,-1,14
 845 653 845 653 861.5 672 c 128,-1,15
 878 691 878 691 891.5 728.5 c 128,-1,16
 905 766 905 766 913 801 c 128,-1,17
 921 836 921 836 933 896 c 1,18,-1
 1061 896 l 1,19,20
 1043 805 1043 805 1021.5 741.5 c 128,-1,21
 1000 678 1000 678 963.5 621.5 c 128,-1,22
 927 565 927 565 871 536.5 c 128,-1,23
 815 508 815 508 739 508 c 0,24,25
 686 508 686 508 644.5 528 c 128,-1,26
 603 548 603 548 579 578.5 c 128,-1,27
 555 609 555 609 532.5 644 c 128,-1,28
 510 679 510 679 493 709.5 c 128,-1,29
 476 740 476 740 449.5 760 c 128,-1,30
 423 780 423 780 390 780 c 128,-1,31
 357 780 357 780 332 767.5 c 128,-1,32
 307 755 307 755 290.5 736 c 128,-1,33
 274 717 274 717 260.5 679.5 c 128,-1,34
 247 642 247 642 239 607 c 128,-1,35
 231 572 231 572 219 512 c 1,0,-1
EndSplineSet
EndChar

StartChar: exclamdown
Encoding: 161 161 99
Width: 1024
Flags: W
LayerCount: 2
Fore
SplineSet
488 992 m 0,0,1
 488 1060 488 1060 536.5 1114 c 128,-1,2
 585 1168 585 1168 663 1168 c 0,3,4
 718 1168 718 1168 750.5 1137.5 c 128,-1,5
 783 1107 783 1107 783 1056 c 0,6,7
 783 988 783 988 734 934 c 128,-1,8
 685 880 685 880 607 880 c 0,9,10
 552 880 552 880 520 910.5 c 128,-1,11
 488 941 488 941 488 992 c 0,0,1
624 640 m 1,12,-1
 460 -256 l 1,13,-1
 312 -256 l 1,14,-1
 496 640 l 1,15,-1
 624 640 l 1,12,-1
EndSplineSet
EndChar

StartChar: cent
Encoding: 162 162 100
Width: 1024
Flags: W
LayerCount: 2
Fore
SplineSet
284 308 m 0,0,1
 284 210 284 210 332.5 157 c 128,-1,2
 381 104 381 104 476 104 c 0,3,4
 610 104 610 104 781 130 c 1,5,-1
 758 9 l 1,6,7
 613 -12 613 -12 497 -16 c 1,8,-1
 450 -256 l 1,9,-1
 322 -256 l 1,10,-1
 371 -7 l 1,11,12
 264 15 264 15 209 91.5 c 128,-1,13
 154 168 154 168 154 287 c 0,14,15
 154 358 154 358 184 512 c 0,16,17
 205 621 205 621 226 691.5 c 128,-1,18
 247 762 247 762 284 824 c 0,19,20
 331 903 331 903 405 959 c 128,-1,21
 479 1015 479 1015 572 1031 c 1,22,-1
 621 1280 l 1,23,-1
 749 1280 l 1,24,-1
 702 1040 l 1,25,26
 801 1038 801 1038 935 1022 c 1,27,-1
 912 902 l 1,28,29
 771 920 771 920 631 920 c 0,30,31
 484 920 484 920 395 781 c 0,32,33
 374 747 374 747 357 697 c 128,-1,34
 340 647 340 647 332.5 614 c 128,-1,35
 325 581 325 581 312 512 c 0,36,37
 284 370 284 370 284 308 c 0,0,1
EndSplineSet
EndChar

StartChar: sterling
Encoding: 163 163 101
Width: 1024
Flags: W
LayerCount: 2
Fore
SplineSet
139 120 m 1,0,-1
 242 648 l 1,1,-1
 114 648 l 1,2,-1
 137 768 l 1,3,-1
 265 768 l 1,4,-1
 290 896 l 2,5,6
 305 972 305 972 315 1015 c 128,-1,7
 325 1058 325 1058 345.5 1114.5 c 128,-1,8
 366 1171 366 1171 392 1215 c 0,9,10
 448 1308 448 1308 541.5 1366 c 128,-1,11
 635 1424 635 1424 755 1424 c 0,12,13
 850 1424 850 1424 1000 1409 c 1,14,-1
 977 1289 l 1,15,16
 825 1304 825 1304 731 1304 c 0,17,18
 586 1304 586 1304 504 1173 c 0,19,20
 483 1139 483 1139 465.5 1088 c 128,-1,21
 448 1037 448 1037 439.5 1000.5 c 128,-1,22
 431 964 431 964 418 896 c 2,23,-1
 393 768 l 1,24,-1
 777 768 l 1,25,-1
 754 648 l 1,26,-1
 370 648 l 1,27,-1
 267 120 l 1,28,-1
 779 120 l 1,29,-1
 756 0 l 1,30,-1
 -12 0 l 1,31,-1
 11 120 l 1,32,-1
 139 120 l 1,0,-1
EndSplineSet
EndChar

StartChar: currency
Encoding: 164 164 102
Width: 1024
Flags: W
LayerCount: 2
Fore
SplineSet
507 364 m 0,0,1
 625 364 625 364 693 445 c 128,-1,2
 761 526 761 526 761 628 c 0,3,4
 761 703 761 703 715 745.5 c 128,-1,5
 669 788 669 788 589 788 c 128,-1,6
 509 788 509 788 449.5 747 c 128,-1,7
 390 706 390 706 362.5 647 c 128,-1,8
 335 588 335 588 335 524 c 0,9,10
 335 449 335 449 381 406.5 c 128,-1,11
 427 364 427 364 507 364 c 0,0,1
205 505 m 0,12,13
 205 653 205 653 306 768 c 1,14,-1
 189 912 l 1,15,-1
 299 994 l 1,16,-1
 411 854 l 1,17,18
 506 908 506 908 612 908 c 0,19,20
 720 908 720 908 793 854 c 1,21,-1
 959 994 l 1,22,-1
 1037 912 l 1,23,-1
 864 768 l 1,24,25
 891 714 891 714 891 647 c 0,26,27
 891 499 891 499 790 384 c 1,28,-1
 907 240 l 1,29,-1
 797 158 l 1,30,-1
 685 298 l 1,31,32
 590 244 590 244 483 244 c 128,-1,33
 376 244 376 244 303 298 c 1,34,-1
 137 158 l 1,35,-1
 59 240 l 1,36,-1
 232 384 l 1,37,38
 205 438 205 438 205 505 c 0,12,13
EndSplineSet
EndChar

StartChar: yen
Encoding: 165 165 103
Width: 1024
Flags: W
LayerCount: 2
Fore
SplineSet
247 1408 m 1,0,-1
 372 1408 l 1,1,2
 383 1199 383 1199 428 1034.5 c 128,-1,3
 473 870 473 870 565 740 c 1,4,-1
 595 740 l 1,5,6
 737 870 737 870 846.5 1035 c 128,-1,7
 956 1200 956 1200 1048 1408 c 1,8,-1
 1173 1408 l 1,9,10
 1018 1037 1018 1037 765 768 c 1,11,-1
 905 768 l 1,12,-1
 882 648 l 1,13,-1
 643 648 l 1,14,-1
 622 630 l 1,15,-1
 598 504 l 1,16,-1
 854 504 l 1,17,-1
 831 384 l 1,18,-1
 575 384 l 1,19,-1
 500 0 l 1,20,-1
 372 0 l 1,21,-1
 447 384 l 1,22,-1
 191 384 l 1,23,-1
 214 504 l 1,24,-1
 470 504 l 1,25,-1
 494 630 l 1,26,-1
 481 648 l 1,27,-1
 242 648 l 1,28,-1
 265 768 l 1,29,-1
 405 768 l 1,30,31
 259 1032 259 1032 247 1408 c 1,0,-1
EndSplineSet
EndChar

StartChar: brokenbar
Encoding: 166 166 104
Width: 1024
Flags: W
LayerCount: 2
Fore
SplineSet
575 384 m 1,0,-1
 475 -128 l 1,1,-1
 347 -128 l 1,2,-1
 447 384 l 1,3,-1
 575 384 l 1,0,-1
798 1536 m 1,4,-1
 699 1024 l 1,5,-1
 571 1024 l 1,6,-1
 671 1536 l 1,7,-1
 798 1536 l 1,4,-1
EndSplineSet
EndChar

StartChar: section
Encoding: 167 167 105
Width: 1024
Flags: W
LayerCount: 2
Fore
SplineSet
516 368 m 0,0,1
 570 368 570 368 615.5 383.5 c 128,-1,2
 661 399 661 399 692 425 c 128,-1,3
 723 451 723 451 744.5 485 c 128,-1,4
 766 519 766 519 776 554.5 c 128,-1,5
 786 590 786 590 786 626 c 0,6,7
 786 704 786 704 730 742 c 128,-1,8
 674 780 674 780 577 780 c 0,9,10
 512 780 512 780 459 756.5 c 128,-1,11
 406 733 406 733 374.5 695.5 c 128,-1,12
 343 658 343 658 326 614 c 128,-1,13
 309 570 309 570 309 525 c 0,14,15
 309 445 309 445 367.5 406.5 c 128,-1,16
 426 368 426 368 516 368 c 0,0,1
299 289 m 0,17,18
 242 322 242 322 210.5 378.5 c 128,-1,19
 179 435 179 435 179 506 c 0,20,21
 179 610 179 610 240 700 c 128,-1,22
 301 790 301 790 406 843 c 1,23,24
 301 918 301 918 301 1044 c 0,25,26
 301 1107 301 1107 329 1172.5 c 128,-1,27
 357 1238 357 1238 408.5 1294.5 c 128,-1,28
 460 1351 460 1351 544 1386.5 c 128,-1,29
 628 1422 628 1422 730 1422 c 0,30,31
 836 1422 836 1422 987 1394 c 1,32,-1
 963 1271 l 1,33,34
 815 1302 815 1302 707 1302 c 0,35,36
 635 1302 635 1302 579.5 1278.5 c 128,-1,37
 524 1255 524 1255 492.5 1217.5 c 128,-1,38
 461 1180 461 1180 445.5 1139.5 c 128,-1,39
 430 1099 430 1099 430 1058 c 0,40,41
 430 986 430 986 487 936 c 0,42,43
 518 910 518 910 573.5 903.5 c 128,-1,44
 629 897 629 897 692 890.5 c 128,-1,45
 755 884 755 884 798 859 c 0,46,47
 852 827 852 827 884 771 c 128,-1,48
 916 715 916 715 916 643 c 0,49,50
 916 537 916 537 855 447.5 c 128,-1,51
 794 358 794 358 689 306 c 1,52,53
 794 231 794 231 794 105 c 0,54,55
 794 8 794 8 740.5 -78 c 128,-1,56
 687 -164 687 -164 587.5 -218 c 128,-1,57
 488 -272 488 -272 365 -272 c 0,58,59
 251 -272 251 -272 71 -233 c 1,60,-1
 95 -110 l 1,61,62
 267 -152 267 -152 388 -152 c 0,63,64
 460 -152 460 -152 516 -129 c 128,-1,65
 572 -106 572 -106 603 -69 c 128,-1,66
 634 -32 634 -32 649.5 9 c 128,-1,67
 665 50 665 50 665 91 c 0,68,69
 665 182 665 182 594 223 c 0,70,71
 561 241 561 241 507 246.5 c 128,-1,72
 453 252 453 252 396 259 c 128,-1,73
 339 266 339 266 299 289 c 0,17,18
EndSplineSet
EndChar

StartChar: dieresis
Encoding: 168 168 106
Width: 1024
Flags: W
LayerCount: 2
Fore
SplineSet
788 1223 m 0,0,1
 788 1274 788 1274 825 1317 c 128,-1,2
 862 1360 862 1360 924 1360 c 0,3,4
 966 1360 966 1360 991.5 1336 c 128,-1,5
 1017 1312 1017 1312 1017 1273 c 0,6,7
 1017 1222 1017 1222 980 1179 c 128,-1,8
 943 1136 943 1136 881 1136 c 0,9,10
 839 1136 839 1136 813.5 1160 c 128,-1,11
 788 1184 788 1184 788 1223 c 0,0,1
340 1223 m 0,12,13
 340 1274 340 1274 377 1317 c 128,-1,14
 414 1360 414 1360 476 1360 c 0,15,16
 518 1360 518 1360 543.5 1336 c 128,-1,17
 569 1312 569 1312 569 1273 c 0,18,19
 569 1222 569 1222 532 1179 c 128,-1,20
 495 1136 495 1136 433 1136 c 0,21,22
 391 1136 391 1136 365.5 1160 c 128,-1,23
 340 1184 340 1184 340 1223 c 0,12,13
EndSplineSet
EndChar

StartChar: copyright
Encoding: 169 169 107
Width: 1024
Flags: W
LayerCount: 2
Fore
SplineSet
456 559 m 128,-1,1
 456 522 456 522 473.5 508 c 128,-1,2
 491 494 491 494 531 494 c 0,3,4
 612 494 612 494 710 526 c 1,5,-1
 686 400 l 1,6,7
 582 374 582 374 508 374 c 0,8,9
 327 374 327 374 327 540 c 0,10,11
 327 591 327 591 350 708 c 0,12,13
 380 856 380 856 412 912 c 0,14,15
 482 1034 482 1034 637 1034 c 0,16,17
 718 1034 718 1034 803 1005 c 1,18,-1
 778 875 l 1,19,20
 697 913 697 913 612 914 c 0,21,22
 578 914 578 914 558.5 904.5 c 128,-1,23
 539 895 539 895 524 871 c 0,24,25
 505 841 505 841 478 708 c 0,26,0
 456 596 456 596 456 559 c 128,-1,1
970 891 m 0,27,28
 970 1040 970 1040 896.5 1126.5 c 128,-1,29
 823 1213 823 1213 672 1213 c 0,30,31
 545 1213 545 1213 447 1149.5 c 128,-1,32
 349 1086 349 1086 290 980 c 0,33,34
 239 889 239 889 207.5 755.5 c 128,-1,35
 176 622 176 622 176 517 c 0,36,37
 176 367 176 367 249.5 281 c 128,-1,38
 323 195 323 195 474 195 c 0,39,40
 601 195 601 195 698 258.5 c 128,-1,41
 795 322 795 322 855 428 c 0,42,43
 906 520 906 520 938 653 c 128,-1,44
 970 786 970 786 970 891 c 0,27,28
688 1295 m 0,45,46
 871 1295 871 1295 965.5 1189 c 128,-1,47
 1060 1083 1060 1083 1060 907 c 0,48,49
 1060 797 1060 797 1026 650.5 c 128,-1,50
 992 504 992 504 934 402 c 0,51,52
 861 272 861 272 737.5 192.5 c 128,-1,53
 614 113 614 113 458 113 c 0,54,55
 276 113 276 113 181 218 c 128,-1,56
 86 323 86 323 86 501 c 0,57,58
 86 611 86 611 120 757.5 c 128,-1,59
 154 904 154 904 212 1006 c 0,60,61
 285 1136 285 1136 408.5 1215.5 c 128,-1,62
 532 1295 532 1295 688 1295 c 0,45,46
EndSplineSet
EndChar

StartChar: ordfeminine
Encoding: 170 170 108
Width: 1024
Flags: W
LayerCount: 2
Fore
SplineSet
680 1106 m 2,0,-1
 689 1152 l 1,1,-1
 573 1152 l 2,2,3
 519 1152 519 1152 495 1143 c 0,4,5
 451 1128 451 1128 420.5 1082 c 128,-1,6
 390 1036 390 1036 390 977 c 0,7,8
 390 931 390 931 415 901.5 c 128,-1,9
 440 872 440 872 484 872 c 0,10,11
 531 872 531 872 566 891 c 128,-1,12
 601 910 601 910 623 946 c 128,-1,13
 645 982 645 982 657.5 1019 c 128,-1,14
 670 1056 670 1056 680 1106 c 2,0,-1
632 1552 m 0,15,16
 742 1552 742 1552 798 1505 c 128,-1,17
 854 1458 854 1458 854 1370 c 0,18,19
 854 1338 854 1338 844 1290 c 2,20,-1
 742 768 l 1,21,-1
 614 768 l 1,22,-1
 627 835 l 1,23,-1
 617 835 l 1,24,25
 572 793 572 793 531 772.5 c 128,-1,26
 490 752 490 752 438 752 c 0,27,28
 358 752 358 752 309 809.5 c 128,-1,29
 260 867 260 867 260 954 c 0,30,31
 260 1060 260 1060 321.5 1142 c 128,-1,32
 383 1224 383 1224 470 1254 c 0,33,34
 521 1272 521 1272 596 1272 c 2,35,-1
 712 1272 l 1,36,37
 724 1330 724 1330 724 1353 c 0,38,39
 724 1395 724 1395 696.5 1413.5 c 128,-1,40
 669 1432 669 1432 608 1432 c 0,41,42
 574 1432 574 1432 382 1419 c 1,43,-1
 405 1540 l 1,44,45
 585 1552 585 1552 632 1552 c 0,15,16
EndSplineSet
EndChar

StartChar: guillemotleft
Encoding: 171 171 109
Width: 1024
Flags: W
LayerCount: 2
Fore
SplineSet
226 581 m 1,0,-1
 224 571 l 1,1,-1
 448 181 l 1,2,-1
 331 113 l 1,3,-1
 93 542 l 1,4,-1
 107 610 l 1,5,-1
 511 1039 l 1,6,-1
 602 971 l 1,7,-1
 226 581 l 1,0,-1
610 581 m 1,8,-1
 608 571 l 1,9,-1
 832 181 l 1,10,-1
 715 113 l 1,11,-1
 477 542 l 1,12,-1
 491 610 l 1,13,-1
 895 1039 l 1,14,-1
 986 971 l 1,15,-1
 610 581 l 1,8,-1
EndSplineSet
EndChar

StartChar: logicalnot
Encoding: 172 172 110
Width: 1024
Flags: W
LayerCount: 2
Fore
SplineSet
1033 764 m 1,0,-1
 959 384 l 1,1,-1
 831 384 l 1,2,-1
 881 644 l 1,3,-1
 113 644 l 1,4,-1
 137 764 l 1,5,-1
 1033 764 l 1,0,-1
EndSplineSet
EndChar

StartChar: uni00AD
Encoding: 173 173 111
Width: 1024
Flags: W
LayerCount: 2
Fore
SplineSet
140 636 m 1,0,-1
 1036 636 l 1,1,-1
 1012 516 l 1,2,-1
 116 516 l 1,3,-1
 140 636 l 1,0,-1
EndSplineSet
EndChar

StartChar: registered
Encoding: 174 174 112
Width: 1024
Flags: W
LayerCount: 2
Fore
SplineSet
970 891 m 0,0,1
 970 1040 970 1040 896.5 1126.5 c 128,-1,2
 823 1213 823 1213 672 1213 c 0,3,4
 545 1213 545 1213 447 1149.5 c 128,-1,5
 349 1086 349 1086 290 980 c 0,6,7
 239 889 239 889 207.5 755.5 c 128,-1,8
 176 622 176 622 176 517 c 0,9,10
 176 367 176 367 249.5 281 c 128,-1,11
 323 195 323 195 474 195 c 0,12,13
 601 195 601 195 698 258.5 c 128,-1,14
 795 322 795 322 855 428 c 0,15,16
 906 520 906 520 938 653 c 128,-1,17
 970 786 970 786 970 891 c 0,0,1
688 1295 m 0,18,19
 871 1295 871 1295 965.5 1189 c 128,-1,20
 1060 1083 1060 1083 1060 907 c 0,21,22
 1060 797 1060 797 1026 650.5 c 128,-1,23
 992 504 992 504 934 402 c 0,24,25
 861 272 861 272 737.5 192.5 c 128,-1,26
 614 113 614 113 458 113 c 0,27,28
 276 113 276 113 181 218 c 128,-1,29
 86 323 86 323 86 501 c 0,30,31
 86 611 86 611 120 757.5 c 128,-1,32
 154 904 154 904 212 1006 c 0,33,34
 285 1136 285 1136 408.5 1215.5 c 128,-1,35
 532 1295 532 1295 688 1295 c 0,18,19
603 760 m 2,36,37
 682 760 682 760 682 864 c 0,38,39
 682 885 682 885 670.5 894.5 c 128,-1,40
 659 904 659 904 631 904 c 2,41,-1
 548 904 l 1,42,-1
 520 760 l 1,43,-1
 603 760 l 2,36,37
811 882 m 0,44,45
 811 812 811 812 780.5 756.5 c 128,-1,46
 750 701 750 701 702 671 c 1,47,-1
 744 384 l 1,48,-1
 609 384 l 1,49,-1
 582 640 l 1,50,-1
 496 640 l 1,51,-1
 447 384 l 1,52,-1
 319 384 l 1,53,-1
 443 1024 l 1,54,-1
 654 1024 l 2,55,56
 730 1024 730 1024 770.5 986.5 c 128,-1,57
 811 949 811 949 811 882 c 0,44,45
EndSplineSet
EndChar

StartChar: macron
Encoding: 175 175 113
Width: 1024
Flags: W
LayerCount: 2
Fore
SplineSet
389 1404 m 1,0,-1
 1029 1404 l 1,1,-1
 1006 1284 l 1,2,-1
 366 1284 l 1,3,-1
 389 1404 l 1,0,-1
EndSplineSet
EndChar

StartChar: degree
Encoding: 176 176 114
Width: 1024
Flags: W
LayerCount: 2
Fore
SplineSet
747 1524 m 0,0,1
 834 1524 834 1524 884.5 1474 c 128,-1,2
 935 1424 935 1424 935 1344 c 0,3,4
 935 1228 935 1228 852.5 1148 c 128,-1,5
 770 1068 770 1068 659 1068 c 0,6,7
 572 1068 572 1068 521 1118 c 128,-1,8
 470 1168 470 1168 470 1248 c 0,9,10
 470 1364 470 1364 553 1444 c 128,-1,11
 636 1524 636 1524 747 1524 c 0,0,1
678 1168 m 0,12,13
 739 1168 739 1168 782.5 1212 c 128,-1,14
 826 1256 826 1256 826 1330 c 0,15,16
 826 1375 826 1375 800 1399.5 c 128,-1,17
 774 1424 774 1424 728 1424 c 0,18,19
 667 1424 667 1424 623 1379.5 c 128,-1,20
 579 1335 579 1335 579 1262 c 0,21,22
 579 1217 579 1217 605.5 1192.5 c 128,-1,23
 632 1168 632 1168 678 1168 c 0,12,13
EndSplineSet
EndChar

StartChar: plusminus
Encoding: 177 177 115
Width: 1024
Flags: W
LayerCount: 2
Fore
SplineSet
654 892 m 1,0,-1
 1038 892 l 1,1,-1
 1015 772 l 1,2,-1
 631 772 l 1,3,-1
 581 512 l 1,4,-1
 453 512 l 1,5,-1
 503 772 l 1,6,-1
 119 772 l 1,7,-1
 142 892 l 1,8,-1
 526 892 l 1,9,-1
 577 1152 l 1,10,-1
 705 1152 l 1,11,-1
 654 892 l 1,0,-1
43 380 m 1,12,-1
 939 380 l 1,13,-1
 916 260 l 1,14,-1
 20 260 l 1,15,-1
 43 380 l 1,12,-1
EndSplineSet
EndChar

StartChar: uni00B2
Encoding: 178 178 116
Width: 1024
Flags: W
LayerCount: 2
Fore
SplineSet
412 1525 m 1,0,1
 549 1552 549 1552 661 1552 c 0,2,3
 780 1552 780 1552 840.5 1499 c 128,-1,4
 901 1446 901 1446 901 1363 c 0,5,6
 901 1166 901 1166 624 1039 c 0,7,8
 577 1017 577 1017 560 1009 c 128,-1,9
 543 1001 543 1001 509 981.5 c 128,-1,10
 475 962 475 962 456 942.5 c 128,-1,11
 437 923 437 923 423 898 c 1,12,-1
 421 888 l 1,13,-1
 801 888 l 1,14,-1
 777 768 l 1,15,-1
 259 768 l 1,16,-1
 271 828 l 2,17,18
 310 1027 310 1027 572 1141 c 0,19,20
 612 1158 612 1158 639.5 1173 c 128,-1,21
 667 1188 667 1188 701 1213 c 128,-1,22
 735 1238 735 1238 753 1270.5 c 128,-1,23
 771 1303 771 1303 771 1342 c 0,24,25
 771 1379 771 1379 741.5 1405.5 c 128,-1,26
 712 1432 712 1432 637 1432 c 0,27,28
 530 1432 530 1432 389 1405 c 1,29,-1
 412 1525 l 1,0,1
EndSplineSet
EndChar

StartChar: uni00B3
Encoding: 179 179 117
Width: 1024
Flags: W
LayerCount: 2
Fore
SplineSet
758 1150 m 1,0,1
 835 1105 835 1105 835 1020 c 0,2,3
 835 910 835 910 740.5 831 c 128,-1,4
 646 752 646 752 504 752 c 0,5,6
 400 752 400 752 265 767 c 1,7,-1
 288 887 l 1,8,9
 442 872 442 872 528 872 c 0,10,11
 619 872 619 872 662 910.5 c 128,-1,12
 705 949 705 949 705 1003 c 0,13,14
 705 1036 705 1036 682.5 1058 c 128,-1,15
 660 1080 660 1080 625 1087 c 0,16,17
 600 1092 600 1092 534 1092 c 2,18,-1
 456 1092 l 1,19,-1
 480 1212 l 1,20,-1
 558 1212 l 2,21,22
 616 1212 616 1212 647 1218 c 0,23,24
 696 1228 696 1228 729 1261 c 128,-1,25
 762 1294 762 1294 762 1346 c 0,26,27
 762 1432 762 1432 634 1432 c 0,28,29
 566 1432 566 1432 401 1415 c 1,30,-1
 424 1535 l 1,31,32
 560 1552 560 1552 658 1552 c 0,33,34
 768 1552 768 1552 830 1503 c 128,-1,35
 892 1454 892 1454 892 1369 c 0,36,37
 892 1230 892 1230 759 1160 c 1,38,-1
 758 1150 l 1,0,1
EndSplineSet
EndChar

StartChar: acute
Encoding: 180 180 118
Width: 1024
Flags: W
LayerCount: 2
Fore
SplineSet
578 1024 m 1,0,-1
 819 1408 l 1,1,-1
 957 1408 l 1,2,-1
 716 1024 l 1,3,-1
 578 1024 l 1,0,-1
EndSplineSet
EndChar

StartChar: mu
Encoding: 181 181 119
Width: 1024
Flags: W
LayerCount: 2
Fore
SplineSet
299 248 m 0,0,1
 299 180 299 180 341.5 142 c 128,-1,2
 384 104 384 104 456 104 c 0,3,4
 550 104 550 104 615 166 c 0,5,6
 641 191 641 191 658 225 c 128,-1,7
 675 259 675 259 681.5 285.5 c 128,-1,8
 688 312 688 312 699 367 c 2,9,-1
 827 1024 l 1,10,-1
 955 1024 l 1,11,-1
 756 0 l 1,12,-1
 628 0 l 1,13,-1
 650 112 l 1,14,-1
 640 112 l 1,15,16
 595 54 595 54 539.5 19 c 128,-1,17
 484 -16 484 -16 433 -16 c 128,-1,18
 382 -16 382 -16 340 19 c 128,-1,19
 298 54 298 54 276 112 c 1,20,-1
 266 112 l 1,21,-1
 169 -384 l 1,22,-1
 41 -384 l 1,23,-1
 315 1024 l 1,24,-1
 443 1024 l 1,25,-1
 315 367 l 2,26,27
 299 285 299 285 299 248 c 0,0,1
EndSplineSet
EndChar

StartChar: paragraph
Encoding: 182 182 120
Width: 1024
Flags: W
LayerCount: 2
Fore
SplineSet
750 1288 m 1,0,-1
 500 0 l 1,1,-1
 372 0 l 1,2,-1
 499 655 l 1,3,4
 403 681 403 681 347 755.5 c 128,-1,5
 291 830 291 830 291 939 c 0,6,7
 291 1110 291 1110 398 1235.5 c 128,-1,8
 505 1361 505 1361 650 1395 c 0,9,10
 708 1408 708 1408 837 1408 c 2,11,-1
 1030 1408 l 1,12,-1
 756 0 l 1,13,-1
 628 0 l 1,14,-1
 878 1288 l 1,15,-1
 750 1288 l 1,0,-1
EndSplineSet
EndChar

StartChar: periodcentered
Encoding: 183 183 121
Width: 1024
Flags: W
LayerCount: 2
Fore
SplineSet
362 672 m 0,0,1
 362 741 362 741 411 794.5 c 128,-1,2
 460 848 460 848 537 848 c 0,3,4
 592 848 592 848 624.5 817.5 c 128,-1,5
 657 787 657 787 657 736 c 0,6,7
 657 668 657 668 608 614 c 128,-1,8
 559 560 559 560 481 560 c 0,9,10
 426 560 426 560 394 590.5 c 128,-1,11
 362 621 362 621 362 672 c 0,0,1
EndSplineSet
EndChar

StartChar: cedilla
Encoding: 184 184 122
Width: 1024
Flags: W
LayerCount: 2
Fore
SplineSet
507 -105 m 2,0,1
 499 -147 499 -147 492.5 -170 c 128,-1,2
 486 -193 486 -193 466.5 -233 c 128,-1,3
 447 -273 447 -273 416 -305 c 0,4,5
 328 -400 328 -400 193 -400 c 0,6,7
 146 -400 146 -400 69 -383 c 1,8,-1
 92 -260 l 1,9,10
 176 -280 176 -280 217 -280 c 0,11,12
 283 -280 283 -280 325 -235 c 0,13,14
 341 -218 341 -218 352.5 -194.5 c 128,-1,15
 364 -171 364 -171 368.5 -154 c 128,-1,16
 373 -137 373 -137 379 -105 c 2,17,-1
 399 0 l 1,18,-1
 527 0 l 1,19,-1
 507 -105 l 2,0,1
EndSplineSet
EndChar

StartChar: uni00B9
Encoding: 185 185 123
Width: 1024
Flags: W
LayerCount: 2
Fore
SplineSet
691 1536 m 1,0,-1
 798 1536 l 1,1,-1
 649 768 l 1,2,-1
 521 768 l 1,3,-1
 640 1378 l 1,4,-1
 630 1378 l 1,5,-1
 358 1246 l 1,6,-1
 384 1380 l 1,7,-1
 691 1536 l 1,0,-1
EndSplineSet
EndChar

StartChar: ordmasculine
Encoding: 186 186 124
Width: 1024
Flags: W
LayerCount: 2
Fore
SplineSet
653 1552 m 0,0,1
 870 1552 870 1552 870 1313 c 0,2,3
 870 1252 870 1252 851 1152 c 0,4,5
 845 1119 845 1119 839.5 1096 c 128,-1,6
 834 1073 834 1073 820 1028 c 128,-1,7
 806 983 806 983 790 950 c 128,-1,8
 774 917 774 917 745.5 877.5 c 128,-1,9
 717 838 717 838 684 812.5 c 128,-1,10
 651 787 651 787 602.5 769.5 c 128,-1,11
 554 752 554 752 497 752 c 0,12,13
 280 752 280 752 280 991 c 0,14,15
 280 1052 280 1052 299 1152 c 0,16,17
 305 1185 305 1185 310.5 1208 c 128,-1,18
 316 1231 316 1231 330 1276 c 128,-1,19
 344 1321 344 1321 360 1354 c 128,-1,20
 376 1387 376 1387 404.5 1426.5 c 128,-1,21
 433 1466 433 1466 466 1491.5 c 128,-1,22
 499 1517 499 1517 547.5 1534.5 c 128,-1,23
 596 1552 596 1552 653 1552 c 0,0,1
427 1152 m 0,24,25
 409 1058 409 1058 409 1008 c 0,26,27
 409 872 409 872 520 872 c 0,28,29
 560 872 560 872 592 890 c 128,-1,30
 624 908 624 908 644 933 c 128,-1,31
 664 958 664 958 680.5 999.5 c 128,-1,32
 697 1041 697 1041 705.5 1073.5 c 128,-1,33
 714 1106 714 1106 723 1152 c 0,34,35
 741 1246 741 1246 741 1296 c 0,36,37
 741 1432 741 1432 629 1432 c 0,38,39
 589 1432 589 1432 557 1414 c 128,-1,40
 525 1396 525 1396 505 1371 c 128,-1,41
 485 1346 485 1346 468.5 1304.5 c 128,-1,42
 452 1263 452 1263 444 1231 c 128,-1,43
 436 1199 436 1199 427 1152 c 0,24,25
EndSplineSet
EndChar

StartChar: guillemotright
Encoding: 187 187 125
Width: 1024
Flags: W
LayerCount: 2
Fore
SplineSet
872 581 m 1,0,-1
 648 971 l 1,1,-1
 765 1039 l 1,2,-1
 1003 610 l 1,3,-1
 989 542 l 1,4,-1
 585 113 l 1,5,-1
 494 181 l 1,6,-1
 870 571 l 1,7,-1
 872 581 l 1,0,-1
488 581 m 1,8,-1
 264 971 l 1,9,-1
 381 1039 l 1,10,-1
 619 610 l 1,11,-1
 605 542 l 1,12,-1
 201 113 l 1,13,-1
 110 181 l 1,14,-1
 486 571 l 1,15,-1
 488 581 l 1,8,-1
EndSplineSet
EndChar

StartChar: onequarter
Encoding: 188 188 126
Width: 1024
Flags: W
LayerCount: 2
Fore
SplineSet
563 1536 m 1,0,-1
 671 1536 l 1,1,-1
 521 768 l 1,2,-1
 393 768 l 1,3,-1
 512 1378 l 1,4,-1
 502 1378 l 1,5,-1
 230 1246 l 1,6,-1
 256 1380 l 1,7,-1
 563 1536 l 1,0,-1
859 -128 m 1,8,-1
 731 -128 l 1,9,-1
 781 128 l 1,10,-1
 397 128 l 1,11,-1
 411 200 l 1,12,-1
 574 640 l 1,13,-1
 695 640 l 1,14,-1
 551 248 l 1,15,-1
 804 248 l 1,16,-1
 880 640 l 1,17,-1
 1008 640 l 1,18,-1
 859 -128 l 1,8,-1
EndSplineSet
EndChar

StartChar: onehalf
Encoding: 189 189 127
Width: 1024
Flags: W
LayerCount: 2
Fore
SplineSet
495 629 m 1,0,1
 632 656 632 656 743 656 c 0,2,3
 862 656 862 656 922.5 603 c 128,-1,4
 983 550 983 550 983 467 c 0,5,6
 983 270 983 270 707 143 c 0,7,8
 599 93 599 93 562 66 c 0,9,10
 524 37 524 37 505 2 c 1,11,-1
 503 -8 l 1,12,-1
 883 -8 l 1,13,-1
 860 -128 l 1,14,-1
 342 -128 l 1,15,-1
 354 -68 l 2,16,17
 393 131 393 131 655 245 c 0,18,19
 695 262 695 262 722.5 277 c 128,-1,20
 750 292 750 292 783.5 317 c 128,-1,21
 817 342 817 342 835 374.5 c 128,-1,22
 853 407 853 407 853 446 c 0,23,24
 853 536 853 536 720 536 c 0,25,26
 613 536 613 536 472 509 c 1,27,-1
 495 629 l 1,0,1
563 1536 m 1,28,-1
 671 1536 l 1,29,-1
 521 768 l 1,30,-1
 393 768 l 1,31,-1
 512 1378 l 1,32,-1
 502 1378 l 1,33,-1
 230 1246 l 1,34,-1
 256 1380 l 1,35,-1
 563 1536 l 1,28,-1
EndSplineSet
EndChar

StartChar: threequarters
Encoding: 190 190 128
Width: 1024
Flags: W
LayerCount: 2
Fore
SplineSet
628 1150 m 1,0,1
 705 1105 705 1105 705 1020 c 0,2,3
 705 910 705 910 610.5 831 c 128,-1,4
 516 752 516 752 374 752 c 0,5,6
 270 752 270 752 135 767 c 1,7,-1
 158 887 l 1,8,9
 312 872 312 872 398 872 c 0,10,11
 489 872 489 872 532 910.5 c 128,-1,12
 575 949 575 949 575 1003 c 0,13,14
 575 1036 575 1036 552.5 1058 c 128,-1,15
 530 1080 530 1080 495 1087 c 0,16,17
 470 1092 470 1092 404 1092 c 2,18,-1
 326 1092 l 1,19,-1
 350 1212 l 1,20,-1
 428 1212 l 2,21,22
 486 1212 486 1212 517 1218 c 0,23,24
 566 1228 566 1228 599 1261 c 128,-1,25
 632 1294 632 1294 632 1346 c 0,26,27
 632 1432 632 1432 504 1432 c 0,28,29
 436 1432 436 1432 271 1415 c 1,30,-1
 294 1535 l 1,31,32
 430 1552 430 1552 528 1552 c 0,33,34
 638 1552 638 1552 700 1503 c 128,-1,35
 762 1454 762 1454 762 1369 c 0,36,37
 762 1230 762 1230 629 1160 c 1,38,-1
 628 1150 l 1,0,1
859 -128 m 1,39,-1
 731 -128 l 1,40,-1
 781 128 l 1,41,-1
 397 128 l 1,42,-1
 411 200 l 1,43,-1
 574 640 l 1,44,-1
 695 640 l 1,45,-1
 551 248 l 1,46,-1
 804 248 l 1,47,-1
 880 640 l 1,48,-1
 1008 640 l 1,49,-1
 859 -128 l 1,39,-1
EndSplineSet
EndChar

StartChar: questiondown
Encoding: 191 191 129
Width: 1024
Flags: W
LayerCount: 2
Fore
SplineSet
783 1056 m 0,0,1
 783 987 783 987 735 933.5 c 128,-1,2
 687 880 687 880 607 880 c 0,3,4
 552 880 552 880 520 910.5 c 128,-1,5
 488 941 488 941 488 992 c 0,6,7
 488 1060 488 1060 536.5 1114 c 128,-1,8
 585 1168 585 1168 663 1168 c 0,9,10
 718 1168 718 1168 750.5 1137.5 c 128,-1,11
 783 1107 783 1107 783 1056 c 0,0,1
624 640 m 1,12,13
 609 561 609 561 576.5 496.5 c 128,-1,14
 544 432 544 432 473 371 c 0,15,16
 423 328 423 328 398.5 306 c 128,-1,17
 374 284 374 284 337 243.5 c 128,-1,18
 300 203 300 203 282.5 171.5 c 128,-1,19
 265 140 265 140 251 95 c 128,-1,20
 237 50 237 50 237 2 c 0,21,22
 237 -152 237 -152 448 -152 c 0,23,24
 542 -152 542 -152 712 -115 c 1,25,-1
 688 -235 l 1,26,27
 522 -272 522 -272 425 -272 c 0,28,29
 269 -272 269 -272 188 -206 c 128,-1,30
 107 -140 107 -140 107 -20 c 0,31,32
 107 57 107 57 129 124 c 128,-1,33
 151 191 151 191 196.5 251 c 128,-1,34
 242 311 242 311 283.5 352 c 128,-1,35
 325 393 325 393 393 451 c 0,36,37
 430 483 430 483 453 519.5 c 128,-1,38
 476 556 476 556 482.5 578.5 c 128,-1,39
 489 601 489 601 496 640 c 1,40,-1
 624 640 l 1,12,13
EndSplineSet
EndChar

StartChar: Aring
Encoding: 197 197 135
Width: 1024
Flags: W
LayerCount: 2
Fore
SplineSet
773 1764 m 0,0,1
 860 1764 860 1764 910.5 1714 c 128,-1,2
 961 1664 961 1664 961 1584 c 0,3,4
 961 1500 961 1500 916.5 1433.5 c 128,-1,5
 872 1367 872 1367 801 1334 c 1,6,7
 929 940 929 940 929 433 c 0,8,9
 929 225 929 225 909 0 c 1,10,-1
 774 0 l 1,11,12
 794 181 794 181 794 388 c 1,13,-1
 228 388 l 1,14,15
 218 359 218 359 195.5 297 c 128,-1,16
 173 235 173 235 159.5 196.5 c 128,-1,17
 146 158 146 158 128.5 103 c 128,-1,18
 111 48 111 48 98 0 c 1,19,-1
 -37 0 l 1,20,21
 198 782 198 782 588 1329 c 1,22,23
 496 1377 496 1377 496 1488 c 0,24,25
 496 1604 496 1604 579 1684 c 128,-1,26
 662 1764 662 1764 773 1764 c 0,0,1
797 508 m 1,27,28
 787 752 787 752 763.5 937.5 c 128,-1,29
 740 1123 740 1123 690 1279 c 1,30,-1
 680 1279 l 1,31,32
 569 1123 569 1123 474 938 c 128,-1,33
 379 753 379 753 273 508 c 1,34,-1
 797 508 l 1,27,28
704 1408 m 0,35,36
 765 1408 765 1408 808.5 1452 c 128,-1,37
 852 1496 852 1496 852 1570 c 0,38,39
 852 1615 852 1615 826 1639.5 c 128,-1,40
 800 1664 800 1664 754 1664 c 0,41,42
 693 1664 693 1664 649 1619.5 c 128,-1,43
 605 1575 605 1575 605 1502 c 0,44,45
 605 1457 605 1457 631.5 1432.5 c 128,-1,46
 658 1408 658 1408 704 1408 c 0,35,36
EndSplineSet
EndChar

StartChar: AE
Encoding: 198 198 136
Width: 1024
Flags: W
LayerCount: 2
Fore
SplineSet
575 388 m 1,0,-1
 186 388 l 1,1,2
 129 192 129 192 98 0 c 1,3,-1
 -37 0 l 1,4,5
 121 754 121 754 531 1408 c 1,6,-1
 1158 1408 l 1,7,-1
 1134 1288 l 1,8,-1
 878 1288 l 1,9,-1
 777 764 l 1,10,-1
 1033 764 l 1,11,-1
 1009 644 l 1,12,-1
 753 644 l 1,13,-1
 651 120 l 1,14,-1
 907 120 l 1,15,-1
 884 0 l 1,16,-1
 500 0 l 1,17,-1
 575 388 l 1,0,-1
599 508 m 1,18,-1
 750 1288 l 1,19,-1
 580 1288 l 1,20,21
 389 967 389 967 222 508 c 1,22,-1
 599 508 l 1,18,-1
EndSplineSet
EndChar

StartChar: Ccedilla
Encoding: 199 199 137
Width: 1024
Flags: W
LayerCount: 2
Fore
SplineSet
203 432 m 0,0,1
 203 274 203 274 277.5 189 c 128,-1,2
 352 104 352 104 523 104 c 0,3,4
 680 104 680 104 911 141 c 1,5,-1
 888 21 l 1,6,7
 745 -3 745 -3 626 -11 c 1,8,-1
 607 -108 l 2,9,10
 599 -150 599 -150 592.5 -173 c 128,-1,11
 586 -196 586 -196 566.5 -236 c 128,-1,12
 547 -276 547 -276 516 -308 c 0,13,14
 428 -403 428 -403 294 -403 c 0,15,16
 246 -403 246 -403 169 -386 c 1,17,-1
 193 -263 l 1,18,19
 277 -283 277 -283 317 -283 c 0,20,21
 384 -283 384 -283 426 -238 c 0,22,23
 442 -221 442 -221 453 -197.5 c 128,-1,24
 464 -174 464 -174 468 -158 c 128,-1,25
 472 -142 472 -142 479 -108 c 2,26,-1
 497 -16 l 1,27,28
 281 -15 281 -15 176.5 98 c 128,-1,29
 72 211 72 211 72 410 c 0,30,31
 72 519 72 519 109 704 c 0,32,33
 150 919 150 919 206 1044 c 0,34,35
 286 1220 286 1220 429.5 1322 c 128,-1,36
 573 1424 573 1424 780 1424 c 0,37,38
 944 1424 944 1424 1125 1395 c 1,39,-1
 1102 1275 l 1,40,41
 914 1304 914 1304 756 1304 c 0,42,43
 454 1304 454 1304 325 1016 c 0,44,45
 277 909 277 909 237 704 c 0,46,47
 203 526 203 526 203 432 c 0,0,1
EndSplineSet
EndChar

StartChar: Eth
Encoding: 208 208 146
Width: 1024
Flags: W
LayerCount: 2
Fore
SplineSet
938 947 m 0,0,1
 938 1104 938 1104 859.5 1196 c 128,-1,2
 781 1288 781 1288 614 1288 c 2,3,-1
 494 1288 l 1,4,-1
 393 764 l 1,5,-1
 649 764 l 1,6,-1
 625 644 l 1,7,-1
 369 644 l 1,8,-1
 267 120 l 1,9,-1
 387 120 l 2,10,11
 597 120 597 120 743 278 c 0,12,13
 807 352 807 352 843 452 c 128,-1,14
 879 552 879 552 909 704 c 0,15,16
 938 854 938 854 938 947 c 0,0,1
638 1408 m 2,17,18
 805 1408 805 1408 923 1317 c 0,19,20
 1069 1203 1069 1203 1069 961 c 0,21,22
 1069 872 1069 872 1037 704 c 0,23,24
 1001 516 1001 516 949 400 c 0,25,26
 912 319 912 319 856.5 248.5 c 128,-1,27
 801 178 801 178 728.5 121.5 c 128,-1,28
 656 65 656 65 561.5 32.5 c 128,-1,29
 467 0 467 0 364 0 c 2,30,-1
 116 0 l 1,31,-1
 241 644 l 1,32,-1
 113 644 l 1,33,-1
 137 764 l 1,34,-1
 265 764 l 1,35,-1
 390 1408 l 1,36,-1
 638 1408 l 2,17,18
EndSplineSet
EndChar

StartChar: multiply
Encoding: 215 215 153
Width: 1024
Flags: W
LayerCount: 2
Fore
SplineSet
709 640 m 1,0,-1
 932 368 l 1,1,-1
 822 286 l 1,2,-1
 608 555 l 1,3,-1
 565 640 l 1,4,-1
 555 640 l 1,5,-1
 480 555 l 1,6,-1
 162 286 l 1,7,-1
 84 368 l 1,8,-1
 411 640 l 1,9,-1
 508 699 l 1,10,-1
 510 709 l 1,11,-1
 436 768 l 1,12,-1
 214 1040 l 1,13,-1
 324 1122 l 1,14,-1
 538 853 l 1,15,-1
 580 768 l 1,16,-1
 590 768 l 1,17,-1
 666 853 l 1,18,-1
 984 1122 l 1,19,-1
 1062 1040 l 1,20,-1
 734 768 l 1,21,-1
 638 709 l 1,22,-1
 636 699 l 1,23,-1
 709 640 l 1,0,-1
EndSplineSet
EndChar

StartChar: Oslash
Encoding: 216 216 154
Width: 1024
Flags: W
LayerCount: 2
Fore
SplineSet
246 215 m 1,0,1
 314 104 314 104 456 104 c 0,2,3
 578 104 578 104 673 182 c 128,-1,4
 768 260 768 260 821 382 c 0,5,6
 867 489 867 489 909 704 c 0,7,8
 947 904 947 904 947 1000 c 0,9,10
 947 1055 947 1055 939 1094 c 1,11,-1
 246 215 l 1,0,1
1040 1222 m 1,12,13
 1077 1135 1077 1135 1077 1020 c 0,14,15
 1077 906 1077 906 1037 704 c 0,16,17
 1022 627 1022 627 1013 586 c 128,-1,18
 1004 545 1004 545 984.5 477.5 c 128,-1,19
 965 410 965 410 941 355 c 0,20,21
 872 193 872 193 737.5 88.5 c 128,-1,22
 603 -16 603 -16 433 -16 c 0,23,24
 255 -16 255 -16 157 103 c 1,25,-1
 56 -26 l 1,26,-1
 -20 26 l 1,27,-1
 106 186 l 1,28,29
 68 275 68 275 68 388 c 0,30,31
 68 497 68 497 109 704 c 0,32,33
 124 781 124 781 133 822 c 128,-1,34
 142 863 142 863 161.5 930.5 c 128,-1,35
 181 998 181 998 205 1053 c 0,36,37
 274 1215 274 1215 408.5 1319.5 c 128,-1,38
 543 1424 543 1424 713 1424 c 0,39,40
 891 1424 891 1424 989 1305 c 1,41,-1
 1090 1434 l 1,42,-1
 1166 1382 l 1,43,-1
 1040 1222 l 1,12,13
689 1304 m 0,44,45
 567 1304 567 1304 472 1226 c 128,-1,46
 377 1148 377 1148 324 1026 c 0,47,48
 280 923 280 923 237 704 c 0,49,50
 198 499 198 499 198 408 c 0,51,52
 198 357 198 357 207 314 c 1,53,-1
 900 1193 l 1,54,55
 832 1304 832 1304 689 1304 c 0,44,45
EndSplineSet
EndChar

StartChar: Thorn
Encoding: 222 222 160
Width: 1024
Flags: W
LayerCount: 2
Fore
SplineSet
535 504 m 2,0,1
 642 504 642 504 689 514 c 0,2,3
 786 535 786 535 857 624 c 128,-1,4
 928 713 928 713 928 831 c 0,5,6
 928 906 928 906 890.5 956.5 c 128,-1,7
 853 1007 853 1007 788 1022 c 0,8,9
 746 1032 746 1032 638 1032 c 2,10,-1
 445 1032 l 1,11,-1
 342 504 l 1,12,-1
 535 504 l 2,0,1
244 0 m 1,13,-1
 116 0 l 1,14,-1
 390 1408 l 1,15,-1
 518 1408 l 1,16,-1
 468 1152 l 1,17,-1
 661 1152 l 2,18,19
 790 1152 790 1152 842 1139 c 0,20,21
 941 1115 941 1115 999.5 1039.5 c 128,-1,22
 1058 964 1058 964 1058 853 c 0,23,24
 1058 683 1058 683 950.5 556.5 c 128,-1,25
 843 430 843 430 698 397 c 0,26,27
 640 384 640 384 512 384 c 2,28,-1
 319 384 l 1,29,-1
 244 0 l 1,13,-1
EndSplineSet
EndChar

StartChar: germandbls
Encoding: 223 223 161
Width: 1024
Flags: W
LayerCount: 2
Fore
SplineSet
752 833 m 1,0,1
 827 805 827 805 859.5 750 c 128,-1,2
 892 695 892 695 892 607 c 0,3,4
 892 538 892 538 873 438 c 0,5,6
 832 229 832 229 732 106.5 c 128,-1,7
 632 -16 632 -16 469 -16 c 0,8,9
 425 -16 425 -16 363 -5 c 1,10,-1
 402 113 l 1,11,12
 447 104 447 104 472 104 c 0,13,14
 537 104 537 104 585 130.5 c 128,-1,15
 633 157 633 157 664 207.5 c 128,-1,16
 695 258 695 258 713 311.5 c 128,-1,17
 731 365 731 365 745 438 c 0,18,19
 760 512 760 512 760 573 c 0,20,21
 760 772 760 772 572 772 c 1,22,-1
 595 892 l 1,23,24
 651 892 651 892 693.5 918.5 c 128,-1,25
 736 945 736 945 759 987.5 c 128,-1,26
 782 1030 782 1030 793 1075 c 128,-1,27
 804 1120 804 1120 804 1164 c 0,28,29
 804 1231 804 1231 771 1267.5 c 128,-1,30
 738 1304 738 1304 675 1304 c 0,31,32
 574 1304 574 1304 525 1248 c 128,-1,33
 476 1192 476 1192 454 1078 c 2,34,-1
 244 0 l 1,35,-1
 116 0 l 1,36,-1
 326 1078 l 2,37,38
 357 1235 357 1235 452.5 1329.5 c 128,-1,39
 548 1424 548 1424 699 1424 c 0,40,41
 810 1424 810 1424 871.5 1357 c 128,-1,42
 933 1290 933 1290 933 1179 c 0,43,44
 933 1115 933 1115 915.5 1050 c 128,-1,45
 898 985 898 985 856 926 c 128,-1,46
 814 867 814 867 754 843 c 1,47,-1
 752 833 l 1,0,1
EndSplineSet
EndChar

StartChar: agrave
Encoding: 224 224 162
Width: 1024
Flags: W
LayerCount: 2
Fore
SplineSet
728 512 m 1,0,-1
 532 512 l 2,1,2
 495 512 495 512 474 510 c 128,-1,3
 453 508 453 508 419 495.5 c 128,-1,4
 385 483 385 483 357 458 c 0,5,6
 317 422 317 422 291.5 367 c 128,-1,7
 266 312 266 312 266 254 c 0,8,9
 266 187 266 187 304 145.5 c 128,-1,10
 342 104 342 104 412 104 c 0,11,12
 460 104 460 104 500.5 118 c 128,-1,13
 541 132 541 132 569.5 153.5 c 128,-1,14
 598 175 598 175 622 208.5 c 128,-1,15
 646 242 646 242 660.5 271.5 c 128,-1,16
 675 301 675 301 688 342 c 128,-1,17
 701 383 701 383 707 409 c 128,-1,18
 713 435 713 435 720 471 c 2,19,-1
 728 512 l 1,0,-1
670 1040 m 0,20,21
 796 1040 796 1040 854 987 c 0,22,23
 914 931 914 931 914 848 c 0,24,25
 914 818 914 818 902 749 c 2,26,-1
 756 0 l 1,27,-1
 628 0 l 1,28,-1
 652 123 l 1,29,-1
 642 123 l 1,30,31
 514 -16 514 -16 365 -16 c 0,32,33
 263 -16 263 -16 199 51.5 c 128,-1,34
 135 119 135 119 135 228 c 0,35,36
 135 310 135 310 172.5 393.5 c 128,-1,37
 210 477 210 477 276 533 c 0,38,39
 314 564 314 564 354 584 c 128,-1,40
 394 604 394 604 434.5 611.5 c 128,-1,41
 475 619 475 619 498 620.5 c 128,-1,42
 521 622 521 622 555 622 c 2,43,-1
 749 622 l 1,44,-1
 773 744 l 2,45,46
 784 806 784 806 784 825 c 0,47,48
 784 873 784 873 752.5 896.5 c 128,-1,49
 721 920 721 920 647 920 c 0,50,51
 527 920 527 920 355 899 c 1,52,-1
 378 1021 l 1,53,54
 547 1040 547 1040 670 1040 c 0,20,21
748 1152 m 1,55,-1
 610 1152 l 1,56,-1
 494 1408 l 1,57,-1
 632 1408 l 1,58,-1
 748 1152 l 1,55,-1
EndSplineSet
EndChar

StartChar: aacute
Encoding: 225 225 163
Width: 1024
Flags: W
LayerCount: 2
Fore
SplineSet
728 512 m 1,0,-1
 532 512 l 2,1,2
 495 512 495 512 474 510 c 128,-1,3
 453 508 453 508 419 495.5 c 128,-1,4
 385 483 385 483 357 458 c 0,5,6
 317 422 317 422 291.5 367 c 128,-1,7
 266 312 266 312 266 254 c 0,8,9
 266 187 266 187 304 145.5 c 128,-1,10
 342 104 342 104 412 104 c 0,11,12
 460 104 460 104 500.5 118 c 128,-1,13
 541 132 541 132 569.5 153.5 c 128,-1,14
 598 175 598 175 622 208.5 c 128,-1,15
 646 242 646 242 660.5 271.5 c 128,-1,16
 675 301 675 301 688 342 c 128,-1,17
 701 383 701 383 707 409 c 128,-1,18
 713 435 713 435 720 471 c 2,19,-1
 728 512 l 1,0,-1
670 1040 m 0,20,21
 796 1040 796 1040 854 987 c 0,22,23
 914 931 914 931 914 848 c 0,24,25
 914 818 914 818 902 749 c 2,26,-1
 756 0 l 1,27,-1
 628 0 l 1,28,-1
 652 123 l 1,29,-1
 642 123 l 1,30,31
 514 -16 514 -16 365 -16 c 0,32,33
 263 -16 263 -16 199 51.5 c 128,-1,34
 135 119 135 119 135 228 c 0,35,36
 135 310 135 310 172.5 393.5 c 128,-1,37
 210 477 210 477 276 533 c 0,38,39
 314 564 314 564 354 584 c 128,-1,40
 394 604 394 604 434.5 611.5 c 128,-1,41
 475 619 475 619 498 620.5 c 128,-1,42
 521 622 521 622 555 622 c 2,43,-1
 749 622 l 1,44,-1
 773 744 l 2,45,46
 784 806 784 806 784 825 c 0,47,48
 784 873 784 873 752.5 896.5 c 128,-1,49
 721 920 721 920 647 920 c 0,50,51
 527 920 527 920 355 899 c 1,52,-1
 378 1021 l 1,53,54
 547 1040 547 1040 670 1040 c 0,20,21
135 228 m 1024,55,-1
572 1152 m 1,56,-1
 788 1408 l 1,57,-1
 926 1408 l 1,58,-1
 710 1152 l 1,59,-1
 572 1152 l 1,56,-1
EndSplineSet
EndChar

StartChar: acircumflex
Encoding: 226 226 164
Width: 1024
Flags: W
LayerCount: 2
Fore
SplineSet
728 512 m 1,0,-1
 532 512 l 2,1,2
 495 512 495 512 474 510 c 128,-1,3
 453 508 453 508 419 495.5 c 128,-1,4
 385 483 385 483 357 458 c 0,5,6
 317 422 317 422 291.5 367 c 128,-1,7
 266 312 266 312 266 254 c 0,8,9
 266 187 266 187 304 145.5 c 128,-1,10
 342 104 342 104 412 104 c 0,11,12
 460 104 460 104 500.5 118 c 128,-1,13
 541 132 541 132 569.5 153.5 c 128,-1,14
 598 175 598 175 622 208.5 c 128,-1,15
 646 242 646 242 660.5 271.5 c 128,-1,16
 675 301 675 301 688 342 c 128,-1,17
 701 383 701 383 707 409 c 128,-1,18
 713 435 713 435 720 471 c 2,19,-1
 728 512 l 1,0,-1
670 1040 m 0,20,21
 796 1040 796 1040 854 987 c 0,22,23
 914 931 914 931 914 848 c 0,24,25
 914 818 914 818 902 749 c 2,26,-1
 756 0 l 1,27,-1
 628 0 l 1,28,-1
 652 123 l 1,29,-1
 642 123 l 1,30,31
 514 -16 514 -16 365 -16 c 0,32,33
 263 -16 263 -16 199 51.5 c 128,-1,34
 135 119 135 119 135 228 c 0,35,36
 135 310 135 310 172.5 393.5 c 128,-1,37
 210 477 210 477 276 533 c 0,38,39
 314 564 314 564 354 584 c 128,-1,40
 394 604 394 604 434.5 611.5 c 128,-1,41
 475 619 475 619 498 620.5 c 128,-1,42
 521 622 521 622 555 622 c 2,43,-1
 749 622 l 1,44,-1
 773 744 l 2,45,46
 784 806 784 806 784 825 c 0,47,48
 784 873 784 873 752.5 896.5 c 128,-1,49
 721 920 721 920 647 920 c 0,50,51
 527 920 527 920 355 899 c 1,52,-1
 378 1021 l 1,53,54
 547 1040 547 1040 670 1040 c 0,20,21
631 1408 m 1,55,-1
 789 1408 l 1,56,-1
 1036 1152 l 1,57,-1
 878 1152 l 1,58,-1
 692 1316 l 1,59,-1
 442 1152 l 1,60,-1
 284 1152 l 1,61,-1
 631 1408 l 1,55,-1
EndSplineSet
EndChar

StartChar: atilde
Encoding: 227 227 165
Width: 1024
Flags: W
LayerCount: 2
Fore
SplineSet
728 512 m 1,0,-1
 532 512 l 2,1,2
 495 512 495 512 474 510 c 128,-1,3
 453 508 453 508 419 495.5 c 128,-1,4
 385 483 385 483 357 458 c 0,5,6
 317 422 317 422 291.5 367 c 128,-1,7
 266 312 266 312 266 254 c 0,8,9
 266 187 266 187 304 145.5 c 128,-1,10
 342 104 342 104 412 104 c 0,11,12
 460 104 460 104 500.5 118 c 128,-1,13
 541 132 541 132 569.5 153.5 c 128,-1,14
 598 175 598 175 622 208.5 c 128,-1,15
 646 242 646 242 660.5 271.5 c 128,-1,16
 675 301 675 301 688 342 c 128,-1,17
 701 383 701 383 707 409 c 128,-1,18
 713 435 713 435 720 471 c 2,19,-1
 728 512 l 1,0,-1
670 1040 m 0,20,21
 796 1040 796 1040 854 987 c 0,22,23
 914 931 914 931 914 848 c 0,24,25
 914 818 914 818 902 749 c 2,26,-1
 756 0 l 1,27,-1
 628 0 l 1,28,-1
 652 123 l 1,29,-1
 642 123 l 1,30,31
 514 -16 514 -16 365 -16 c 0,32,33
 263 -16 263 -16 199 51.5 c 128,-1,34
 135 119 135 119 135 228 c 0,35,36
 135 310 135 310 172.5 393.5 c 128,-1,37
 210 477 210 477 276 533 c 0,38,39
 314 564 314 564 354 584 c 128,-1,40
 394 604 394 604 434.5 611.5 c 128,-1,41
 475 619 475 619 498 620.5 c 128,-1,42
 521 622 521 622 555 622 c 2,43,-1
 749 622 l 1,44,-1
 773 744 l 2,45,46
 784 806 784 806 784 825 c 0,47,48
 784 873 784 873 752.5 896.5 c 128,-1,49
 721 920 721 920 647 920 c 0,50,51
 527 920 527 920 355 899 c 1,52,-1
 378 1021 l 1,53,54
 547 1040 547 1040 670 1040 c 0,20,21
558 1284 m 0,55,56
 496 1284 496 1284 469 1171 c 1,57,-1
 342 1177 l 1,58,59
 364 1273 364 1273 427 1338.5 c 128,-1,60
 490 1404 490 1404 581 1404 c 0,61,62
 621 1404 621 1404 653 1391 c 128,-1,63
 685 1378 685 1378 704 1359 c 128,-1,64
 723 1340 723 1340 739 1321 c 128,-1,65
 755 1302 755 1302 773 1289 c 128,-1,66
 791 1276 791 1276 812 1276 c 0,67,68
 874 1276 874 1276 901 1389 c 1,69,-1
 1028 1383 l 1,70,71
 1007 1288 1007 1288 943.5 1222 c 128,-1,72
 880 1156 880 1156 789 1156 c 0,73,74
 749 1156 749 1156 717 1169 c 128,-1,75
 685 1182 685 1182 666 1201 c 128,-1,76
 647 1220 647 1220 631 1239 c 128,-1,77
 615 1258 615 1258 597 1271 c 128,-1,78
 579 1284 579 1284 558 1284 c 0,55,56
EndSplineSet
EndChar

StartChar: adieresis
Encoding: 228 228 166
Width: 1024
Flags: W
LayerCount: 2
Fore
SplineSet
728 512 m 1,0,-1
 532 512 l 2,1,2
 495 512 495 512 474 510 c 128,-1,3
 453 508 453 508 419 495.5 c 128,-1,4
 385 483 385 483 357 458 c 0,5,6
 317 422 317 422 291.5 367 c 128,-1,7
 266 312 266 312 266 254 c 0,8,9
 266 187 266 187 304 145.5 c 128,-1,10
 342 104 342 104 412 104 c 0,11,12
 460 104 460 104 500.5 118 c 128,-1,13
 541 132 541 132 569.5 153.5 c 128,-1,14
 598 175 598 175 622 208.5 c 128,-1,15
 646 242 646 242 660.5 271.5 c 128,-1,16
 675 301 675 301 688 342 c 128,-1,17
 701 383 701 383 707 409 c 128,-1,18
 713 435 713 435 720 471 c 2,19,-1
 728 512 l 1,0,-1
670 1040 m 0,20,21
 796 1040 796 1040 854 987 c 0,22,23
 914 931 914 931 914 848 c 0,24,25
 914 818 914 818 902 749 c 2,26,-1
 756 0 l 1,27,-1
 628 0 l 1,28,-1
 652 123 l 1,29,-1
 642 123 l 1,30,31
 514 -16 514 -16 365 -16 c 0,32,33
 263 -16 263 -16 199 51.5 c 128,-1,34
 135 119 135 119 135 228 c 0,35,36
 135 310 135 310 172.5 393.5 c 128,-1,37
 210 477 210 477 276 533 c 0,38,39
 314 564 314 564 354 584 c 128,-1,40
 394 604 394 604 434.5 611.5 c 128,-1,41
 475 619 475 619 498 620.5 c 128,-1,42
 521 622 521 622 555 622 c 2,43,-1
 749 622 l 1,44,-1
 773 744 l 2,45,46
 784 806 784 806 784 825 c 0,47,48
 784 873 784 873 752.5 896.5 c 128,-1,49
 721 920 721 920 647 920 c 0,50,51
 527 920 527 920 355 899 c 1,52,-1
 378 1021 l 1,53,54
 547 1040 547 1040 670 1040 c 0,20,21
801 1287 m 0,55,56
 801 1347 801 1347 841.5 1385.5 c 128,-1,57
 882 1424 882 1424 937 1424 c 0,58,59
 979 1424 979 1424 1004.5 1400 c 128,-1,60
 1030 1376 1030 1376 1030 1337 c 0,61,62
 1030 1277 1030 1277 989 1238.5 c 128,-1,63
 948 1200 948 1200 893 1200 c 0,64,65
 851 1200 851 1200 826 1224 c 128,-1,66
 801 1248 801 1248 801 1287 c 0,55,56
353 1287 m 0,67,68
 353 1347 353 1347 393.5 1385.5 c 128,-1,69
 434 1424 434 1424 489 1424 c 0,70,71
 531 1424 531 1424 556.5 1400 c 128,-1,72
 582 1376 582 1376 582 1337 c 0,73,74
 582 1277 582 1277 541 1238.5 c 128,-1,75
 500 1200 500 1200 445 1200 c 0,76,77
 403 1200 403 1200 378 1224 c 128,-1,78
 353 1248 353 1248 353 1287 c 0,67,68
EndSplineSet
EndChar

StartChar: aring
Encoding: 229 229 167
Width: 1024
Flags: W
LayerCount: 2
Fore
SplineSet
808 1017 m 1,0,1
 854 997 854 997 884 953.5 c 128,-1,2
 914 910 914 910 914 848 c 0,3,4
 914 818 914 818 902 749 c 2,5,-1
 756 0 l 1,6,-1
 628 0 l 1,7,-1
 652 123 l 1,8,-1
 642 123 l 1,9,10
 514 -16 514 -16 365 -16 c 0,11,12
 263 -16 263 -16 199 51.5 c 128,-1,13
 135 119 135 119 135 228 c 0,14,15
 135 311 135 311 172.5 394 c 128,-1,16
 210 477 210 477 276 533 c 0,17,18
 314 564 314 564 354 584 c 128,-1,19
 394 604 394 604 434.5 611.5 c 128,-1,20
 475 619 475 619 498 620.5 c 128,-1,21
 521 622 521 622 555 622 c 2,22,-1
 749 622 l 1,23,-1
 773 744 l 2,24,25
 784 806 784 806 784 825 c 0,26,27
 784 876 784 876 750.5 898 c 128,-1,28
 717 920 717 920 647 920 c 0,29,30
 527 920 527 920 355 899 c 1,31,-1
 378 1021 l 1,32,33
 421 1027 421 1027 452 1029 c 1,34,35
 430 1070 430 1070 430 1120 c 0,36,37
 430 1236 430 1236 513 1316 c 128,-1,38
 596 1396 596 1396 707 1396 c 0,39,40
 794 1396 794 1396 844.5 1346 c 128,-1,41
 895 1296 895 1296 895 1216 c 0,42,43
 895 1099 895 1099 808 1017 c 1,0,1
638 1040 m 0,44,45
 699 1040 699 1040 742.5 1084 c 128,-1,46
 786 1128 786 1128 786 1202 c 0,47,48
 786 1247 786 1247 760 1271.5 c 128,-1,49
 734 1296 734 1296 688 1296 c 0,50,51
 627 1296 627 1296 583.5 1252 c 128,-1,52
 540 1208 540 1208 540 1134 c 0,53,54
 540 1089 540 1089 566 1064.5 c 128,-1,55
 592 1040 592 1040 638 1040 c 0,44,45
728 512 m 1,56,-1
 532 512 l 2,57,58
 495 512 495 512 474 510 c 128,-1,59
 453 508 453 508 419 495.5 c 128,-1,60
 385 483 385 483 357 458 c 0,61,62
 316 422 316 422 291 368.5 c 128,-1,63
 266 315 266 315 266 254 c 0,64,65
 266 187 266 187 304 145.5 c 128,-1,66
 342 104 342 104 412 104 c 0,67,68
 460 104 460 104 500.5 118 c 128,-1,69
 541 132 541 132 569.5 153.5 c 128,-1,70
 598 175 598 175 622 208.5 c 128,-1,71
 646 242 646 242 660.5 271.5 c 128,-1,72
 675 301 675 301 688 342 c 128,-1,73
 701 383 701 383 707 409 c 128,-1,74
 713 435 713 435 720 471 c 2,75,-1
 728 512 l 1,56,-1
EndSplineSet
EndChar

StartChar: ae
Encoding: 230 230 168
Width: 1024
Flags: W
LayerCount: 2
Fore
SplineSet
218 466 m 0,0,1
 137 373 137 373 137 239 c 0,2,3
 137 180 137 180 159 142 c 128,-1,4
 181 104 181 104 228 104 c 0,5,6
 271 104 271 104 306.5 125 c 128,-1,7
 342 146 342 146 365 176 c 128,-1,8
 388 206 388 206 406.5 252 c 128,-1,9
 425 298 425 298 435 335.5 c 128,-1,10
 445 373 445 373 454 421 c 2,11,-1
 472 512 l 1,12,-1
 337 512 l 2,13,14
 290 512 290 512 266.5 503 c 128,-1,15
 243 494 243 494 218 466 c 0,0,1
852 1040 m 0,16,17
 922 1040 922 1040 968.5 1000 c 128,-1,18
 1015 960 1015 960 1033 903 c 128,-1,19
 1051 846 1051 846 1051 776 c 0,20,21
 1051 710 1051 710 1026 577 c 2,22,-1
 1014 512 l 1,23,-1
 600 512 l 1,24,-1
 591 469 l 2,25,26
 567 347 567 347 567 277 c 0,27,28
 567 104 567 104 712 104 c 0,29,30
 749 104 749 104 909 129 c 1,31,-1
 885 7 l 1,32,33
 736 -16 736 -16 686 -16 c 0,34,35
 516 -16 516 -16 473 148 c 1,36,-1
 463 148 l 1,37,38
 412 71 412 71 345.5 27.5 c 128,-1,39
 279 -16 279 -16 205 -16 c 0,40,41
 106 -16 106 -16 56.5 49.5 c 128,-1,42
 7 115 7 115 7 218 c 0,43,44
 7 347 7 347 71 458.5 c 128,-1,45
 135 570 135 570 232 611 c 0,46,47
 283 632 283 632 353 632 c 2,48,-1
 495 632 l 1,49,-1
 517 748 l 2,50,51
 527 796 527 796 527 825 c 0,52,53
 527 875 527 875 497 899.5 c 128,-1,54
 467 924 467 924 392 924 c 0,55,56
 320 924 320 924 164 904 c 1,57,-1
 187 1026 l 1,58,59
 341 1044 341 1044 415 1044 c 0,60,61
 455 1044 455 1044 482 1040 c 128,-1,62
 509 1036 509 1036 540.5 1023.5 c 128,-1,63
 572 1011 572 1011 594 981.5 c 128,-1,64
 616 952 616 952 629 907 c 1,65,-1
 639 907 l 1,66,67
 730 1040 730 1040 852 1040 c 0,16,17
923 766 m 0,68,69
 923 920 923 920 829 920 c 0,70,71
 779 920 779 920 737 877 c 128,-1,72
 695 834 695 834 668 773 c 0,73,74
 644 723 644 723 624 632 c 1,75,-1
 910 632 l 1,76,77
 923 710 923 710 923 766 c 0,68,69
EndSplineSet
EndChar

StartChar: ccedilla
Encoding: 231 231 169
Width: 1024
Flags: W
LayerCount: 2
Fore
SplineSet
608 -105 m 2,0,1
 600 -147 600 -147 593.5 -170 c 128,-1,2
 587 -193 587 -193 567.5 -233 c 128,-1,3
 548 -273 548 -273 517 -305 c 0,4,5
 429 -400 429 -400 294 -400 c 0,6,7
 247 -400 247 -400 170 -383 c 1,8,-1
 193 -260 l 1,9,10
 277 -280 277 -280 318 -280 c 0,11,12
 384 -280 384 -280 426 -235 c 0,13,14
 442 -218 442 -218 453.5 -194.5 c 128,-1,15
 465 -171 465 -171 469.5 -154 c 128,-1,16
 474 -137 474 -137 480 -105 c 2,17,-1
 497 -16 l 1,18,-1
 463 -16 l 2,19,20
 309 -16 309 -16 231.5 65 c 128,-1,21
 154 146 154 146 154 287 c 0,22,23
 154 358 154 358 184 512 c 0,24,25
 199 588 199 588 209.5 631 c 128,-1,26
 220 674 220 674 240.5 730.5 c 128,-1,27
 261 787 261 787 289 831 c 0,28,29
 420 1040 420 1040 668 1040 c 0,30,31
 769 1040 769 1040 935 1023 c 1,32,-1
 912 903 l 1,33,34
 744 920 744 920 645 920 c 0,35,36
 559 920 559 920 501.5 887.5 c 128,-1,37
 444 855 444 855 400 789 c 0,38,39
 377 755 377 755 359 703 c 128,-1,40
 341 651 341 651 333.5 617 c 128,-1,41
 326 583 326 583 312 512 c 0,42,43
 284 370 284 370 284 308 c 0,44,45
 284 104 284 104 486 104 c 0,46,47
 602 104 602 104 781 130 c 1,48,-1
 758 10 l 1,49,50
 681 -2 681 -2 627 -7 c 1,51,-1
 608 -105 l 2,0,1
EndSplineSet
EndChar

StartChar: egrave
Encoding: 232 232 170
Width: 1024
Flags: W
LayerCount: 2
Fore
SplineSet
792 745 m 0,0,1
 792 830 792 830 747.5 875 c 128,-1,2
 703 920 703 920 615 920 c 0,3,4
 543 920 543 920 486 888 c 128,-1,5
 429 856 429 856 396 799 c 0,6,7
 366 752 366 752 337 632 c 1,8,-1
 781 632 l 1,9,10
 792 705 792 705 792 745 c 0,0,1
283 301 m 0,11,12
 283 104 283 104 476 104 c 0,13,14
 593 104 593 104 780 125 c 1,15,-1
 757 5 l 1,16,17
 572 -16 572 -16 453 -16 c 0,18,19
 307 -16 307 -16 230 63.5 c 128,-1,20
 153 143 153 143 153 280 c 0,21,22
 153 347 153 347 184 512 c 0,23,24
 199 591 199 591 209 635.5 c 128,-1,25
 219 680 219 680 239 738 c 128,-1,26
 259 796 259 796 284 839 c 0,27,28
 335 928 335 928 428 984 c 128,-1,29
 521 1040 521 1040 638 1040 c 0,30,31
 770 1040 770 1040 845.5 967 c 128,-1,32
 921 894 921 894 921 761 c 0,33,34
 921 681 921 681 888 512 c 1,35,-1
 312 512 l 1,36,37
 283 359 283 359 283 301 c 0,11,12
748 1152 m 1,38,-1
 610 1152 l 1,39,-1
 494 1408 l 1,40,-1
 632 1408 l 1,41,-1
 748 1152 l 1,38,-1
EndSplineSet
EndChar

StartChar: eacute
Encoding: 233 233 171
Width: 1024
Flags: W
LayerCount: 2
Fore
SplineSet
792 745 m 0,0,1
 792 830 792 830 747.5 875 c 128,-1,2
 703 920 703 920 615 920 c 0,3,4
 543 920 543 920 486 888 c 128,-1,5
 429 856 429 856 396 799 c 0,6,7
 366 752 366 752 337 632 c 1,8,-1
 781 632 l 1,9,10
 792 705 792 705 792 745 c 0,0,1
283 301 m 0,11,12
 283 104 283 104 476 104 c 0,13,14
 593 104 593 104 780 125 c 1,15,-1
 757 5 l 1,16,17
 572 -16 572 -16 453 -16 c 0,18,19
 307 -16 307 -16 230 63.5 c 128,-1,20
 153 143 153 143 153 280 c 0,21,22
 153 347 153 347 184 512 c 0,23,24
 199 591 199 591 209 635.5 c 128,-1,25
 219 680 219 680 239 738 c 128,-1,26
 259 796 259 796 284 839 c 0,27,28
 335 928 335 928 428 984 c 128,-1,29
 521 1040 521 1040 638 1040 c 0,30,31
 770 1040 770 1040 845.5 967 c 128,-1,32
 921 894 921 894 921 761 c 0,33,34
 921 681 921 681 888 512 c 1,35,-1
 312 512 l 1,36,37
 283 359 283 359 283 301 c 0,11,12
572 1152 m 1,38,-1
 788 1408 l 1,39,-1
 926 1408 l 1,40,-1
 710 1152 l 1,41,-1
 572 1152 l 1,38,-1
EndSplineSet
EndChar

StartChar: ecircumflex
Encoding: 234 234 172
Width: 1024
Flags: W
LayerCount: 2
Fore
SplineSet
792 745 m 0,0,1
 792 830 792 830 747.5 875 c 128,-1,2
 703 920 703 920 615 920 c 0,3,4
 543 920 543 920 486 888 c 128,-1,5
 429 856 429 856 396 799 c 0,6,7
 366 752 366 752 337 632 c 1,8,-1
 781 632 l 1,9,10
 792 705 792 705 792 745 c 0,0,1
283 301 m 0,11,12
 283 104 283 104 476 104 c 0,13,14
 593 104 593 104 780 125 c 1,15,-1
 757 5 l 1,16,17
 572 -16 572 -16 453 -16 c 0,18,19
 307 -16 307 -16 230 63.5 c 128,-1,20
 153 143 153 143 153 280 c 0,21,22
 153 347 153 347 184 512 c 0,23,24
 199 591 199 591 209 635.5 c 128,-1,25
 219 680 219 680 239 738 c 128,-1,26
 259 796 259 796 284 839 c 0,27,28
 335 928 335 928 428 984 c 128,-1,29
 521 1040 521 1040 638 1040 c 0,30,31
 770 1040 770 1040 845.5 967 c 128,-1,32
 921 894 921 894 921 761 c 0,33,34
 921 681 921 681 888 512 c 1,35,-1
 312 512 l 1,36,37
 283 359 283 359 283 301 c 0,11,12
631 1408 m 1,38,-1
 789 1408 l 1,39,-1
 1036 1152 l 1,40,-1
 878 1152 l 1,41,-1
 692 1316 l 1,42,-1
 442 1152 l 1,43,-1
 284 1152 l 1,44,-1
 631 1408 l 1,38,-1
EndSplineSet
EndChar

StartChar: edieresis
Encoding: 235 235 173
Width: 1024
Flags: W
LayerCount: 2
Fore
SplineSet
792 745 m 0,0,1
 792 830 792 830 747.5 875 c 128,-1,2
 703 920 703 920 615 920 c 0,3,4
 543 920 543 920 486 888 c 128,-1,5
 429 856 429 856 396 799 c 0,6,7
 366 752 366 752 337 632 c 1,8,-1
 781 632 l 1,9,10
 792 705 792 705 792 745 c 0,0,1
283 301 m 0,11,12
 283 104 283 104 476 104 c 0,13,14
 593 104 593 104 780 125 c 1,15,-1
 757 5 l 1,16,17
 572 -16 572 -16 453 -16 c 0,18,19
 307 -16 307 -16 230 63.5 c 128,-1,20
 153 143 153 143 153 280 c 0,21,22
 153 347 153 347 184 512 c 0,23,24
 199 591 199 591 209 635.5 c 128,-1,25
 219 680 219 680 239 738 c 128,-1,26
 259 796 259 796 284 839 c 0,27,28
 335 928 335 928 428 984 c 128,-1,29
 521 1040 521 1040 638 1040 c 0,30,31
 770 1040 770 1040 845.5 967 c 128,-1,32
 921 894 921 894 921 761 c 0,33,34
 921 681 921 681 888 512 c 1,35,-1
 312 512 l 1,36,37
 283 359 283 359 283 301 c 0,11,12
801 1287 m 0,38,39
 801 1347 801 1347 841.5 1385.5 c 128,-1,40
 882 1424 882 1424 937 1424 c 0,41,42
 979 1424 979 1424 1004.5 1400 c 128,-1,43
 1030 1376 1030 1376 1030 1337 c 0,44,45
 1030 1277 1030 1277 989 1238.5 c 128,-1,46
 948 1200 948 1200 893 1200 c 0,47,48
 851 1200 851 1200 826 1224 c 128,-1,49
 801 1248 801 1248 801 1287 c 0,38,39
353 1287 m 0,50,51
 353 1347 353 1347 393.5 1385.5 c 128,-1,52
 434 1424 434 1424 489 1424 c 0,53,54
 531 1424 531 1424 556.5 1400 c 128,-1,55
 582 1376 582 1376 582 1337 c 0,56,57
 582 1277 582 1277 541 1238.5 c 128,-1,58
 500 1200 500 1200 445 1200 c 0,59,60
 403 1200 403 1200 378 1224 c 128,-1,61
 353 1248 353 1248 353 1287 c 0,50,51
EndSplineSet
EndChar

StartChar: igrave
Encoding: 236 236 174
Width: 1024
Flags: W
LayerCount: 2
Fore
SplineSet
748 1152 m 1,0,-1
 610 1152 l 1,1,-1
 494 1408 l 1,2,-1
 632 1408 l 1,3,-1
 748 1152 l 1,0,-1
116 0 m 1,4,-1
 139 120 l 1,5,-1
 395 120 l 1,6,-1
 548 904 l 1,7,-1
 292 904 l 1,8,-1
 315 1024 l 1,9,-1
 699 1024 l 1,10,-1
 523 120 l 1,11,-1
 779 120 l 1,12,-1
 756 0 l 1,13,-1
 116 0 l 1,4,-1
EndSplineSet
EndChar

StartChar: iacute
Encoding: 237 237 175
Width: 1024
Flags: W
LayerCount: 2
Fore
SplineSet
572 1152 m 1,0,-1
 788 1408 l 1,1,-1
 926 1408 l 1,2,-1
 710 1152 l 1,3,-1
 572 1152 l 1,0,-1
116 0 m 1,4,-1
 139 120 l 1,5,-1
 395 120 l 1,6,-1
 548 904 l 1,7,-1
 292 904 l 1,8,-1
 315 1024 l 1,9,-1
 699 1024 l 1,10,-1
 523 120 l 1,11,-1
 779 120 l 1,12,-1
 756 0 l 1,13,-1
 116 0 l 1,4,-1
EndSplineSet
EndChar

StartChar: icircumflex
Encoding: 238 238 176
Width: 1024
Flags: W
LayerCount: 2
Fore
SplineSet
631 1408 m 1,0,-1
 789 1408 l 1,1,-1
 1036 1152 l 1,2,-1
 878 1152 l 1,3,-1
 692 1316 l 1,4,-1
 442 1152 l 1,5,-1
 284 1152 l 1,6,-1
 631 1408 l 1,0,-1
116 0 m 1,7,-1
 139 120 l 1,8,-1
 395 120 l 1,9,-1
 548 904 l 1,10,-1
 292 904 l 1,11,-1
 315 1024 l 1,12,-1
 699 1024 l 1,13,-1
 523 120 l 1,14,-1
 779 120 l 1,15,-1
 756 0 l 1,16,-1
 116 0 l 1,7,-1
EndSplineSet
EndChar

StartChar: idieresis
Encoding: 239 239 177
Width: 1024
Flags: W
LayerCount: 2
Fore
SplineSet
353 1287 m 0,0,1
 353 1347 353 1347 393.5 1385.5 c 128,-1,2
 434 1424 434 1424 489 1424 c 0,3,4
 531 1424 531 1424 556.5 1400 c 128,-1,5
 582 1376 582 1376 582 1337 c 0,6,7
 582 1277 582 1277 541 1238.5 c 128,-1,8
 500 1200 500 1200 445 1200 c 0,9,10
 403 1200 403 1200 378 1224 c 128,-1,11
 353 1248 353 1248 353 1287 c 0,0,1
801 1287 m 0,12,13
 801 1347 801 1347 841.5 1385.5 c 128,-1,14
 882 1424 882 1424 937 1424 c 0,15,16
 979 1424 979 1424 1004.5 1400 c 128,-1,17
 1030 1376 1030 1376 1030 1337 c 0,18,19
 1030 1277 1030 1277 989 1238.5 c 128,-1,20
 948 1200 948 1200 893 1200 c 0,21,22
 851 1200 851 1200 826 1224 c 128,-1,23
 801 1248 801 1248 801 1287 c 0,12,13
116 0 m 1,24,-1
 139 120 l 1,25,-1
 395 120 l 1,26,-1
 548 904 l 1,27,-1
 292 904 l 1,28,-1
 315 1024 l 1,29,-1
 699 1024 l 1,30,-1
 523 120 l 1,31,-1
 779 120 l 1,32,-1
 756 0 l 1,33,-1
 116 0 l 1,24,-1
EndSplineSet
EndChar

StartChar: eth
Encoding: 240 240 178
Width: 1024
Flags: W
LayerCount: 2
Fore
SplineSet
467 1035 m 1,0,-1
 436 1101 l 1,1,-1
 638 1222 l 1,2,3
 577 1300 577 1300 493 1350 c 1,4,-1
 551 1428 l 1,5,6
 666 1371 666 1371 742 1284 c 1,7,-1
 963 1417 l 1,8,-1
 995 1351 l 1,9,-1
 786 1226 l 1,10,11
 913 1063 913 1063 913 791 c 0,12,13
 913 644 913 644 875 448 c 0,14,15
 858 363 858 363 841 306 c 128,-1,16
 824 249 824 249 792 195 c 0,17,18
 738 105 738 105 646 44.5 c 128,-1,19
 554 -16 554 -16 453 -16 c 0,20,21
 297 -16 297 -16 222.5 60 c 128,-1,22
 148 136 148 136 148 272 c 0,23,24
 148 331 148 331 171 448 c 0,25,26
 204 615 204 615 250 701 c 0,27,28
 299 793 299 793 389.5 852.5 c 128,-1,29
 480 912 480 912 593 912 c 0,30,31
 655 912 655 912 695.5 886.5 c 128,-1,32
 736 861 736 861 771 810 c 1,33,-1
 781 810 l 1,34,35
 781 1010 781 1010 680 1162 c 1,36,-1
 467 1035 l 1,0,-1
770 617 m 0,37,38
 770 700 770 700 723 746 c 128,-1,39
 676 792 676 792 590 792 c 0,40,41
 516 792 516 792 458 757 c 128,-1,42
 400 722 400 722 366 661 c 0,43,44
 325 585 325 585 299 448 c 0,45,46
 279 346 279 346 279 289 c 0,47,48
 279 202 279 202 325 153 c 128,-1,49
 371 104 371 104 456 104 c 0,50,51
 526 104 526 104 584.5 139 c 128,-1,52
 643 174 643 174 680 235 c 0,53,54
 719 302 719 302 747 448 c 0,55,56
 770 561 770 561 770 617 c 0,37,38
EndSplineSet
EndChar

StartChar: ntilde
Encoding: 241 241 179
Width: 1024
Flags: W
LayerCount: 2
Fore
SplineSet
558 1284 m 0,0,1
 496 1284 496 1284 469 1171 c 1,2,-1
 342 1177 l 1,3,4
 364 1273 364 1273 427 1338.5 c 128,-1,5
 490 1404 490 1404 581 1404 c 0,6,7
 621 1404 621 1404 653 1391 c 128,-1,8
 685 1378 685 1378 704 1359 c 128,-1,9
 723 1340 723 1340 739 1321 c 128,-1,10
 755 1302 755 1302 773 1289 c 128,-1,11
 791 1276 791 1276 812 1276 c 0,12,13
 874 1276 874 1276 901 1389 c 1,14,-1
 1028 1383 l 1,15,16
 1007 1288 1007 1288 943.5 1222 c 128,-1,17
 880 1156 880 1156 789 1156 c 0,18,19
 749 1156 749 1156 717 1169 c 128,-1,20
 685 1182 685 1182 666 1201 c 128,-1,21
 647 1220 647 1220 631 1239 c 128,-1,22
 615 1258 615 1258 597 1271 c 128,-1,23
 579 1284 579 1284 558 1284 c 0,0,1
772 776 m 0,24,25
 772 844 772 844 729.5 882 c 128,-1,26
 687 920 687 920 615 920 c 0,27,28
 521 920 521 920 456 858 c 0,29,30
 430 833 430 833 413 799 c 128,-1,31
 396 765 396 765 389.5 738.5 c 128,-1,32
 383 712 383 712 372 657 c 2,33,-1
 244 0 l 1,34,-1
 116 0 l 1,35,-1
 315 1024 l 1,36,-1
 443 1024 l 1,37,-1
 421 912 l 1,38,-1
 431 912 l 1,39,40
 480 970 480 970 541 1005 c 128,-1,41
 602 1040 602 1040 658 1040 c 0,42,43
 769 1040 769 1040 835.5 974.5 c 128,-1,44
 902 909 902 909 902 801 c 0,45,46
 902 753 902 753 884 657 c 2,47,-1
 756 0 l 1,48,-1
 628 0 l 1,49,-1
 756 657 l 2,50,51
 772 739 772 739 772 776 c 0,24,25
EndSplineSet
EndChar

StartChar: ograve
Encoding: 242 242 180
Width: 1024
Flags: W
LayerCount: 2
Fore
SplineSet
433 -16 m 0,0,1
 303 -16 303 -16 228.5 62.5 c 128,-1,2
 154 141 154 141 154 278 c 0,3,4
 154 358 154 358 184 512 c 0,5,6
 209 641 209 641 239 728.5 c 128,-1,7
 269 816 269 816 320 880 c 0,8,9
 451 1040 451 1040 638 1040 c 0,10,11
 767 1040 767 1040 841.5 961 c 128,-1,12
 916 882 916 882 916 746 c 0,13,14
 916 655 916 655 888 512 c 0,15,16
 863 384 863 384 832.5 296 c 128,-1,17
 802 208 802 208 751 144 c 0,18,19
 620 -16 620 -16 433 -16 c 0,0,1
787 724 m 0,20,21
 787 817 787 817 745 868.5 c 128,-1,22
 703 920 703 920 615 920 c 0,23,24
 496 920 496 920 420 822 c 0,25,26
 391 785 391 785 369.5 729.5 c 128,-1,27
 348 674 348 674 337.5 630.5 c 128,-1,28
 327 587 327 587 312 512 c 0,29,30
 283 359 283 359 283 300 c 0,31,32
 283 207 283 207 325.5 155.5 c 128,-1,33
 368 104 368 104 456 104 c 0,34,35
 575 104 575 104 651 202 c 0,36,37
 692 254 692 254 715 327.5 c 128,-1,38
 738 401 738 401 760 512 c 0,39,40
 787 655 787 655 787 724 c 0,20,21
748 1152 m 1,41,-1
 610 1152 l 1,42,-1
 494 1408 l 1,43,-1
 632 1408 l 1,44,-1
 748 1152 l 1,41,-1
EndSplineSet
EndChar

StartChar: oacute
Encoding: 243 243 181
Width: 1024
Flags: W
LayerCount: 2
Fore
SplineSet
433 -16 m 0,0,1
 303 -16 303 -16 228.5 62.5 c 128,-1,2
 154 141 154 141 154 278 c 0,3,4
 154 358 154 358 184 512 c 0,5,6
 209 641 209 641 239 728.5 c 128,-1,7
 269 816 269 816 320 880 c 0,8,9
 451 1040 451 1040 638 1040 c 0,10,11
 767 1040 767 1040 841.5 961 c 128,-1,12
 916 882 916 882 916 746 c 0,13,14
 916 655 916 655 888 512 c 0,15,16
 863 384 863 384 832.5 296 c 128,-1,17
 802 208 802 208 751 144 c 0,18,19
 620 -16 620 -16 433 -16 c 0,0,1
787 724 m 0,20,21
 787 817 787 817 745 868.5 c 128,-1,22
 703 920 703 920 615 920 c 0,23,24
 496 920 496 920 420 822 c 0,25,26
 391 785 391 785 369.5 729.5 c 128,-1,27
 348 674 348 674 337.5 630.5 c 128,-1,28
 327 587 327 587 312 512 c 0,29,30
 283 359 283 359 283 300 c 0,31,32
 283 207 283 207 325.5 155.5 c 128,-1,33
 368 104 368 104 456 104 c 0,34,35
 575 104 575 104 651 202 c 0,36,37
 692 254 692 254 715 327.5 c 128,-1,38
 738 401 738 401 760 512 c 0,39,40
 787 655 787 655 787 724 c 0,20,21
572 1152 m 1,41,-1
 788 1408 l 1,42,-1
 926 1408 l 1,43,-1
 710 1152 l 1,44,-1
 572 1152 l 1,41,-1
EndSplineSet
EndChar

StartChar: ocircumflex
Encoding: 244 244 182
Width: 1024
Flags: W
LayerCount: 2
Fore
SplineSet
433 -16 m 0,0,1
 303 -16 303 -16 228.5 62.5 c 128,-1,2
 154 141 154 141 154 278 c 0,3,4
 154 358 154 358 184 512 c 0,5,6
 209 641 209 641 239 728.5 c 128,-1,7
 269 816 269 816 320 880 c 0,8,9
 451 1040 451 1040 638 1040 c 0,10,11
 767 1040 767 1040 841.5 961 c 128,-1,12
 916 882 916 882 916 746 c 0,13,14
 916 655 916 655 888 512 c 0,15,16
 863 384 863 384 832.5 296 c 128,-1,17
 802 208 802 208 751 144 c 0,18,19
 620 -16 620 -16 433 -16 c 0,0,1
787 724 m 0,20,21
 787 817 787 817 745 868.5 c 128,-1,22
 703 920 703 920 615 920 c 0,23,24
 496 920 496 920 420 822 c 0,25,26
 391 785 391 785 369.5 729.5 c 128,-1,27
 348 674 348 674 337.5 630.5 c 128,-1,28
 327 587 327 587 312 512 c 0,29,30
 283 359 283 359 283 300 c 0,31,32
 283 207 283 207 325.5 155.5 c 128,-1,33
 368 104 368 104 456 104 c 0,34,35
 575 104 575 104 651 202 c 0,36,37
 692 254 692 254 715 327.5 c 128,-1,38
 738 401 738 401 760 512 c 0,39,40
 787 655 787 655 787 724 c 0,20,21
631 1408 m 1,41,-1
 789 1408 l 1,42,-1
 1036 1152 l 1,43,-1
 878 1152 l 1,44,-1
 692 1316 l 1,45,-1
 442 1152 l 1,46,-1
 284 1152 l 1,47,-1
 631 1408 l 1,41,-1
EndSplineSet
EndChar

StartChar: otilde
Encoding: 245 245 183
Width: 1024
Flags: W
LayerCount: 2
Fore
SplineSet
433 -16 m 0,0,1
 303 -16 303 -16 228.5 62.5 c 128,-1,2
 154 141 154 141 154 278 c 0,3,4
 154 358 154 358 184 512 c 0,5,6
 209 641 209 641 239 728.5 c 128,-1,7
 269 816 269 816 320 880 c 0,8,9
 451 1040 451 1040 638 1040 c 0,10,11
 767 1040 767 1040 841.5 961 c 128,-1,12
 916 882 916 882 916 746 c 0,13,14
 916 655 916 655 888 512 c 0,15,16
 863 384 863 384 832.5 296 c 128,-1,17
 802 208 802 208 751 144 c 0,18,19
 620 -16 620 -16 433 -16 c 0,0,1
787 724 m 0,20,21
 787 817 787 817 745 868.5 c 128,-1,22
 703 920 703 920 615 920 c 0,23,24
 496 920 496 920 420 822 c 0,25,26
 391 785 391 785 369.5 729.5 c 128,-1,27
 348 674 348 674 337.5 630.5 c 128,-1,28
 327 587 327 587 312 512 c 0,29,30
 283 359 283 359 283 300 c 0,31,32
 283 207 283 207 325.5 155.5 c 128,-1,33
 368 104 368 104 456 104 c 0,34,35
 575 104 575 104 651 202 c 0,36,37
 692 254 692 254 715 327.5 c 128,-1,38
 738 401 738 401 760 512 c 0,39,40
 787 655 787 655 787 724 c 0,20,21
558 1284 m 0,41,42
 496 1284 496 1284 469 1171 c 1,43,-1
 342 1177 l 1,44,45
 364 1273 364 1273 427 1338.5 c 128,-1,46
 490 1404 490 1404 581 1404 c 0,47,48
 621 1404 621 1404 653 1391 c 128,-1,49
 685 1378 685 1378 704 1359 c 128,-1,50
 723 1340 723 1340 739 1321 c 128,-1,51
 755 1302 755 1302 773 1289 c 128,-1,52
 791 1276 791 1276 812 1276 c 0,53,54
 874 1276 874 1276 901 1389 c 1,55,-1
 1028 1383 l 1,56,57
 1007 1288 1007 1288 943.5 1222 c 128,-1,58
 880 1156 880 1156 789 1156 c 0,59,60
 749 1156 749 1156 717 1169 c 128,-1,61
 685 1182 685 1182 666 1201 c 128,-1,62
 647 1220 647 1220 631 1239 c 128,-1,63
 615 1258 615 1258 597 1271 c 128,-1,64
 579 1284 579 1284 558 1284 c 0,41,42
EndSplineSet
EndChar

StartChar: odieresis
Encoding: 246 246 184
Width: 1024
Flags: W
LayerCount: 2
Fore
SplineSet
433 -16 m 0,0,1
 303 -16 303 -16 228.5 62.5 c 128,-1,2
 154 141 154 141 154 278 c 0,3,4
 154 358 154 358 184 512 c 0,5,6
 209 641 209 641 239 728.5 c 128,-1,7
 269 816 269 816 320 880 c 0,8,9
 451 1040 451 1040 638 1040 c 0,10,11
 767 1040 767 1040 841.5 961 c 128,-1,12
 916 882 916 882 916 746 c 0,13,14
 916 655 916 655 888 512 c 0,15,16
 863 384 863 384 832.5 296 c 128,-1,17
 802 208 802 208 751 144 c 0,18,19
 620 -16 620 -16 433 -16 c 0,0,1
787 724 m 0,20,21
 787 817 787 817 745 868.5 c 128,-1,22
 703 920 703 920 615 920 c 0,23,24
 496 920 496 920 420 822 c 0,25,26
 391 785 391 785 369.5 729.5 c 128,-1,27
 348 674 348 674 337.5 630.5 c 128,-1,28
 327 587 327 587 312 512 c 0,29,30
 283 359 283 359 283 300 c 0,31,32
 283 207 283 207 325.5 155.5 c 128,-1,33
 368 104 368 104 456 104 c 0,34,35
 575 104 575 104 651 202 c 0,36,37
 692 254 692 254 715 327.5 c 128,-1,38
 738 401 738 401 760 512 c 0,39,40
 787 655 787 655 787 724 c 0,20,21
353 1287 m 0,41,42
 353 1347 353 1347 393.5 1385.5 c 128,-1,43
 434 1424 434 1424 489 1424 c 0,44,45
 531 1424 531 1424 556.5 1400 c 128,-1,46
 582 1376 582 1376 582 1337 c 0,47,48
 582 1277 582 1277 541 1238.5 c 128,-1,49
 500 1200 500 1200 445 1200 c 0,50,51
 403 1200 403 1200 378 1224 c 128,-1,52
 353 1248 353 1248 353 1287 c 0,41,42
801 1287 m 0,53,54
 801 1347 801 1347 841.5 1385.5 c 128,-1,55
 882 1424 882 1424 937 1424 c 0,56,57
 979 1424 979 1424 1004.5 1400 c 128,-1,58
 1030 1376 1030 1376 1030 1337 c 0,59,60
 1030 1277 1030 1277 989 1238.5 c 128,-1,61
 948 1200 948 1200 893 1200 c 0,62,63
 851 1200 851 1200 826 1224 c 128,-1,64
 801 1248 801 1248 801 1287 c 0,53,54
EndSplineSet
EndChar

StartChar: divide
Encoding: 247 247 185
Width: 1024
Flags: W
LayerCount: 2
Fore
SplineSet
1036 764 m 1,0,-1
 1012 644 l 1,1,-1
 116 644 l 1,2,-1
 140 764 l 1,3,-1
 1036 764 l 1,0,-1
380 263 m 0,4,5
 380 323 380 323 421 361.5 c 128,-1,6
 462 400 462 400 517 400 c 0,7,8
 559 400 559 400 584 376 c 128,-1,9
 609 352 609 352 609 313 c 0,10,11
 609 253 609 253 568.5 214.5 c 128,-1,12
 528 176 528 176 473 176 c 0,13,14
 431 176 431 176 405.5 200 c 128,-1,15
 380 224 380 224 380 263 c 0,4,5
542 1095 m 0,16,17
 542 1155 542 1155 582.5 1193.5 c 128,-1,18
 623 1232 623 1232 678 1232 c 0,19,20
 720 1232 720 1232 745.5 1208 c 128,-1,21
 771 1184 771 1184 771 1145 c 0,22,23
 771 1085 771 1085 730.5 1046.5 c 128,-1,24
 690 1008 690 1008 635 1008 c 0,25,26
 593 1008 593 1008 567.5 1032 c 128,-1,27
 542 1056 542 1056 542 1095 c 0,16,17
EndSplineSet
EndChar

StartChar: oslash
Encoding: 248 248 186
Width: 1024
Flags: W
LayerCount: 2
Fore
SplineSet
309 183 m 1,0,1
 351 104 351 104 456 104 c 0,2,3
 507 104 507 104 549 120 c 128,-1,4
 591 136 591 136 621 168.5 c 128,-1,5
 651 201 651 201 673 236 c 128,-1,6
 695 271 695 271 712 322.5 c 128,-1,7
 729 374 729 374 739 414.5 c 128,-1,8
 749 455 749 455 760 512 c 0,9,10
 788 658 788 658 788 732 c 1,11,-1
 309 183 l 1,0,1
901 861 m 1,12,13
 918 811 918 811 918 746 c 0,14,15
 918 671 918 671 888 512 c 0,16,17
 866 401 866 401 845 330 c 128,-1,18
 824 259 824 259 786 195 c 0,19,20
 731 102 731 102 639 43 c 128,-1,21
 547 -16 547 -16 433 -16 c 0,22,23
 291 -16 291 -16 216 77 c 1,24,-1
 124 -28 l 1,25,-1
 52 28 l 1,26,-1
 170 163 l 1,27,28
 153 213 153 213 153 278 c 0,29,30
 153 347 153 347 184 512 c 0,31,32
 199 588 199 588 209 630 c 128,-1,33
 219 672 219 672 239 728 c 128,-1,34
 259 784 259 784 285 829 c 0,35,36
 340 922 340 922 432 981 c 128,-1,37
 524 1040 524 1040 638 1040 c 0,38,39
 780 1040 780 1040 855 947 c 1,40,-1
 947 1052 l 1,41,-1
 1019 996 l 1,42,-1
 901 861 l 1,12,13
615 920 m 0,43,44
 571 920 571 920 533.5 907 c 128,-1,45
 496 894 496 894 469 873 c 128,-1,46
 442 852 442 852 419 818.5 c 128,-1,47
 396 785 396 785 380.5 753 c 128,-1,48
 365 721 365 721 351 675.5 c 128,-1,49
 337 630 337 630 329 595 c 128,-1,50
 321 560 321 560 312 512 c 0,51,52
 284 376 284 376 283 291 c 1,53,-1
 762 841 l 1,54,55
 720 920 720 920 615 920 c 0,43,44
EndSplineSet
EndChar

StartChar: ugrave
Encoding: 249 249 187
Width: 1024
Flags: W
LayerCount: 2
Fore
SplineSet
748 1152 m 1,0,-1
 610 1152 l 1,1,-1
 494 1408 l 1,2,-1
 632 1408 l 1,3,-1
 748 1152 l 1,0,-1
299 248 m 0,4,5
 299 180 299 180 341.5 142 c 128,-1,6
 384 104 384 104 456 104 c 0,7,8
 550 104 550 104 615 166 c 0,9,10
 641 191 641 191 658 225 c 128,-1,11
 675 259 675 259 681.5 285.5 c 128,-1,12
 688 312 688 312 699 367 c 2,13,-1
 827 1024 l 1,14,-1
 955 1024 l 1,15,-1
 756 0 l 1,16,-1
 628 0 l 1,17,-1
 650 112 l 1,18,-1
 640 112 l 1,19,20
 591 54 591 54 530 19 c 128,-1,21
 469 -16 469 -16 413 -16 c 0,22,23
 302 -16 302 -16 235.5 49.5 c 128,-1,24
 169 115 169 115 169 223 c 0,25,26
 169 271 169 271 187 367 c 2,27,-1
 315 1024 l 1,28,-1
 443 1024 l 1,29,-1
 315 367 l 2,30,31
 299 285 299 285 299 248 c 0,4,5
EndSplineSet
EndChar

StartChar: uacute
Encoding: 250 250 188
Width: 1024
Flags: W
LayerCount: 2
Fore
SplineSet
572 1152 m 1,0,-1
 788 1408 l 1,1,-1
 926 1408 l 1,2,-1
 710 1152 l 1,3,-1
 572 1152 l 1,0,-1
299 248 m 0,4,5
 299 180 299 180 341.5 142 c 128,-1,6
 384 104 384 104 456 104 c 0,7,8
 550 104 550 104 615 166 c 0,9,10
 641 191 641 191 658 225 c 128,-1,11
 675 259 675 259 681.5 285.5 c 128,-1,12
 688 312 688 312 699 367 c 2,13,-1
 827 1024 l 1,14,-1
 955 1024 l 1,15,-1
 756 0 l 1,16,-1
 628 0 l 1,17,-1
 650 112 l 1,18,-1
 640 112 l 1,19,20
 591 54 591 54 530 19 c 128,-1,21
 469 -16 469 -16 413 -16 c 0,22,23
 302 -16 302 -16 235.5 49.5 c 128,-1,24
 169 115 169 115 169 223 c 0,25,26
 169 271 169 271 187 367 c 2,27,-1
 315 1024 l 1,28,-1
 443 1024 l 1,29,-1
 315 367 l 2,30,31
 299 285 299 285 299 248 c 0,4,5
EndSplineSet
EndChar

StartChar: ucircumflex
Encoding: 251 251 189
Width: 1024
Flags: W
LayerCount: 2
Fore
SplineSet
631 1408 m 1,0,-1
 789 1408 l 1,1,-1
 1036 1152 l 1,2,-1
 878 1152 l 1,3,-1
 692 1316 l 1,4,-1
 442 1152 l 1,5,-1
 284 1152 l 1,6,-1
 631 1408 l 1,0,-1
299 248 m 0,7,8
 299 180 299 180 341.5 142 c 128,-1,9
 384 104 384 104 456 104 c 0,10,11
 550 104 550 104 615 166 c 0,12,13
 641 191 641 191 658 225 c 128,-1,14
 675 259 675 259 681.5 285.5 c 128,-1,15
 688 312 688 312 699 367 c 2,16,-1
 827 1024 l 1,17,-1
 955 1024 l 1,18,-1
 756 0 l 1,19,-1
 628 0 l 1,20,-1
 650 112 l 1,21,-1
 640 112 l 1,22,23
 591 54 591 54 530 19 c 128,-1,24
 469 -16 469 -16 413 -16 c 0,25,26
 302 -16 302 -16 235.5 49.5 c 128,-1,27
 169 115 169 115 169 223 c 0,28,29
 169 271 169 271 187 367 c 2,30,-1
 315 1024 l 1,31,-1
 443 1024 l 1,32,-1
 315 367 l 2,33,34
 299 285 299 285 299 248 c 0,7,8
EndSplineSet
EndChar

StartChar: udieresis
Encoding: 252 252 190
Width: 1024
Flags: W
LayerCount: 2
Fore
SplineSet
353 1287 m 0,0,1
 353 1347 353 1347 393.5 1385.5 c 128,-1,2
 434 1424 434 1424 489 1424 c 0,3,4
 531 1424 531 1424 556.5 1400 c 128,-1,5
 582 1376 582 1376 582 1337 c 0,6,7
 582 1277 582 1277 541 1238.5 c 128,-1,8
 500 1200 500 1200 445 1200 c 0,9,10
 403 1200 403 1200 378 1224 c 128,-1,11
 353 1248 353 1248 353 1287 c 0,0,1
801 1287 m 0,12,13
 801 1347 801 1347 841.5 1385.5 c 128,-1,14
 882 1424 882 1424 937 1424 c 0,15,16
 979 1424 979 1424 1004.5 1400 c 128,-1,17
 1030 1376 1030 1376 1030 1337 c 0,18,19
 1030 1277 1030 1277 989 1238.5 c 128,-1,20
 948 1200 948 1200 893 1200 c 0,21,22
 851 1200 851 1200 826 1224 c 128,-1,23
 801 1248 801 1248 801 1287 c 0,12,13
299 248 m 0,24,25
 299 180 299 180 341.5 142 c 128,-1,26
 384 104 384 104 456 104 c 0,27,28
 550 104 550 104 615 166 c 0,29,30
 641 191 641 191 658 225 c 128,-1,31
 675 259 675 259 681.5 285.5 c 128,-1,32
 688 312 688 312 699 367 c 2,33,-1
 827 1024 l 1,34,-1
 955 1024 l 1,35,-1
 756 0 l 1,36,-1
 628 0 l 1,37,-1
 650 112 l 1,38,-1
 640 112 l 1,39,40
 591 54 591 54 530 19 c 128,-1,41
 469 -16 469 -16 413 -16 c 0,42,43
 302 -16 302 -16 235.5 49.5 c 128,-1,44
 169 115 169 115 169 223 c 0,45,46
 169 271 169 271 187 367 c 2,47,-1
 315 1024 l 1,48,-1
 443 1024 l 1,49,-1
 315 367 l 2,50,51
 299 285 299 285 299 248 c 0,24,25
EndSplineSet
EndChar

StartChar: thorn
Encoding: 254 254 192
Width: 1024
Flags: W
LayerCount: 2
Fore
SplineSet
317 307 m 0,0,1
 317 218 317 218 354.5 161 c 128,-1,2
 392 104 392 104 472 104 c 0,3,4
 539 104 539 104 594.5 147.5 c 128,-1,5
 650 191 650 191 684 256 c 0,6,7
 725 334 725 334 760 512 c 0,8,9
 786 646 786 646 786 717 c 0,10,11
 786 806 786 806 748.5 863 c 128,-1,12
 711 920 711 920 631 920 c 0,13,14
 564 920 564 920 508.5 876.5 c 128,-1,15
 453 833 453 833 419 768 c 0,16,17
 379 693 379 693 344 512 c 0,18,19
 317 373 317 373 317 307 c 0,0,1
674 1040 m 0,20,21
 786 1040 786 1040 852.5 961 c 128,-1,22
 919 882 919 882 919 747 c 0,23,24
 919 674 919 674 888 512 c 0,25,26
 874 442 874 442 865.5 404 c 128,-1,27
 857 366 857 366 840.5 314.5 c 128,-1,28
 824 263 824 263 803 221 c 0,29,30
 746 109 746 109 657 46.5 c 128,-1,31
 568 -16 568 -16 469 -16 c 0,32,33
 341 -16 341 -16 278 125 c 1,34,-1
 268 125 l 1,35,-1
 169 -384 l 1,36,-1
 41 -384 l 1,37,-1
 390 1408 l 1,38,-1
 518 1408 l 1,39,-1
 419 899 l 1,40,-1
 429 899 l 1,41,42
 547 1040 547 1040 674 1040 c 0,20,21
EndSplineSet
EndChar

StartChar: ydieresis
Encoding: 255 255 193
Width: 1024
Flags: W
LayerCount: 2
Fore
SplineSet
490 115 m 1,0,1
 662 467 662 467 876 1024 c 1,2,-1
 1007 1024 l 1,3,4
 887 711 887 711 780.5 466.5 c 128,-1,5
 674 222 674 222 523 -73 c 0,6,7
 476 -165 476 -165 435 -226 c 128,-1,8
 394 -287 394 -287 345 -321 c 0,9,10
 235 -400 235 -400 38 -400 c 1,11,-1
 62 -280 l 1,12,13
 206 -280 206 -280 267 -239 c 0,14,15
 293 -222 293 -222 319 -187 c 128,-1,16
 345 -152 345 -152 362 -121.5 c 128,-1,17
 379 -91 379 -91 428 0 c 1,18,-1
 377 0 l 1,19,20
 312 225 312 225 288 474 c 128,-1,21
 264 723 264 723 263 1024 c 1,22,-1
 394 1024 l 1,23,24
 394 460 394 460 480 115 c 1,25,-1
 490 115 l 1,0,1
793 1249 m 0,26,27
 793 1309 793 1309 833.5 1347.5 c 128,-1,28
 874 1386 874 1386 929 1386 c 0,29,30
 971 1386 971 1386 996.5 1362 c 128,-1,31
 1022 1338 1022 1338 1022 1299 c 0,32,33
 1022 1239 1022 1239 981.5 1200.5 c 128,-1,34
 941 1162 941 1162 886 1162 c 0,35,36
 844 1162 844 1162 818.5 1186 c 128,-1,37
 793 1210 793 1210 793 1249 c 0,26,27
345 1249 m 0,38,39
 345 1309 345 1309 385.5 1347.5 c 128,-1,40
 426 1386 426 1386 481 1386 c 0,41,42
 523 1386 523 1386 548.5 1362 c 128,-1,43
 574 1338 574 1338 574 1299 c 0,44,45
 574 1239 574 1239 533.5 1200.5 c 128,-1,46
 493 1162 493 1162 438 1162 c 0,47,48
 396 1162 396 1162 370.5 1186 c 128,-1,49
 345 1210 345 1210 345 1249 c 0,38,39
EndSplineSet
EndChar

StartChar: amacron
Encoding: 257 257 195
Width: 1024
Flags: W
LayerCount: 2
Fore
SplineSet
728 512 m 1,0,-1
 532 512 l 2,1,2
 495 512 495 512 474 510 c 128,-1,3
 453 508 453 508 419 495.5 c 128,-1,4
 385 483 385 483 357 458 c 0,5,6
 317 422 317 422 291.5 367 c 128,-1,7
 266 312 266 312 266 254 c 0,8,9
 266 187 266 187 304 145.5 c 128,-1,10
 342 104 342 104 412 104 c 0,11,12
 460 104 460 104 500.5 118 c 128,-1,13
 541 132 541 132 569.5 153.5 c 128,-1,14
 598 175 598 175 622 208.5 c 128,-1,15
 646 242 646 242 660.5 271.5 c 128,-1,16
 675 301 675 301 688 342 c 128,-1,17
 701 383 701 383 707 409 c 128,-1,18
 713 435 713 435 720 471 c 2,19,-1
 728 512 l 1,0,-1
670 1040 m 0,20,21
 796 1040 796 1040 854 987 c 0,22,23
 914 931 914 931 914 848 c 0,24,25
 914 818 914 818 902 749 c 2,26,-1
 756 0 l 1,27,-1
 628 0 l 1,28,-1
 652 123 l 1,29,-1
 642 123 l 1,30,31
 514 -16 514 -16 365 -16 c 0,32,33
 263 -16 263 -16 199 51.5 c 128,-1,34
 135 119 135 119 135 228 c 0,35,36
 135 310 135 310 172.5 393.5 c 128,-1,37
 210 477 210 477 276 533 c 0,38,39
 314 564 314 564 354 584 c 128,-1,40
 394 604 394 604 434.5 611.5 c 128,-1,41
 475 619 475 619 498 620.5 c 128,-1,42
 521 622 521 622 555 622 c 2,43,-1
 749 622 l 1,44,-1
 773 744 l 2,45,46
 784 806 784 806 784 825 c 0,47,48
 784 873 784 873 752.5 896.5 c 128,-1,49
 721 920 721 920 647 920 c 0,50,51
 527 920 527 920 355 899 c 1,52,-1
 378 1021 l 1,53,54
 547 1040 547 1040 670 1040 c 0,20,21
390 1408 m 1,55,-1
 1030 1408 l 1,56,-1
 1006 1288 l 1,57,-1
 366 1288 l 1,58,-1
 390 1408 l 1,55,-1
EndSplineSet
EndChar

StartChar: abreve
Encoding: 259 259 197
Width: 1024
Flags: W
LayerCount: 2
Fore
SplineSet
728 512 m 1,0,-1
 532 512 l 2,1,2
 495 512 495 512 474 510 c 128,-1,3
 453 508 453 508 419 495.5 c 128,-1,4
 385 483 385 483 357 458 c 0,5,6
 317 422 317 422 291.5 367 c 128,-1,7
 266 312 266 312 266 254 c 0,8,9
 266 187 266 187 304 145.5 c 128,-1,10
 342 104 342 104 412 104 c 0,11,12
 460 104 460 104 500.5 118 c 128,-1,13
 541 132 541 132 569.5 153.5 c 128,-1,14
 598 175 598 175 622 208.5 c 128,-1,15
 646 242 646 242 660.5 271.5 c 128,-1,16
 675 301 675 301 688 342 c 128,-1,17
 701 383 701 383 707 409 c 128,-1,18
 713 435 713 435 720 471 c 2,19,-1
 728 512 l 1,0,-1
670 1040 m 0,20,21
 796 1040 796 1040 854 987 c 0,22,23
 914 931 914 931 914 848 c 0,24,25
 914 818 914 818 902 749 c 2,26,-1
 756 0 l 1,27,-1
 628 0 l 1,28,-1
 652 123 l 1,29,-1
 642 123 l 1,30,31
 514 -16 514 -16 365 -16 c 0,32,33
 263 -16 263 -16 199 51.5 c 128,-1,34
 135 119 135 119 135 228 c 0,35,36
 135 310 135 310 172.5 393.5 c 128,-1,37
 210 477 210 477 276 533 c 0,38,39
 314 564 314 564 354 584 c 128,-1,40
 394 604 394 604 434.5 611.5 c 128,-1,41
 475 619 475 619 498 620.5 c 128,-1,42
 521 622 521 622 555 622 c 2,43,-1
 749 622 l 1,44,-1
 773 744 l 2,45,46
 784 806 784 806 784 825 c 0,47,48
 784 873 784 873 752.5 896.5 c 128,-1,49
 721 920 721 920 647 920 c 0,50,51
 527 920 527 920 355 899 c 1,52,-1
 378 1021 l 1,53,54
 547 1040 547 1040 670 1040 c 0,20,21
922 1408 m 1,55,-1
 1050 1408 l 1,56,57
 1026 1285 1026 1285 914 1210.5 c 128,-1,58
 802 1136 802 1136 657 1136 c 0,59,60
 528 1136 528 1136 446.5 1196 c 128,-1,61
 365 1256 365 1256 365 1358 c 0,62,63
 365 1380 365 1380 370 1408 c 1,64,-1
 498 1408 l 1,65,66
 495 1393 495 1393 495 1380 c 0,67,68
 495 1324 495 1324 541.5 1290 c 128,-1,69
 588 1256 588 1256 680 1256 c 0,70,71
 783 1256 783 1256 846 1298 c 128,-1,72
 909 1340 909 1340 922 1408 c 1,55,-1
EndSplineSet
EndChar

StartChar: Aogonek
Encoding: 260 260 198
Width: 1024
Flags: W
LayerCount: 2
Fore
SplineSet
909 0 m 1,0,1
 811 -50 811 -50 763 -99.5 c 128,-1,2
 715 -149 715 -149 715 -221 c 0,3,4
 715 -251 715 -251 731.5 -265.5 c 128,-1,5
 748 -280 748 -280 771 -280 c 0,6,7
 805 -280 805 -280 832 -268 c 1,8,-1
 808 -389 l 1,9,10
 777 -400 777 -400 727 -400 c 0,11,12
 671 -400 671 -400 627.5 -357 c 128,-1,13
 584 -314 584 -314 584 -245 c 0,14,15
 584 -200 584 -200 600.5 -161 c 128,-1,16
 617 -122 617 -122 647.5 -91.5 c 128,-1,17
 678 -61 678 -61 707 -41 c 128,-1,18
 736 -21 736 -21 774 0 c 1,19,20
 794 183 794 183 794 388 c 1,21,-1
 228 388 l 1,22,23
 216 353 216 353 186.5 271 c 128,-1,24
 157 189 157 189 136 125 c 128,-1,25
 115 61 115 61 98 0 c 1,26,-1
 -37 0 l 1,27,28
 83 401 83 401 247 749.5 c 128,-1,29
 411 1098 411 1098 645 1408 c 1,30,-1
 775 1408 l 1,31,32
 929 984 929 984 929 433 c 0,33,34
 929 225 929 225 909 0 c 1,0,1
797 508 m 1,35,36
 787 752 787 752 763.5 937.5 c 128,-1,37
 740 1123 740 1123 690 1279 c 1,38,-1
 680 1279 l 1,39,40
 569 1123 569 1123 474 938 c 128,-1,41
 379 753 379 753 273 508 c 1,42,-1
 797 508 l 1,35,36
EndSplineSet
EndChar

StartChar: aogonek
Encoding: 261 261 199
Width: 1024
Flags: W
LayerCount: 2
Fore
SplineSet
456 -245 m 0,0,1
 456 -201 456 -201 471.5 -162 c 128,-1,2
 487 -123 487 -123 515 -92.5 c 128,-1,3
 543 -62 543 -62 568.5 -41.5 c 128,-1,4
 594 -21 594 -21 628 0 c 1,5,-1
 652 123 l 1,6,-1
 642 123 l 1,7,8
 514 -16 514 -16 365 -16 c 0,9,10
 263 -16 263 -16 199 51.5 c 128,-1,11
 135 119 135 119 135 228 c 0,12,13
 135 311 135 311 172.5 394 c 128,-1,14
 210 477 210 477 276 533 c 0,15,16
 314 564 314 564 354 584 c 128,-1,17
 394 604 394 604 434.5 611.5 c 128,-1,18
 475 619 475 619 498 620.5 c 128,-1,19
 521 622 521 622 555 622 c 2,20,-1
 749 622 l 1,21,-1
 773 744 l 2,22,23
 784 806 784 806 784 825 c 0,24,25
 784 876 784 876 750.5 898 c 128,-1,26
 717 920 717 920 647 920 c 0,27,28
 527 920 527 920 355 899 c 1,29,-1
 378 1021 l 1,30,31
 547 1040 547 1040 670 1040 c 0,32,33
 710 1040 710 1040 742 1035 c 128,-1,34
 774 1030 774 1030 806.5 1017 c 128,-1,35
 839 1004 839 1004 864 978 c 128,-1,36
 889 952 889 952 903 913 c 0,37,38
 914 882 914 882 914 848 c 0,39,40
 914 818 914 818 902 749 c 2,41,-1
 756 0 l 1,42,43
 587 -101 587 -101 587 -221 c 0,44,45
 587 -251 587 -251 603.5 -265.5 c 128,-1,46
 620 -280 620 -280 643 -280 c 0,47,48
 677 -280 677 -280 704 -268 c 1,49,-1
 680 -389 l 1,50,51
 648 -400 648 -400 599 -400 c 0,52,53
 543 -400 543 -400 499.5 -357 c 128,-1,54
 456 -314 456 -314 456 -245 c 0,0,1
728 512 m 1,55,-1
 532 512 l 2,56,57
 495 512 495 512 474 510 c 128,-1,58
 453 508 453 508 419 495.5 c 128,-1,59
 385 483 385 483 357 458 c 0,60,61
 316 422 316 422 291 368 c 128,-1,62
 266 314 266 314 266 254 c 0,63,64
 266 187 266 187 304 145.5 c 128,-1,65
 342 104 342 104 412 104 c 0,66,67
 460 104 460 104 500.5 118 c 128,-1,68
 541 132 541 132 569.5 153.5 c 128,-1,69
 598 175 598 175 622 208.5 c 128,-1,70
 646 242 646 242 660.5 271.5 c 128,-1,71
 675 301 675 301 688 342 c 128,-1,72
 701 383 701 383 707 409 c 128,-1,73
 713 435 713 435 720 471 c 2,74,-1
 728 512 l 1,55,-1
EndSplineSet
EndChar

StartChar: cacute
Encoding: 263 263 201
Width: 1024
Flags: W
LayerCount: 2
Fore
SplineSet
184 512 m 0,0,1
 199 588 199 588 209.5 631 c 128,-1,2
 220 674 220 674 240.5 730.5 c 128,-1,3
 261 787 261 787 289 831 c 0,4,5
 420 1040 420 1040 668 1040 c 0,6,7
 769 1040 769 1040 935 1023 c 1,8,-1
 912 903 l 1,9,10
 744 920 744 920 645 920 c 0,11,12
 559 920 559 920 501.5 887.5 c 128,-1,13
 444 855 444 855 400 789 c 0,14,15
 377 755 377 755 359 703 c 128,-1,16
 341 651 341 651 333.5 617 c 128,-1,17
 326 583 326 583 312 512 c 0,18,19
 284 370 284 370 284 308 c 0,20,21
 284 104 284 104 486 104 c 0,22,23
 602 104 602 104 781 130 c 1,24,-1
 758 10 l 1,25,26
 581 -16 581 -16 463 -16 c 0,27,28
 310 -16 310 -16 232 65.5 c 128,-1,29
 154 147 154 147 154 287 c 0,30,31
 154 358 154 358 184 512 c 0,0,1
572 1152 m 1,32,-1
 788 1408 l 1,33,-1
 926 1408 l 1,34,-1
 710 1152 l 1,35,-1
 572 1152 l 1,32,-1
EndSplineSet
EndChar

StartChar: ccircumflex
Encoding: 265 265 203
Width: 1024
Flags: W
LayerCount: 2
Fore
SplineSet
184 512 m 0,0,1
 199 588 199 588 209.5 631 c 128,-1,2
 220 674 220 674 240.5 730.5 c 128,-1,3
 261 787 261 787 289 831 c 0,4,5
 420 1040 420 1040 668 1040 c 0,6,7
 769 1040 769 1040 935 1023 c 1,8,-1
 912 903 l 1,9,10
 744 920 744 920 645 920 c 0,11,12
 559 920 559 920 501.5 887.5 c 128,-1,13
 444 855 444 855 400 789 c 0,14,15
 377 755 377 755 359 703 c 128,-1,16
 341 651 341 651 333.5 617 c 128,-1,17
 326 583 326 583 312 512 c 0,18,19
 284 370 284 370 284 308 c 0,20,21
 284 104 284 104 486 104 c 0,22,23
 602 104 602 104 781 130 c 1,24,-1
 758 10 l 1,25,26
 581 -16 581 -16 463 -16 c 0,27,28
 310 -16 310 -16 232 65.5 c 128,-1,29
 154 147 154 147 154 287 c 0,30,31
 154 358 154 358 184 512 c 0,0,1
631 1408 m 1,32,-1
 789 1408 l 1,33,-1
 1036 1152 l 1,34,-1
 878 1152 l 1,35,-1
 692 1316 l 1,36,-1
 442 1152 l 1,37,-1
 284 1152 l 1,38,-1
 631 1408 l 1,32,-1
EndSplineSet
EndChar

StartChar: cdotaccent
Encoding: 267 267 205
Width: 1024
Flags: W
LayerCount: 2
Fore
SplineSet
184 512 m 0,0,1
 199 588 199 588 209.5 631 c 128,-1,2
 220 674 220 674 240.5 730.5 c 128,-1,3
 261 787 261 787 289 831 c 0,4,5
 420 1040 420 1040 668 1040 c 0,6,7
 769 1040 769 1040 935 1023 c 1,8,-1
 912 903 l 1,9,10
 744 920 744 920 645 920 c 0,11,12
 559 920 559 920 501.5 887.5 c 128,-1,13
 444 855 444 855 400 789 c 0,14,15
 377 755 377 755 359 703 c 128,-1,16
 341 651 341 651 333.5 617 c 128,-1,17
 326 583 326 583 312 512 c 0,18,19
 284 370 284 370 284 308 c 0,20,21
 284 104 284 104 486 104 c 0,22,23
 602 104 602 104 781 130 c 1,24,-1
 758 10 l 1,25,26
 581 -16 581 -16 463 -16 c 0,27,28
 310 -16 310 -16 232 65.5 c 128,-1,29
 154 147 154 147 154 287 c 0,30,31
 154 358 154 358 184 512 c 0,0,1
577 1288 m 0,32,33
 577 1348 577 1348 617.5 1386.5 c 128,-1,34
 658 1425 658 1425 713 1425 c 0,35,36
 755 1425 755 1425 780.5 1401 c 128,-1,37
 806 1377 806 1377 806 1338 c 0,38,39
 806 1278 806 1278 765 1239.5 c 128,-1,40
 724 1201 724 1201 669 1201 c 0,41,42
 627 1201 627 1201 602 1225 c 128,-1,43
 577 1249 577 1249 577 1288 c 0,32,33
EndSplineSet
EndChar

StartChar: ccaron
Encoding: 269 269 207
Width: 1024
Flags: W
LayerCount: 2
Fore
SplineSet
184 512 m 0,0,1
 199 588 199 588 209.5 631 c 128,-1,2
 220 674 220 674 240.5 730.5 c 128,-1,3
 261 787 261 787 289 831 c 0,4,5
 420 1040 420 1040 668 1040 c 0,6,7
 769 1040 769 1040 935 1023 c 1,8,-1
 912 903 l 1,9,10
 744 920 744 920 645 920 c 0,11,12
 559 920 559 920 501.5 887.5 c 128,-1,13
 444 855 444 855 400 789 c 0,14,15
 377 755 377 755 359 703 c 128,-1,16
 341 651 341 651 333.5 617 c 128,-1,17
 326 583 326 583 312 512 c 0,18,19
 284 370 284 370 284 308 c 0,20,21
 284 104 284 104 486 104 c 0,22,23
 602 104 602 104 781 130 c 1,24,-1
 758 10 l 1,25,26
 581 -16 581 -16 463 -16 c 0,27,28
 310 -16 310 -16 232 65.5 c 128,-1,29
 154 147 154 147 154 287 c 0,30,31
 154 358 154 358 184 512 c 0,0,1
581 1152 m 1,32,-1
 334 1408 l 1,33,-1
 492 1408 l 1,34,-1
 678 1244 l 1,35,-1
 928 1408 l 1,36,-1
 1086 1408 l 1,37,-1
 739 1152 l 1,38,-1
 581 1152 l 1,32,-1
EndSplineSet
EndChar

StartChar: dcaron
Encoding: 271 271 209
Width: 1024
Flags: W
LayerCount: 2
Fore
SplineSet
1158 1408 m 1,0,-1
 1286 1408 l 1,1,-1
 1211 1024 l 1,2,-1
 1083 1024 l 1,3,-1
 1158 1408 l 1,0,-1
397 -16 m 0,4,5
 285 -16 285 -16 218.5 63 c 128,-1,6
 152 142 152 142 152 277 c 0,7,8
 152 344 152 344 184 512 c 0,9,10
 199 586 199 586 206.5 621 c 128,-1,11
 214 656 214 656 230.5 708.5 c 128,-1,12
 247 761 247 761 268 803 c 0,13,14
 325 915 325 915 414 977.5 c 128,-1,15
 503 1040 503 1040 602 1040 c 0,16,17
 730 1040 730 1040 793 899 c 1,18,-1
 803 899 l 1,19,-1
 902 1408 l 1,20,-1
 1030 1408 l 1,21,-1
 756 0 l 1,22,-1
 628 0 l 1,23,-1
 652 125 l 1,24,-1
 642 125 l 1,25,26
 524 -16 524 -16 397 -16 c 0,4,5
754 717 m 0,27,28
 754 806 754 806 716.5 863 c 128,-1,29
 679 920 679 920 599 920 c 0,30,31
 532 920 532 920 476.5 876.5 c 128,-1,32
 421 833 421 833 387 768 c 0,33,34
 347 693 347 693 312 512 c 0,35,36
 285 373 285 373 285 307 c 0,37,38
 285 218 285 218 322.5 161 c 128,-1,39
 360 104 360 104 440 104 c 0,40,41
 507 104 507 104 562.5 147.5 c 128,-1,42
 618 191 618 191 652 256 c 0,43,44
 693 334 693 334 728 512 c 0,45,46
 754 646 754 646 754 717 c 0,27,28
EndSplineSet
EndChar

StartChar: Dcroat
Encoding: 272 272 210
Width: 1024
Flags: W
LayerCount: 2
Fore
SplineSet
938 947 m 0,0,1
 938 1104 938 1104 859.5 1196 c 128,-1,2
 781 1288 781 1288 614 1288 c 2,3,-1
 494 1288 l 1,4,-1
 393 764 l 1,5,-1
 649 764 l 1,6,-1
 625 644 l 1,7,-1
 369 644 l 1,8,-1
 267 120 l 1,9,-1
 387 120 l 2,10,11
 597 120 597 120 743 278 c 0,12,13
 807 352 807 352 843 452 c 128,-1,14
 879 552 879 552 909 704 c 0,15,16
 938 854 938 854 938 947 c 0,0,1
638 1408 m 2,17,18
 805 1408 805 1408 923 1317 c 0,19,20
 1069 1203 1069 1203 1069 961 c 0,21,22
 1069 872 1069 872 1037 704 c 0,23,24
 1001 516 1001 516 949 400 c 0,25,26
 912 319 912 319 856.5 248.5 c 128,-1,27
 801 178 801 178 728.5 121.5 c 128,-1,28
 656 65 656 65 561.5 32.5 c 128,-1,29
 467 0 467 0 364 0 c 2,30,-1
 116 0 l 1,31,-1
 241 644 l 1,32,-1
 113 644 l 1,33,-1
 137 764 l 1,34,-1
 265 764 l 1,35,-1
 390 1408 l 1,36,-1
 638 1408 l 2,17,18
EndSplineSet
EndChar

StartChar: dcroat
Encoding: 273 273 211
Width: 1024
Flags: W
LayerCount: 2
Fore
SplineSet
397 -16 m 0,0,1
 287 -16 287 -16 217 61 c 128,-1,2
 147 138 147 138 147 269 c 0,3,4
 147 322 147 322 171 448 c 0,5,6
 201 604 201 604 238 675 c 0,7,8
 294 786 294 786 385.5 849 c 128,-1,9
 477 912 477 912 577 912 c 0,10,11
 705 912 705 912 768 771 c 1,12,-1
 778 771 l 1,13,-1
 853 1156 l 1,14,-1
 469 1156 l 1,15,-1
 492 1276 l 1,16,-1
 876 1276 l 1,17,-1
 902 1408 l 1,18,-1
 1030 1408 l 1,19,-1
 1004 1276 l 1,20,-1
 1132 1276 l 1,21,-1
 1109 1156 l 1,22,-1
 981 1156 l 1,23,-1
 756 0 l 1,24,-1
 628 0 l 1,25,-1
 652 125 l 1,26,-1
 642 125 l 1,27,28
 524 -16 524 -16 397 -16 c 0,0,1
734 598 m 0,29,30
 734 682 734 682 693 737 c 128,-1,31
 652 792 652 792 574 792 c 0,32,33
 506 792 506 792 448 748 c 128,-1,34
 390 704 390 704 357 640 c 0,35,36
 322 572 322 572 299 448 c 0,37,38
 280 347 280 347 280 298 c 0,39,40
 280 214 280 214 321 159 c 128,-1,41
 362 104 362 104 440 104 c 0,42,43
 508 104 508 104 566 148 c 128,-1,44
 624 192 624 192 657 256 c 0,45,46
 692 324 692 324 715 448 c 0,47,48
 734 549 734 549 734 598 c 0,29,30
EndSplineSet
EndChar

StartChar: emacron
Encoding: 275 275 213
Width: 1024
Flags: W
LayerCount: 2
Fore
SplineSet
792 745 m 0,0,1
 792 830 792 830 747.5 875 c 128,-1,2
 703 920 703 920 615 920 c 0,3,4
 543 920 543 920 486 888 c 128,-1,5
 429 856 429 856 396 799 c 0,6,7
 366 752 366 752 337 632 c 1,8,-1
 781 632 l 1,9,10
 792 705 792 705 792 745 c 0,0,1
283 301 m 0,11,12
 283 104 283 104 476 104 c 0,13,14
 593 104 593 104 780 125 c 1,15,-1
 757 5 l 1,16,17
 572 -16 572 -16 453 -16 c 0,18,19
 307 -16 307 -16 230 63.5 c 128,-1,20
 153 143 153 143 153 280 c 0,21,22
 153 347 153 347 184 512 c 0,23,24
 199 591 199 591 209 635.5 c 128,-1,25
 219 680 219 680 239 738 c 128,-1,26
 259 796 259 796 284 839 c 0,27,28
 335 928 335 928 428 984 c 128,-1,29
 521 1040 521 1040 638 1040 c 0,30,31
 770 1040 770 1040 845.5 967 c 128,-1,32
 921 894 921 894 921 761 c 0,33,34
 921 681 921 681 888 512 c 1,35,-1
 312 512 l 1,36,37
 283 359 283 359 283 301 c 0,11,12
390 1408 m 1,38,-1
 1030 1408 l 1,39,-1
 1006 1288 l 1,40,-1
 366 1288 l 1,41,-1
 390 1408 l 1,38,-1
EndSplineSet
EndChar

StartChar: ebreve
Encoding: 277 277 215
Width: 1024
Flags: W
LayerCount: 2
Fore
SplineSet
792 745 m 0,0,1
 792 830 792 830 747.5 875 c 128,-1,2
 703 920 703 920 615 920 c 0,3,4
 543 920 543 920 486 888 c 128,-1,5
 429 856 429 856 396 799 c 0,6,7
 366 752 366 752 337 632 c 1,8,-1
 781 632 l 1,9,10
 792 705 792 705 792 745 c 0,0,1
283 301 m 0,11,12
 283 104 283 104 476 104 c 0,13,14
 593 104 593 104 780 125 c 1,15,-1
 757 5 l 1,16,17
 572 -16 572 -16 453 -16 c 0,18,19
 307 -16 307 -16 230 63.5 c 128,-1,20
 153 143 153 143 153 280 c 0,21,22
 153 347 153 347 184 512 c 0,23,24
 199 591 199 591 209 635.5 c 128,-1,25
 219 680 219 680 239 738 c 128,-1,26
 259 796 259 796 284 839 c 0,27,28
 335 928 335 928 428 984 c 128,-1,29
 521 1040 521 1040 638 1040 c 0,30,31
 770 1040 770 1040 845.5 967 c 128,-1,32
 921 894 921 894 921 761 c 0,33,34
 921 681 921 681 888 512 c 1,35,-1
 312 512 l 1,36,37
 283 359 283 359 283 301 c 0,11,12
922 1408 m 1,38,-1
 1050 1408 l 1,39,40
 1026 1285 1026 1285 914 1210.5 c 128,-1,41
 802 1136 802 1136 657 1136 c 0,42,43
 528 1136 528 1136 446.5 1196 c 128,-1,44
 365 1256 365 1256 365 1358 c 0,45,46
 365 1380 365 1380 370 1408 c 1,47,-1
 498 1408 l 1,48,49
 495 1393 495 1393 495 1379 c 0,50,51
 495 1323 495 1323 541.5 1289.5 c 128,-1,52
 588 1256 588 1256 680 1256 c 0,53,54
 783 1256 783 1256 846 1298 c 128,-1,55
 909 1340 909 1340 922 1408 c 1,38,-1
EndSplineSet
EndChar

StartChar: edotaccent
Encoding: 279 279 217
Width: 1024
Flags: W
LayerCount: 2
Fore
SplineSet
792 745 m 0,0,1
 792 830 792 830 747.5 875 c 128,-1,2
 703 920 703 920 615 920 c 0,3,4
 543 920 543 920 486 888 c 128,-1,5
 429 856 429 856 396 799 c 0,6,7
 366 752 366 752 337 632 c 1,8,-1
 781 632 l 1,9,10
 792 705 792 705 792 745 c 0,0,1
283 301 m 0,11,12
 283 104 283 104 476 104 c 0,13,14
 593 104 593 104 780 125 c 1,15,-1
 757 5 l 1,16,17
 572 -16 572 -16 453 -16 c 0,18,19
 307 -16 307 -16 230 63.5 c 128,-1,20
 153 143 153 143 153 280 c 0,21,22
 153 347 153 347 184 512 c 0,23,24
 199 591 199 591 209 635.5 c 128,-1,25
 219 680 219 680 239 738 c 128,-1,26
 259 796 259 796 284 839 c 0,27,28
 335 928 335 928 428 984 c 128,-1,29
 521 1040 521 1040 638 1040 c 0,30,31
 770 1040 770 1040 845.5 967 c 128,-1,32
 921 894 921 894 921 761 c 0,33,34
 921 681 921 681 888 512 c 1,35,-1
 312 512 l 1,36,37
 283 359 283 359 283 301 c 0,11,12
577 1287 m 0,38,39
 577 1347 577 1347 617.5 1385.5 c 128,-1,40
 658 1424 658 1424 713 1424 c 0,41,42
 755 1424 755 1424 780.5 1400 c 128,-1,43
 806 1376 806 1376 806 1337 c 0,44,45
 806 1277 806 1277 765 1238.5 c 128,-1,46
 724 1200 724 1200 669 1200 c 0,47,48
 627 1200 627 1200 602 1224 c 128,-1,49
 577 1248 577 1248 577 1287 c 0,38,39
EndSplineSet
EndChar

StartChar: Eogonek
Encoding: 280 280 218
Width: 1024
Flags: W
LayerCount: 2
Fore
SplineSet
756 0 m 1,0,-1
 116 0 l 1,1,-1
 390 1408 l 1,2,-1
 1158 1408 l 1,3,-1
 1134 1288 l 1,4,-1
 494 1288 l 1,5,-1
 393 764 l 1,6,-1
 905 764 l 1,7,-1
 881 644 l 1,8,-1
 369 644 l 1,9,-1
 267 120 l 1,10,-1
 907 120 l 1,11,-1
 884 0 l 1,12,13
 807 -46 807 -46 768.5 -91 c 128,-1,14
 730 -136 730 -136 718 -198 c 0,15,16
 715 -210 715 -210 715 -221 c 0,17,18
 715 -251 715 -251 731.5 -265.5 c 128,-1,19
 748 -280 748 -280 771 -280 c 0,20,21
 805 -280 805 -280 832 -268 c 1,22,-1
 808 -389 l 1,23,24
 776 -400 776 -400 727 -400 c 0,25,26
 671 -400 671 -400 627.5 -357 c 128,-1,27
 584 -314 584 -314 584 -245 c 0,28,29
 584 -224 584 -224 588 -205 c 0,30,31
 610 -91 610 -91 756 0 c 1,0,-1
EndSplineSet
EndChar

StartChar: eogonek
Encoding: 281 281 219
Width: 1024
Flags: W
LayerCount: 2
Fore
SplineSet
283 301 m 0,0,1
 283 104 283 104 476 104 c 0,2,3
 593 104 593 104 780 125 c 1,4,-1
 757 5 l 1,5,6
 673 -46 673 -46 630.5 -96 c 128,-1,7
 588 -146 588 -146 588 -216 c 0,8,9
 588 -246 588 -246 604.5 -260.5 c 128,-1,10
 621 -275 621 -275 644 -275 c 0,11,12
 678 -275 678 -275 705 -263 c 1,13,-1
 681 -384 l 1,14,15
 649 -395 649 -395 600 -395 c 0,16,17
 544 -395 544 -395 500.5 -352 c 128,-1,18
 457 -309 457 -309 457 -240 c 0,19,20
 457 -110 457 -110 606 -10 c 1,21,22
 528 -16 528 -16 453 -16 c 0,23,24
 305 -16 305 -16 229 63.5 c 128,-1,25
 153 143 153 143 153 280 c 0,26,27
 153 347 153 347 184 512 c 0,28,29
 199 591 199 591 209 635.5 c 128,-1,30
 219 680 219 680 239 738 c 128,-1,31
 259 796 259 796 284 839 c 0,32,33
 335 928 335 928 428 984 c 128,-1,34
 521 1040 521 1040 638 1040 c 0,35,36
 777 1040 777 1040 849 963.5 c 128,-1,37
 921 887 921 887 921 761 c 0,38,39
 921 681 921 681 888 512 c 1,40,-1
 312 512 l 1,41,42
 283 359 283 359 283 301 c 0,0,1
792 745 m 0,43,44
 792 830 792 830 747.5 875 c 128,-1,45
 703 920 703 920 615 920 c 0,46,47
 543 920 543 920 486 888 c 128,-1,48
 429 856 429 856 396 799 c 0,49,50
 366 752 366 752 337 632 c 1,51,-1
 781 632 l 1,52,53
 792 704 792 704 792 745 c 0,43,44
EndSplineSet
EndChar

StartChar: ecaron
Encoding: 283 283 221
Width: 1024
Flags: W
LayerCount: 2
Fore
SplineSet
792 745 m 0,0,1
 792 830 792 830 747.5 875 c 128,-1,2
 703 920 703 920 615 920 c 0,3,4
 543 920 543 920 486 888 c 128,-1,5
 429 856 429 856 396 799 c 0,6,7
 366 752 366 752 337 632 c 1,8,-1
 781 632 l 1,9,10
 792 705 792 705 792 745 c 0,0,1
283 301 m 0,11,12
 283 104 283 104 476 104 c 0,13,14
 593 104 593 104 780 125 c 1,15,-1
 757 5 l 1,16,17
 572 -16 572 -16 453 -16 c 0,18,19
 307 -16 307 -16 230 63.5 c 128,-1,20
 153 143 153 143 153 280 c 0,21,22
 153 347 153 347 184 512 c 0,23,24
 199 591 199 591 209 635.5 c 128,-1,25
 219 680 219 680 239 738 c 128,-1,26
 259 796 259 796 284 839 c 0,27,28
 335 928 335 928 428 984 c 128,-1,29
 521 1040 521 1040 638 1040 c 0,30,31
 770 1040 770 1040 845.5 967 c 128,-1,32
 921 894 921 894 921 761 c 0,33,34
 921 681 921 681 888 512 c 1,35,-1
 312 512 l 1,36,37
 283 359 283 359 283 301 c 0,11,12
581 1152 m 1,38,-1
 334 1408 l 1,39,-1
 492 1408 l 1,40,-1
 678 1244 l 1,41,-1
 928 1408 l 1,42,-1
 1086 1408 l 1,43,-1
 739 1152 l 1,44,-1
 581 1152 l 1,38,-1
EndSplineSet
EndChar

StartChar: gcircumflex
Encoding: 285 285 223
Width: 1024
Flags: W
LayerCount: 2
Fore
SplineSet
754 717 m 0,0,1
 754 806 754 806 716.5 863 c 128,-1,2
 679 920 679 920 599 920 c 0,3,4
 532 920 532 920 476.5 876.5 c 128,-1,5
 421 833 421 833 387 768 c 0,6,7
 347 693 347 693 312 512 c 0,8,9
 285 373 285 373 285 307 c 0,10,11
 285 218 285 218 322.5 161 c 128,-1,12
 360 104 360 104 440 104 c 0,13,14
 507 104 507 104 562.5 147.5 c 128,-1,15
 618 191 618 191 652 256 c 0,16,17
 693 334 693 334 728 512 c 0,18,19
 754 646 754 646 754 717 c 0,0,1
397 -16 m 0,20,21
 285 -16 285 -16 218.5 63 c 128,-1,22
 152 142 152 142 152 277 c 0,23,24
 152 344 152 344 184 512 c 0,25,26
 199 586 199 586 206.5 621 c 128,-1,27
 214 656 214 656 230.5 708.5 c 128,-1,28
 247 761 247 761 268 803 c 0,29,30
 325 915 325 915 414 977.5 c 128,-1,31
 503 1040 503 1040 602 1040 c 0,32,33
 730 1040 730 1040 793 899 c 1,34,-1
 803 899 l 1,35,-1
 827 1024 l 1,36,-1
 955 1024 l 1,37,-1
 762 32 l 2,38,39
 752 -16 752 -16 744.5 -46 c 128,-1,40
 737 -76 737 -76 711 -135 c 128,-1,41
 685 -194 685 -194 648 -241 c 0,42,43
 522 -400 522 -400 318 -400 c 0,44,45
 201 -400 201 -400 85 -385 c 1,46,-1
 108 -265 l 1,47,48
 241 -280 241 -280 342 -280 c 0,49,50
 469 -280 469 -280 549 -182 c 0,51,52
 606 -112 606 -112 634 32 c 2,53,-1
 652 125 l 1,54,-1
 642 125 l 1,55,56
 524 -16 524 -16 397 -16 c 0,20,21
631 1408 m 1,57,-1
 789 1408 l 1,58,-1
 1036 1152 l 1,59,-1
 878 1152 l 1,60,-1
 692 1316 l 1,61,-1
 442 1152 l 1,62,-1
 284 1152 l 1,63,-1
 631 1408 l 1,57,-1
EndSplineSet
EndChar

StartChar: gbreve
Encoding: 287 287 225
Width: 1024
Flags: W
LayerCount: 2
Fore
SplineSet
754 717 m 0,0,1
 754 806 754 806 716.5 863 c 128,-1,2
 679 920 679 920 599 920 c 0,3,4
 532 920 532 920 476.5 876.5 c 128,-1,5
 421 833 421 833 387 768 c 0,6,7
 347 693 347 693 312 512 c 0,8,9
 285 373 285 373 285 307 c 0,10,11
 285 218 285 218 322.5 161 c 128,-1,12
 360 104 360 104 440 104 c 0,13,14
 507 104 507 104 562.5 147.5 c 128,-1,15
 618 191 618 191 652 256 c 0,16,17
 693 334 693 334 728 512 c 0,18,19
 754 646 754 646 754 717 c 0,0,1
397 -16 m 0,20,21
 285 -16 285 -16 218.5 63 c 128,-1,22
 152 142 152 142 152 277 c 0,23,24
 152 344 152 344 184 512 c 0,25,26
 199 586 199 586 206.5 621 c 128,-1,27
 214 656 214 656 230.5 708.5 c 128,-1,28
 247 761 247 761 268 803 c 0,29,30
 325 915 325 915 414 977.5 c 128,-1,31
 503 1040 503 1040 602 1040 c 0,32,33
 730 1040 730 1040 793 899 c 1,34,-1
 803 899 l 1,35,-1
 827 1024 l 1,36,-1
 955 1024 l 1,37,-1
 762 32 l 2,38,39
 752 -16 752 -16 744.5 -46 c 128,-1,40
 737 -76 737 -76 711 -135 c 128,-1,41
 685 -194 685 -194 648 -241 c 0,42,43
 522 -400 522 -400 318 -400 c 0,44,45
 201 -400 201 -400 85 -385 c 1,46,-1
 108 -265 l 1,47,48
 241 -280 241 -280 342 -280 c 0,49,50
 469 -280 469 -280 549 -182 c 0,51,52
 606 -112 606 -112 634 32 c 2,53,-1
 652 125 l 1,54,-1
 642 125 l 1,55,56
 524 -16 524 -16 397 -16 c 0,20,21
922 1408 m 1,57,-1
 1050 1408 l 1,58,59
 1026 1285 1026 1285 914 1210.5 c 128,-1,60
 802 1136 802 1136 657 1136 c 0,61,62
 528 1136 528 1136 446.5 1196 c 128,-1,63
 365 1256 365 1256 365 1358 c 0,64,65
 365 1380 365 1380 370 1408 c 1,66,-1
 498 1408 l 1,67,68
 495 1393 495 1393 495 1380 c 0,69,70
 495 1324 495 1324 541.5 1290 c 128,-1,71
 588 1256 588 1256 680 1256 c 0,72,73
 783 1256 783 1256 846 1298 c 128,-1,74
 909 1340 909 1340 922 1408 c 1,57,-1
EndSplineSet
EndChar

StartChar: gdotaccent
Encoding: 289 289 227
Width: 1024
Flags: W
LayerCount: 2
Fore
SplineSet
754 717 m 0,0,1
 754 806 754 806 716.5 863 c 128,-1,2
 679 920 679 920 599 920 c 0,3,4
 532 920 532 920 476.5 876.5 c 128,-1,5
 421 833 421 833 387 768 c 0,6,7
 347 693 347 693 312 512 c 0,8,9
 285 373 285 373 285 307 c 0,10,11
 285 218 285 218 322.5 161 c 128,-1,12
 360 104 360 104 440 104 c 0,13,14
 507 104 507 104 562.5 147.5 c 128,-1,15
 618 191 618 191 652 256 c 0,16,17
 693 334 693 334 728 512 c 0,18,19
 754 646 754 646 754 717 c 0,0,1
397 -16 m 0,20,21
 285 -16 285 -16 218.5 63 c 128,-1,22
 152 142 152 142 152 277 c 0,23,24
 152 344 152 344 184 512 c 0,25,26
 199 586 199 586 206.5 621 c 128,-1,27
 214 656 214 656 230.5 708.5 c 128,-1,28
 247 761 247 761 268 803 c 0,29,30
 325 915 325 915 414 977.5 c 128,-1,31
 503 1040 503 1040 602 1040 c 0,32,33
 730 1040 730 1040 793 899 c 1,34,-1
 803 899 l 1,35,-1
 827 1024 l 1,36,-1
 955 1024 l 1,37,-1
 762 32 l 2,38,39
 752 -16 752 -16 744.5 -46 c 128,-1,40
 737 -76 737 -76 711 -135 c 128,-1,41
 685 -194 685 -194 648 -241 c 0,42,43
 522 -400 522 -400 318 -400 c 0,44,45
 201 -400 201 -400 85 -385 c 1,46,-1
 108 -265 l 1,47,48
 241 -280 241 -280 342 -280 c 0,49,50
 469 -280 469 -280 549 -182 c 0,51,52
 606 -112 606 -112 634 32 c 2,53,-1
 652 125 l 1,54,-1
 642 125 l 1,55,56
 524 -16 524 -16 397 -16 c 0,20,21
577 1287 m 0,57,58
 577 1347 577 1347 617.5 1385.5 c 128,-1,59
 658 1424 658 1424 713 1424 c 0,60,61
 755 1424 755 1424 780.5 1400 c 128,-1,62
 806 1376 806 1376 806 1337 c 0,63,64
 806 1277 806 1277 765 1238.5 c 128,-1,65
 724 1200 724 1200 669 1200 c 0,66,67
 627 1200 627 1200 602 1224 c 128,-1,68
 577 1248 577 1248 577 1287 c 0,57,58
EndSplineSet
EndChar

StartChar: uni0122
Encoding: 290 290 228
Width: 1024
Flags: W
LayerCount: 2
Fore
SplineSet
500 -16 m 0,0,1
 286 -16 286 -16 179 98 c 128,-1,2
 72 212 72 212 72 410 c 0,3,4
 72 519 72 519 109 704 c 0,5,6
 150 919 150 919 206 1044 c 0,7,8
 284 1218 284 1218 440 1321 c 128,-1,9
 596 1424 596 1424 810 1424 c 0,10,11
 955 1424 955 1424 1107 1402 c 1,12,-1
 1083 1282 l 1,13,14
 924 1304 924 1304 786 1304 c 0,15,16
 619 1304 619 1304 503 1227.5 c 128,-1,17
 387 1151 387 1151 325 1016 c 0,18,19
 277 909 277 909 237 704 c 0,20,21
 203 526 203 526 203 432 c 0,22,23
 203 276 203 276 280.5 190 c 128,-1,24
 358 104 358 104 523 104 c 0,25,26
 640 104 640 104 781 128 c 1,27,-1
 882 648 l 1,28,-1
 626 648 l 1,29,-1
 649 768 l 1,30,-1
 1033 768 l 1,31,-1
 891 34 l 1,32,33
 673 -16 673 -16 500 -16 c 0,0,1
583 -233 m 2,34,35
 575 -275 575 -275 568.5 -298 c 128,-1,36
 562 -321 562 -321 542.5 -361 c 128,-1,37
 523 -401 523 -401 492 -433 c 0,38,39
 404 -528 404 -528 269 -528 c 1,40,-1
 293 -408 l 1,41,42
 359 -408 359 -408 401 -363 c 0,43,44
 417 -346 417 -346 428.5 -322.5 c 128,-1,45
 440 -299 440 -299 444.5 -282 c 128,-1,46
 449 -265 449 -265 455 -233 c 2,47,-1
 475 -128 l 1,48,-1
 603 -128 l 1,49,-1
 583 -233 l 2,34,35
EndSplineSet
EndChar

StartChar: uni0123
Encoding: 291 291 229
Width: 1024
Flags: W
LayerCount: 2
Fore
SplineSet
754 717 m 0,0,1
 754 806 754 806 716.5 863 c 128,-1,2
 679 920 679 920 599 920 c 0,3,4
 532 920 532 920 476.5 876.5 c 128,-1,5
 421 833 421 833 387 768 c 0,6,7
 347 693 347 693 312 512 c 0,8,9
 285 373 285 373 285 307 c 0,10,11
 285 218 285 218 322.5 161 c 128,-1,12
 360 104 360 104 440 104 c 0,13,14
 507 104 507 104 562.5 147.5 c 128,-1,15
 618 191 618 191 652 256 c 0,16,17
 693 334 693 334 728 512 c 0,18,19
 754 646 754 646 754 717 c 0,0,1
397 -16 m 0,20,21
 285 -16 285 -16 218.5 63 c 128,-1,22
 152 142 152 142 152 277 c 0,23,24
 152 344 152 344 184 512 c 0,25,26
 199 586 199 586 206.5 621 c 128,-1,27
 214 656 214 656 230.5 708.5 c 128,-1,28
 247 761 247 761 268 803 c 0,29,30
 325 915 325 915 414 977.5 c 128,-1,31
 503 1040 503 1040 602 1040 c 0,32,33
 730 1040 730 1040 793 899 c 1,34,-1
 803 899 l 1,35,-1
 827 1024 l 1,36,-1
 955 1024 l 1,37,-1
 762 32 l 2,38,39
 752 -16 752 -16 744.5 -46 c 128,-1,40
 737 -76 737 -76 711 -135 c 128,-1,41
 685 -194 685 -194 648 -241 c 0,42,43
 522 -400 522 -400 318 -400 c 0,44,45
 201 -400 201 -400 85 -385 c 1,46,-1
 108 -265 l 1,47,48
 241 -280 241 -280 342 -280 c 0,49,50
 469 -280 469 -280 549 -182 c 0,51,52
 606 -112 606 -112 634 32 c 2,53,-1
 652 125 l 1,54,-1
 642 125 l 1,55,56
 524 -16 524 -16 397 -16 c 0,20,21
488 1257 m 2,57,58
 496 1299 496 1299 502.5 1322 c 128,-1,59
 509 1345 509 1345 528.5 1385 c 128,-1,60
 548 1425 548 1425 579 1457 c 0,61,62
 667 1552 667 1552 802 1552 c 1,63,-1
 778 1432 l 1,64,65
 712 1432 712 1432 670 1387 c 0,66,67
 654 1370 654 1370 642.5 1346.5 c 128,-1,68
 631 1323 631 1323 626.5 1306 c 128,-1,69
 622 1289 622 1289 616 1257 c 2,70,-1
 596 1152 l 1,71,-1
 468 1152 l 1,72,-1
 488 1257 l 2,57,58
EndSplineSet
EndChar

StartChar: hcircumflex
Encoding: 293 293 231
Width: 1024
Flags: W
LayerCount: 2
Fore
SplineSet
747 648 m 0,0,1
 747 716 747 716 704.5 754 c 128,-1,2
 662 792 662 792 590 792 c 0,3,4
 496 792 496 792 431 730 c 0,5,6
 405 705 405 705 388 671 c 128,-1,7
 371 637 371 637 364.5 610.5 c 128,-1,8
 358 584 358 584 347 529 c 2,9,-1
 244 0 l 1,10,-1
 116 0 l 1,11,-1
 340 1152 l 1,12,-1
 468 1152 l 1,13,-1
 396 784 l 1,14,-1
 406 784 l 1,15,16
 455 842 455 842 516 877 c 128,-1,17
 577 912 577 912 633 912 c 0,18,19
 744 912 744 912 810.5 846.5 c 128,-1,20
 877 781 877 781 877 673 c 0,21,22
 877 625 877 625 859 529 c 2,23,-1
 756 0 l 1,24,-1
 628 0 l 1,25,-1
 731 529 l 2,26,27
 747 611 747 611 747 648 c 0,0,1
656 1536 m 1,28,-1
 814 1536 l 1,29,-1
 1061 1280 l 1,30,-1
 903 1280 l 1,31,-1
 717 1444 l 1,32,-1
 467 1280 l 1,33,-1
 309 1280 l 1,34,-1
 656 1536 l 1,28,-1
EndSplineSet
EndChar

StartChar: Hbar
Encoding: 294 294 232
Width: 1024
Flags: W
LayerCount: 2
Fore
SplineSet
262 1408 m 1,0,-1
 390 1408 l 1,1,-1
 364 1276 l 1,2,-1
 1004 1276 l 1,3,-1
 1030 1408 l 1,4,-1
 1158 1408 l 1,5,-1
 1132 1276 l 1,6,-1
 1260 1276 l 1,7,-1
 1237 1156 l 1,8,-1
 1109 1156 l 1,9,-1
 884 0 l 1,10,-1
 756 0 l 1,11,-1
 881 641 l 1,12,-1
 241 641 l 1,13,-1
 116 0 l 1,14,-1
 -12 0 l 1,15,-1
 213 1156 l 1,16,-1
 85 1156 l 1,17,-1
 108 1276 l 1,18,-1
 236 1276 l 1,19,-1
 262 1408 l 1,0,-1
341 1156 m 1,20,-1
 264 761 l 1,21,-1
 904 761 l 1,22,-1
 981 1156 l 1,23,-1
 341 1156 l 1,20,-1
EndSplineSet
EndChar

StartChar: hbar
Encoding: 295 295 233
Width: 1024
Flags: W
LayerCount: 2
Fore
SplineSet
747 648 m 0,0,1
 747 716 747 716 704.5 754 c 128,-1,2
 662 792 662 792 590 792 c 0,3,4
 496 792 496 792 431 730 c 0,5,6
 405 705 405 705 388 671 c 128,-1,7
 371 637 371 637 364.5 610.5 c 128,-1,8
 358 584 358 584 347 529 c 2,9,-1
 244 0 l 1,10,-1
 116 0 l 1,11,-1
 341 1156 l 1,12,-1
 213 1156 l 1,13,-1
 236 1276 l 1,14,-1
 364 1276 l 1,15,-1
 390 1408 l 1,16,-1
 518 1408 l 1,17,-1
 492 1276 l 1,18,-1
 876 1276 l 1,19,-1
 853 1156 l 1,20,-1
 469 1156 l 1,21,-1
 396 784 l 1,22,-1
 406 784 l 1,23,24
 455 842 455 842 516 877 c 128,-1,25
 577 912 577 912 633 912 c 0,26,27
 744 912 744 912 810.5 846.5 c 128,-1,28
 877 781 877 781 877 673 c 0,29,30
 877 625 877 625 859 529 c 2,31,-1
 756 0 l 1,32,-1
 628 0 l 1,33,-1
 731 529 l 2,34,35
 747 611 747 611 747 648 c 0,0,1
EndSplineSet
EndChar

StartChar: itilde
Encoding: 297 297 235
Width: 1024
Flags: W
LayerCount: 2
Fore
SplineSet
558 1284 m 0,0,1
 496 1284 496 1284 469 1171 c 1,2,-1
 342 1177 l 1,3,4
 364 1273 364 1273 427 1338.5 c 128,-1,5
 490 1404 490 1404 581 1404 c 0,6,7
 621 1404 621 1404 653 1391 c 128,-1,8
 685 1378 685 1378 704 1359 c 128,-1,9
 723 1340 723 1340 739 1321 c 128,-1,10
 755 1302 755 1302 773 1289 c 128,-1,11
 791 1276 791 1276 812 1276 c 0,12,13
 874 1276 874 1276 901 1389 c 1,14,-1
 1028 1383 l 1,15,16
 1007 1288 1007 1288 943.5 1222 c 128,-1,17
 880 1156 880 1156 789 1156 c 0,18,19
 749 1156 749 1156 717 1169 c 128,-1,20
 685 1182 685 1182 666 1201 c 128,-1,21
 647 1220 647 1220 631 1239 c 128,-1,22
 615 1258 615 1258 597 1271 c 128,-1,23
 579 1284 579 1284 558 1284 c 0,0,1
116 0 m 1,24,-1
 139 120 l 1,25,-1
 395 120 l 1,26,-1
 548 904 l 1,27,-1
 292 904 l 1,28,-1
 315 1024 l 1,29,-1
 699 1024 l 1,30,-1
 523 120 l 1,31,-1
 779 120 l 1,32,-1
 756 0 l 1,33,-1
 116 0 l 1,24,-1
EndSplineSet
EndChar

StartChar: imacron
Encoding: 299 299 237
Width: 1024
Flags: W
LayerCount: 2
Fore
SplineSet
390 1408 m 1,0,-1
 1030 1408 l 1,1,-1
 1006 1288 l 1,2,-1
 366 1288 l 1,3,-1
 390 1408 l 1,0,-1
116 0 m 1,4,-1
 139 120 l 1,5,-1
 395 120 l 1,6,-1
 548 904 l 1,7,-1
 292 904 l 1,8,-1
 315 1024 l 1,9,-1
 699 1024 l 1,10,-1
 523 120 l 1,11,-1
 779 120 l 1,12,-1
 756 0 l 1,13,-1
 116 0 l 1,4,-1
EndSplineSet
EndChar

StartChar: ibreve
Encoding: 301 301 239
Width: 1024
Flags: W
LayerCount: 2
Fore
SplineSet
922 1408 m 1,0,-1
 1050 1408 l 1,1,2
 1026 1285 1026 1285 914 1210.5 c 128,-1,3
 802 1136 802 1136 657 1136 c 0,4,5
 528 1136 528 1136 446.5 1196 c 128,-1,6
 365 1256 365 1256 365 1358 c 0,7,8
 365 1380 365 1380 370 1408 c 1,9,-1
 498 1408 l 1,10,11
 495 1393 495 1393 495 1380 c 0,12,13
 495 1324 495 1324 541.5 1290 c 128,-1,14
 588 1256 588 1256 680 1256 c 0,15,16
 783 1256 783 1256 846 1298 c 128,-1,17
 909 1340 909 1340 922 1408 c 1,0,-1
116 0 m 1,18,-1
 139 120 l 1,19,-1
 395 120 l 1,20,-1
 548 904 l 1,21,-1
 292 904 l 1,22,-1
 315 1024 l 1,23,-1
 699 1024 l 1,24,-1
 523 120 l 1,25,-1
 779 120 l 1,26,-1
 756 0 l 1,27,-1
 116 0 l 1,18,-1
EndSplineSet
EndChar

StartChar: Iogonek
Encoding: 302 302 240
Width: 1024
Flags: W
LayerCount: 2
Fore
SplineSet
329 -233 m 0,0,1
 329 -184 329 -184 352.5 -148.5 c 128,-1,2
 376 -113 376 -113 413.5 -93 c 128,-1,3
 451 -73 451 -73 490 -59.5 c 128,-1,4
 529 -46 529 -46 569 -31 c 128,-1,5
 609 -16 609 -16 628 0 c 1,6,-1
 116 0 l 1,7,-1
 139 120 l 1,8,-1
 395 120 l 1,9,-1
 622 1288 l 1,10,-1
 366 1288 l 1,11,-1
 390 1408 l 1,12,-1
 1030 1408 l 1,13,-1
 1006 1288 l 1,14,-1
 750 1288 l 1,15,-1
 523 120 l 1,16,-1
 779 120 l 1,17,-1
 756 0 l 1,18,19
 737 -30 737 -30 685.5 -56 c 128,-1,20
 634 -82 634 -82 585.5 -98.5 c 128,-1,21
 537 -115 537 -115 498.5 -144.5 c 128,-1,22
 460 -174 460 -174 460 -211 c 0,23,24
 460 -246 460 -246 494 -263 c 128,-1,25
 528 -280 528 -280 573 -280 c 0,26,27
 623 -280 623 -280 705 -260 c 1,28,-1
 682 -383 l 1,29,30
 593 -400 593 -400 549 -400 c 0,31,32
 465 -400 465 -400 397 -353 c 128,-1,33
 329 -306 329 -306 329 -233 c 0,0,1
EndSplineSet
EndChar

StartChar: iogonek
Encoding: 303 303 241
Width: 1024
Flags: W
LayerCount: 2
Fore
SplineSet
545 1287 m 0,0,1
 545 1347 545 1347 585.5 1385.5 c 128,-1,2
 626 1424 626 1424 681 1424 c 0,3,4
 723 1424 723 1424 748.5 1400 c 128,-1,5
 774 1376 774 1376 774 1337 c 0,6,7
 774 1277 774 1277 733 1238.5 c 128,-1,8
 692 1200 692 1200 637 1200 c 0,9,10
 595 1200 595 1200 570 1224 c 128,-1,11
 545 1248 545 1248 545 1287 c 0,0,1
573 -280 m 0,12,13
 623 -280 623 -280 705 -260 c 1,14,-1
 682 -383 l 1,15,16
 593 -400 593 -400 549 -400 c 0,17,18
 465 -400 465 -400 397 -353 c 128,-1,19
 329 -306 329 -306 329 -233 c 0,20,21
 329 -184 329 -184 352.5 -148.5 c 128,-1,22
 376 -113 376 -113 413.5 -93 c 128,-1,23
 451 -73 451 -73 490 -59.5 c 128,-1,24
 529 -46 529 -46 569 -31 c 128,-1,25
 609 -16 609 -16 628 0 c 1,26,-1
 116 0 l 1,27,-1
 139 120 l 1,28,-1
 395 120 l 1,29,-1
 548 904 l 1,30,-1
 292 904 l 1,31,-1
 315 1024 l 1,32,-1
 699 1024 l 1,33,-1
 523 120 l 1,34,-1
 779 120 l 1,35,-1
 756 0 l 1,36,37
 737 -30 737 -30 685.5 -56 c 128,-1,38
 634 -82 634 -82 585.5 -98.5 c 128,-1,39
 537 -115 537 -115 498.5 -144.5 c 128,-1,40
 460 -174 460 -174 460 -211 c 0,41,42
 460 -246 460 -246 494 -263 c 128,-1,43
 528 -280 528 -280 573 -280 c 0,12,13
EndSplineSet
EndChar

StartChar: dotlessi
Encoding: 305 305 243
Width: 1024
Flags: W
LayerCount: 2
Fore
SplineSet
436 0 m 1,0,-1
 612 904 l 1,1,-1
 356 904 l 1,2,-1
 379 1024 l 1,3,-1
 763 1024 l 1,4,-1
 564 0 l 1,5,-1
 436 0 l 1,0,-1
EndSplineSet
EndChar

StartChar: IJ
Encoding: 306 306 244
Width: 1024
Flags: W
LayerCount: 2
Fore
SplineSet
781 129 m 2,0,-1
 1005 1280 l 1,1,-1
 1133 1280 l 1,2,-1
 909 129 l 2,3,4
 894 53 894 53 884.5 11 c 128,-1,5
 875 -31 875 -31 854.5 -88.5 c 128,-1,6
 834 -146 834 -146 807 -190 c 0,7,8
 750 -283 750 -283 659.5 -341 c 128,-1,9
 569 -399 569 -399 454 -399 c 0,10,11
 356 -399 356 -399 171 -375 c 1,12,-1
 195 -254 l 1,13,14
 365 -279 365 -279 471 -279 c 0,15,16
 612 -279 612 -279 695 -148 c 0,17,18
 716 -114 716 -114 733.5 -63 c 128,-1,19
 751 -12 751 -12 759.5 24.5 c 128,-1,20
 768 61 768 61 781 129 c 2,0,-1
621 1280 m 1,21,-1
 597 1160 l 1,22,-1
 469 1160 l 1,23,-1
 267 120 l 1,24,-1
 395 120 l 1,25,-1
 372 0 l 1,26,-1
 -12 0 l 1,27,-1
 11 120 l 1,28,-1
 139 120 l 1,29,-1
 341 1160 l 1,30,-1
 213 1160 l 1,31,-1
 237 1280 l 1,32,-1
 621 1280 l 1,21,-1
EndSplineSet
EndChar

StartChar: ij
Encoding: 307 307 245
Width: 1024
Flags: W
LayerCount: 2
Fore
SplineSet
192 -265 m 1,0,1
 291 -280 291 -280 382 -280 c 0,2,3
 479 -280 479 -280 543 -218 c 0,4,5
 568 -193 568 -193 584.5 -158.5 c 128,-1,6
 601 -124 601 -124 607.5 -97.5 c 128,-1,7
 614 -71 614 -71 625 -14 c 2,8,-1
 804 904 l 1,9,-1
 676 904 l 1,10,-1
 699 1024 l 1,11,-1
 955 1024 l 1,12,-1
 751 -24 l 2,13,14
 739 -86 739 -86 730.5 -119 c 128,-1,15
 722 -152 722 -152 696 -203 c 128,-1,16
 670 -254 670 -254 631 -292 c 0,17,18
 521 -400 521 -400 368 -400 c 0,19,20
 266 -400 266 -400 169 -385 c 1,21,-1
 192 -265 l 1,0,1
801 1287 m 0,22,23
 801 1347 801 1347 841.5 1385.5 c 128,-1,24
 882 1424 882 1424 937 1424 c 0,25,26
 979 1424 979 1424 1004.5 1400 c 128,-1,27
 1030 1376 1030 1376 1030 1337 c 0,28,29
 1030 1277 1030 1277 989 1238.5 c 128,-1,30
 948 1200 948 1200 893 1200 c 0,31,32
 851 1200 851 1200 826 1224 c 128,-1,33
 801 1248 801 1248 801 1287 c 0,22,23
289 1287 m 0,34,35
 289 1347 289 1347 329.5 1385.5 c 128,-1,36
 370 1424 370 1424 425 1424 c 0,37,38
 467 1424 467 1424 492.5 1400 c 128,-1,39
 518 1376 518 1376 518 1337 c 0,40,41
 518 1277 518 1277 477 1238.5 c 128,-1,42
 436 1200 436 1200 381 1200 c 0,43,44
 339 1200 339 1200 314 1224 c 128,-1,45
 289 1248 289 1248 289 1287 c 0,34,35
-12 0 m 1,46,-1
 11 120 l 1,47,-1
 139 120 l 1,48,-1
 292 904 l 1,49,-1
 164 904 l 1,50,-1
 187 1024 l 1,51,-1
 443 1024 l 1,52,-1
 267 120 l 1,53,-1
 395 120 l 1,54,-1
 372 0 l 1,55,-1
 -12 0 l 1,46,-1
EndSplineSet
EndChar

StartChar: jcircumflex
Encoding: 309 309 247
Width: 1024
Flags: W
LayerCount: 2
Fore
SplineSet
64 -265 m 1,0,1
 163 -280 163 -280 254 -280 c 0,2,3
 351 -280 351 -280 415 -218 c 0,4,5
 440 -193 440 -193 456.5 -158.5 c 128,-1,6
 473 -124 473 -124 479.5 -97.5 c 128,-1,7
 486 -71 486 -71 497 -14 c 2,8,-1
 676 904 l 1,9,-1
 420 904 l 1,10,-1
 443 1024 l 1,11,-1
 827 1024 l 1,12,-1
 623 -24 l 2,13,14
 611 -86 611 -86 602.5 -119 c 128,-1,15
 594 -152 594 -152 568 -203 c 128,-1,16
 542 -254 542 -254 503 -292 c 0,17,18
 393 -400 393 -400 240 -400 c 0,19,20
 138 -400 138 -400 41 -385 c 1,21,-1
 64 -265 l 1,0,1
631 1408 m 1,22,-1
 789 1408 l 1,23,-1
 1036 1152 l 1,24,-1
 878 1152 l 1,25,-1
 692 1316 l 1,26,-1
 442 1152 l 1,27,-1
 284 1152 l 1,28,-1
 631 1408 l 1,22,-1
EndSplineSet
EndChar

StartChar: uni0136
Encoding: 310 310 248
Width: 1024
Flags: W
LayerCount: 2
Fore
SplineSet
116 0 m 1,0,-1
 -12 0 l 1,1,-1
 262 1408 l 1,2,-1
 390 1408 l 1,3,-1
 265 765 l 1,4,-1
 954 1408 l 1,5,-1
 1103 1408 l 1,6,-1
 507 827 l 1,7,-1
 922 0 l 1,8,-1
 755 0 l 1,9,-1
 386 729 l 1,10,-1
 228 578 l 1,11,-1
 116 0 l 1,0,-1
455 -233 m 2,12,13
 447 -275 447 -275 440.5 -298 c 128,-1,14
 434 -321 434 -321 414.5 -361 c 128,-1,15
 395 -401 395 -401 364 -433 c 0,16,17
 276 -528 276 -528 141 -528 c 1,18,-1
 165 -408 l 1,19,20
 231 -408 231 -408 273 -363 c 0,21,22
 289 -346 289 -346 300.5 -322.5 c 128,-1,23
 312 -299 312 -299 316.5 -282 c 128,-1,24
 321 -265 321 -265 327 -233 c 2,25,-1
 347 -128 l 1,26,-1
 475 -128 l 1,27,-1
 455 -233 l 2,12,13
EndSplineSet
EndChar

StartChar: uni0137
Encoding: 311 311 249
Width: 1024
Flags: W
LayerCount: 2
Fore
SplineSet
244 0 m 1,0,-1
 116 0 l 1,1,-1
 390 1408 l 1,2,-1
 518 1408 l 1,3,-1
 361 602 l 1,4,-1
 853 1024 l 1,5,-1
 1014 1024 l 1,6,-1
 577 645 l 1,7,-1
 862 0 l 1,8,-1
 706 0 l 1,9,-1
 478 560 l 1,10,-1
 329 435 l 1,11,-1
 244 0 l 1,0,-1
455 -233 m 2,12,13
 447 -275 447 -275 440.5 -298 c 128,-1,14
 434 -321 434 -321 414.5 -361 c 128,-1,15
 395 -401 395 -401 364 -433 c 0,16,17
 276 -528 276 -528 141 -528 c 1,18,-1
 165 -408 l 1,19,20
 231 -408 231 -408 273 -363 c 0,21,22
 289 -346 289 -346 300.5 -322.5 c 128,-1,23
 312 -299 312 -299 316.5 -282 c 128,-1,24
 321 -265 321 -265 327 -233 c 2,25,-1
 347 -128 l 1,26,-1
 475 -128 l 1,27,-1
 455 -233 l 2,12,13
EndSplineSet
EndChar

StartChar: kgreenlandic
Encoding: 312 312 250
Width: 1024
Flags: W
LayerCount: 2
Fore
SplineSet
244 0 m 1,0,-1
 116 0 l 1,1,-1
 315 1024 l 1,2,-1
 443 1024 l 1,3,-1
 362 607 l 1,4,-1
 843 1024 l 1,5,-1
 1014 1024 l 1,6,-1
 577 645 l 1,7,-1
 862 0 l 1,8,-1
 706 0 l 1,9,-1
 478 560 l 1,10,-1
 329 435 l 1,11,-1
 244 0 l 1,0,-1
EndSplineSet
EndChar

StartChar: Lacute
Encoding: 313 313 251
Width: 1024
Flags: W
LayerCount: 2
Fore
SplineSet
341 1280 m 1,0,-1
 557 1536 l 1,1,-1
 695 1536 l 1,2,-1
 479 1280 l 1,3,-1
 341 1280 l 1,0,-1
116 0 m 1,4,-1
 340 1152 l 1,5,-1
 468 1152 l 1,6,-1
 267 120 l 1,7,-1
 907 120 l 1,8,-1
 884 0 l 1,9,-1
 116 0 l 1,4,-1
EndSplineSet
EndChar

StartChar: lacute
Encoding: 314 314 252
Width: 1024
Flags: W
LayerCount: 2
Fore
SplineSet
544 203 m 0,0,1
 544 104 544 104 648 104 c 0,2,3
 715 104 715 104 777 109 c 1,4,-1
 754 -11 l 1,5,6
 659 -16 659 -16 615 -16 c 0,7,8
 509 -16 509 -16 455 52 c 0,9,10
 414 105 414 105 414 181 c 0,11,12
 414 212 414 212 426 279 c 2,13,-1
 596 1152 l 1,14,-1
 724 1152 l 1,15,-1
 554 279 l 2,16,17
 544 227 544 227 544 203 c 0,0,1
597 1280 m 1,18,-1
 813 1536 l 1,19,-1
 951 1536 l 1,20,-1
 735 1280 l 1,21,-1
 597 1280 l 1,18,-1
EndSplineSet
EndChar

StartChar: uni013B
Encoding: 315 315 253
Width: 1024
Flags: W
LayerCount: 2
Fore
SplineSet
116 0 m 1,0,-1
 390 1408 l 1,1,-1
 518 1408 l 1,2,-1
 267 120 l 1,3,-1
 907 120 l 1,4,-1
 884 0 l 1,5,-1
 116 0 l 1,0,-1
455 -233 m 2,6,7
 447 -275 447 -275 440.5 -298 c 128,-1,8
 434 -321 434 -321 414.5 -361 c 128,-1,9
 395 -401 395 -401 364 -433 c 0,10,11
 276 -528 276 -528 141 -528 c 1,12,-1
 165 -408 l 1,13,14
 231 -408 231 -408 273 -363 c 0,15,16
 289 -346 289 -346 300.5 -322.5 c 128,-1,17
 312 -299 312 -299 316.5 -282 c 128,-1,18
 321 -265 321 -265 327 -233 c 2,19,-1
 347 -128 l 1,20,-1
 475 -128 l 1,21,-1
 455 -233 l 2,6,7
EndSplineSet
EndChar

StartChar: uni013C
Encoding: 316 316 254
Width: 1024
Flags: W
LayerCount: 2
Fore
SplineSet
544 203 m 0,0,1
 544 104 544 104 648 104 c 0,2,3
 715 104 715 104 777 109 c 1,4,-1
 754 -11 l 1,5,6
 659 -16 659 -16 615 -16 c 0,7,8
 509 -16 509 -16 455 52 c 0,9,10
 414 105 414 105 414 181 c 0,11,12
 414 212 414 212 426 279 c 2,13,-1
 646 1408 l 1,14,-1
 774 1408 l 1,15,-1
 554 279 l 2,16,17
 544 227 544 227 544 203 c 0,0,1
583 -233 m 2,18,19
 575 -275 575 -275 568.5 -298 c 128,-1,20
 562 -321 562 -321 542.5 -361 c 128,-1,21
 523 -401 523 -401 492 -433 c 0,22,23
 404 -528 404 -528 269 -528 c 1,24,-1
 293 -408 l 1,25,26
 359 -408 359 -408 401 -363 c 0,27,28
 417 -346 417 -346 428.5 -322.5 c 128,-1,29
 440 -299 440 -299 444.5 -282 c 128,-1,30
 449 -265 449 -265 455 -233 c 2,31,-1
 475 -128 l 1,32,-1
 603 -128 l 1,33,-1
 583 -233 l 2,18,19
EndSplineSet
EndChar

StartChar: Lcaron
Encoding: 317 317 255
Width: 1024
Flags: W
LayerCount: 2
Fore
SplineSet
116 0 m 1,0,-1
 390 1408 l 1,1,-1
 518 1408 l 1,2,-1
 267 120 l 1,3,-1
 907 120 l 1,4,-1
 884 0 l 1,5,-1
 116 0 l 1,0,-1
902 1408 m 1,6,-1
 1030 1408 l 1,7,-1
 955 1024 l 1,8,-1
 827 1024 l 1,9,-1
 902 1408 l 1,6,-1
EndSplineSet
EndChar

StartChar: lcaron
Encoding: 318 318 256
Width: 1024
Flags: W
LayerCount: 2
Fore
SplineSet
288 203 m 0,0,1
 288 104 288 104 392 104 c 0,2,3
 459 104 459 104 521 109 c 1,4,-1
 498 -11 l 1,5,6
 403 -16 403 -16 359 -16 c 0,7,8
 253 -16 253 -16 199 52 c 0,9,10
 158 105 158 105 158 181 c 0,11,12
 158 212 158 212 170 279 c 2,13,-1
 390 1408 l 1,14,-1
 518 1408 l 1,15,-1
 298 279 l 2,16,17
 288 227 288 227 288 203 c 0,0,1
902 1408 m 1,18,-1
 1030 1408 l 1,19,-1
 955 1024 l 1,20,-1
 827 1024 l 1,21,-1
 902 1408 l 1,18,-1
EndSplineSet
EndChar

StartChar: Ldot
Encoding: 319 319 257
Width: 1024
Flags: W
LayerCount: 2
Fore
SplineSet
611 807 m 0,0,1
 611 867 611 867 651.5 905.5 c 128,-1,2
 692 944 692 944 747 944 c 0,3,4
 789 944 789 944 814.5 920 c 128,-1,5
 840 896 840 896 840 857 c 0,6,7
 840 797 840 797 799.5 758.5 c 128,-1,8
 759 720 759 720 704 720 c 0,9,10
 662 720 662 720 636.5 744 c 128,-1,11
 611 768 611 768 611 807 c 0,0,1
116 0 m 1,12,-1
 390 1408 l 1,13,-1
 518 1408 l 1,14,-1
 267 120 l 1,15,-1
 907 120 l 1,16,-1
 884 0 l 1,17,-1
 116 0 l 1,12,-1
EndSplineSet
EndChar

StartChar: ldot
Encoding: 320 320 258
Width: 1024
Flags: W
LayerCount: 2
Fore
SplineSet
416 203 m 0,0,1
 416 104 416 104 520 104 c 0,2,3
 587 104 587 104 649 109 c 1,4,-1
 626 -11 l 1,5,6
 531 -16 531 -16 487 -16 c 0,7,8
 381 -16 381 -16 327 52 c 0,9,10
 286 105 286 105 286 181 c 0,11,12
 286 212 286 212 298 279 c 2,13,-1
 518 1408 l 1,14,-1
 646 1408 l 1,15,-1
 426 279 l 2,16,17
 416 227 416 227 416 203 c 0,0,1
739 807 m 0,18,19
 739 867 739 867 779.5 905.5 c 128,-1,20
 820 944 820 944 875 944 c 0,21,22
 917 944 917 944 942.5 920 c 128,-1,23
 968 896 968 896 968 857 c 0,24,25
 968 797 968 797 927.5 758.5 c 128,-1,26
 887 720 887 720 832 720 c 0,27,28
 790 720 790 720 764.5 744 c 128,-1,29
 739 768 739 768 739 807 c 0,18,19
EndSplineSet
EndChar

StartChar: Lslash
Encoding: 321 321 259
Width: 1024
Flags: W
LayerCount: 2
Fore
SplineSet
45 467 m 1,0,-1
 375 674 l 1,1,-1
 518 1408 l 1,2,-1
 646 1408 l 1,3,-1
 521 765 l 1,4,-1
 771 922 l 1,5,-1
 827 825 l 1,6,-1
 491 614 l 1,7,-1
 395 120 l 1,8,-1
 907 120 l 1,9,-1
 884 0 l 1,10,-1
 244 0 l 1,11,-1
 346 523 l 1,12,-1
 95 366 l 1,13,-1
 45 467 l 1,0,-1
EndSplineSet
EndChar

StartChar: lslash
Encoding: 322 322 260
Width: 1024
Flags: W
LayerCount: 2
Fore
SplineSet
544 203 m 0,0,1
 544 104 544 104 648 104 c 0,2,3
 689 104 689 104 780 121 c 1,4,-1
 756 -2 l 1,5,6
 668 -16 668 -16 615 -16 c 0,7,8
 509 -16 509 -16 455 52 c 0,9,10
 414 105 414 105 414 181 c 0,11,12
 414 212 414 212 426 279 c 2,13,-1
 474 523 l 1,14,-1
 223 366 l 1,15,-1
 173 467 l 1,16,-1
 503 674 l 1,17,-1
 646 1408 l 1,18,-1
 774 1408 l 1,19,-1
 649 765 l 1,20,-1
 899 922 l 1,21,-1
 955 825 l 1,22,-1
 619 614 l 1,23,-1
 554 279 l 2,24,25
 544 227 544 227 544 203 c 0,0,1
EndSplineSet
EndChar

StartChar: nacute
Encoding: 324 324 262
Width: 1024
Flags: W
LayerCount: 2
Fore
SplineSet
772 776 m 0,0,1
 772 844 772 844 729.5 882 c 128,-1,2
 687 920 687 920 615 920 c 0,3,4
 521 920 521 920 456 858 c 0,5,6
 430 833 430 833 413 799 c 128,-1,7
 396 765 396 765 389.5 738.5 c 128,-1,8
 383 712 383 712 372 657 c 2,9,-1
 244 0 l 1,10,-1
 116 0 l 1,11,-1
 315 1024 l 1,12,-1
 443 1024 l 1,13,-1
 421 912 l 1,14,-1
 431 912 l 1,15,16
 480 970 480 970 541 1005 c 128,-1,17
 602 1040 602 1040 658 1040 c 0,18,19
 769 1040 769 1040 835.5 974.5 c 128,-1,20
 902 909 902 909 902 801 c 0,21,22
 902 753 902 753 884 657 c 2,23,-1
 756 0 l 1,24,-1
 628 0 l 1,25,-1
 756 657 l 2,26,27
 772 739 772 739 772 776 c 0,0,1
572 1152 m 1,28,-1
 788 1408 l 1,29,-1
 926 1408 l 1,30,-1
 710 1152 l 1,31,-1
 572 1152 l 1,28,-1
EndSplineSet
EndChar

StartChar: uni0145
Encoding: 325 325 263
Width: 1024
Flags: W
LayerCount: 2
Fore
SplineSet
116 0 m 1,0,-1
 -12 0 l 1,1,-1
 262 1408 l 1,2,-1
 389 1408 l 1,3,-1
 797 260 l 1,4,-1
 807 260 l 1,5,-1
 1030 1408 l 1,6,-1
 1158 1408 l 1,7,-1
 884 0 l 1,8,-1
 756 0 l 1,9,-1
 349 1148 l 1,10,-1
 339 1148 l 1,11,-1
 116 0 l 1,0,-1
455 -233 m 2,12,13
 447 -275 447 -275 440.5 -298 c 128,-1,14
 434 -321 434 -321 414.5 -361 c 128,-1,15
 395 -401 395 -401 364 -433 c 0,16,17
 276 -528 276 -528 141 -528 c 1,18,-1
 165 -408 l 1,19,20
 231 -408 231 -408 273 -363 c 0,21,22
 289 -346 289 -346 300.5 -322.5 c 128,-1,23
 312 -299 312 -299 316.5 -282 c 128,-1,24
 321 -265 321 -265 327 -233 c 2,25,-1
 347 -128 l 1,26,-1
 475 -128 l 1,27,-1
 455 -233 l 2,12,13
EndSplineSet
EndChar

